<svg width="18" height="18" viewBox="0 0 18 18" fill="none" xmlns="http://www.w3.org/2000/svg">
<g clip-path="url(#clip0_2582_1908)">
<path d="M0 8.64C0 4.56705 0 2.5306 1.2653 1.2653C2.5306 0 4.56705 0 8.64 0H9.36C13.4329 0 15.4694 0 16.7347 1.2653C18 2.5306 18 4.56705 18 8.64V9.36C18 13.4329 18 15.4694 16.7347 16.7347C15.4694 18 13.4329 18 9.36 18H8.64C4.56705 18 2.5306 18 1.2653 16.7347C0 15.4694 0 13.4329 0 9.36V8.64Z" fill="#01000E"/>
<path d="M9.5775 12.9675C5.475 12.9675 3.13504 10.155 3.03754 5.47504H5.09254C5.16004 8.91004 6.675 10.365 7.875 10.665V5.47504H9.81007V8.43754C10.9951 8.31004 12.2399 6.96004 12.6599 5.47504H14.595C14.2725 7.30504 12.9225 8.65504 11.9625 9.21004C12.9225 9.66004 14.46 10.8375 15.045 12.9675H12.915C12.4575 11.5425 11.3176 10.44 9.81007 10.29V12.9675H9.5775Z" fill="white"/>
</g>
<defs>
<clipPath id="clip0_2582_1908">
<rect width="18" height="18" fill="white"/>
</clipPath>
</defs>
</svg>
