<svg width="144" height="144" viewBox="0 0 144 144" fill="none" xmlns="http://www.w3.org/2000/svg">
<path d="M79.8 73.32C83.0015 70.5488 85.5693 67.1213 87.3292 63.2701C89.0892 59.419 90 55.2343 90 51C90 43.0435 86.8393 35.4129 81.2132 29.7868C75.5871 24.1607 67.9565 21 60 21C52.0435 21 44.4129 24.1607 38.7868 29.7868C33.1607 35.4129 30 43.0435 30 51C30 55.2343 30.9108 59.419 32.6708 63.2701C34.4307 67.1213 36.9985 70.5488 40.2 73.32C31.8008 77.1233 24.6748 83.2652 19.6739 91.0113C14.673 98.7574 12.0088 107.78 12 117C12 118.591 12.6321 120.117 13.7574 121.243C14.8826 122.368 16.4087 123 18 123C19.5913 123 21.1174 122.368 22.2426 121.243C23.3679 120.117 24 118.591 24 117C24 107.452 27.7928 98.2955 34.5442 91.5442C41.2955 84.7928 50.4522 81 60 81C69.5478 81 78.7045 84.7928 85.4558 91.5442C92.2072 98.2955 96 107.452 96 117C96 118.591 96.6321 120.117 97.7574 121.243C98.8826 122.368 100.409 123 102 123C103.591 123 105.117 122.368 106.243 121.243C107.368 120.117 108 118.591 108 117C107.991 107.78 105.327 98.7574 100.326 91.0113C95.3252 83.2652 88.1992 77.1233 79.8 73.32ZM60 69C56.4399 69 52.9598 67.9443 49.9997 65.9665C47.0396 63.9886 44.7325 61.1774 43.3702 57.8883C42.0078 54.5992 41.6513 50.98 42.3459 47.4884C43.0404 43.9967 44.7547 40.7894 47.2721 38.2721C49.7894 35.7547 52.9967 34.0404 56.4884 33.3459C59.98 32.6513 63.5992 33.0078 66.8883 34.3702C70.1774 35.7325 72.9886 38.0396 74.9665 40.9997C76.9443 43.9598 78 47.4399 78 51C78 55.7739 76.1036 60.3523 72.7279 63.7279C69.3523 67.1036 64.7739 69 60 69ZM130.26 54.78C129.702 54.2176 129.039 53.7713 128.307 53.4667C127.576 53.162 126.792 53.0052 126 53.0052C125.208 53.0052 124.424 53.162 123.693 53.4667C122.961 53.7713 122.298 54.2176 121.74 54.78L109.74 66.78L106.02 63C105.462 62.4376 104.799 61.9913 104.067 61.6867C103.336 61.382 102.552 61.2252 101.76 61.2252C100.968 61.2252 100.184 61.382 99.4525 61.6867C98.7214 61.9913 98.0578 62.4376 97.5 63C96.3825 64.1242 95.7552 65.6449 95.7552 67.23C95.7552 68.8151 96.3825 70.3358 97.5 71.46L105.54 79.5C106.664 80.6175 108.185 81.2448 109.77 81.2448C111.355 81.2448 112.876 80.6175 114 79.5L130.02 63.48C130.626 62.9359 131.114 62.2743 131.456 61.5353C131.798 60.7963 131.986 59.9955 132.009 59.1815C132.031 58.3676 131.888 57.5577 131.587 56.8009C131.286 56.0442 130.835 55.3566 130.26 54.78Z" fill="#C8FF29"/>
</svg>
