<svg width="144" height="144" viewBox="0 0 144 144" fill="none" xmlns="http://www.w3.org/2000/svg">
<path d="M42 96C44.3869 96 46.6761 95.0518 48.364 93.364C50.0518 91.6761 51 89.3869 51 87C51.0293 86.7007 51.0293 86.3993 51 86.1L67.74 69.36H69.12H70.5L80.16 79.02C80.16 79.02 80.16 79.32 80.16 79.5C80.16 81.8869 81.1082 84.1761 82.796 85.864C84.4839 87.5518 86.773 88.5 89.16 88.5C91.5469 88.5 93.8361 87.5518 95.524 85.864C97.2118 84.1761 98.16 81.8869 98.16 79.5V79.02L120 57C121.78 57 123.52 56.4722 125 55.4832C126.48 54.4943 127.634 53.0887 128.315 51.4442C128.996 49.7996 129.174 47.99 128.827 46.2442C128.48 44.4984 127.623 42.8947 126.364 41.636C125.105 40.3774 123.502 39.5202 121.756 39.1729C120.01 38.8257 118.2 39.0039 116.556 39.6851C114.911 40.3663 113.506 41.5198 112.517 42.9999C111.528 44.4799 111 46.22 111 48C110.971 48.2993 110.971 48.6007 111 48.9L89.34 70.56H88.38L78 60C78 57.6131 77.0518 55.3239 75.364 53.636C73.6761 51.9482 71.3869 51 69 51C66.6131 51 64.3239 51.9482 62.636 53.636C60.9482 55.3239 60 57.6131 60 60L42 78C39.6131 78 37.3239 78.9482 35.636 80.636C33.9482 82.3239 33 84.6131 33 87C33 89.3869 33.9482 91.6761 35.636 93.364C37.3239 95.0518 39.6131 96 42 96ZM123 120H21V18C21 16.4087 20.3679 14.8826 19.2426 13.7574C18.1174 12.6321 16.5913 12 15 12C13.4087 12 11.8826 12.6321 10.7574 13.7574C9.63214 14.8826 9 16.4087 9 18V126C9 127.591 9.63214 129.117 10.7574 130.243C11.8826 131.368 13.4087 132 15 132H123C124.591 132 126.117 131.368 127.243 130.243C128.368 129.117 129 127.591 129 126C129 124.409 128.368 122.883 127.243 121.757C126.117 120.632 124.591 120 123 120Z" fill="#C8FF29"/>
</svg>
