<svg width="144" height="144" viewBox="0 0 144 144" fill="none" xmlns="http://www.w3.org/2000/svg">
<path d="M102.54 16.9199C97.0214 12.3814 90.5596 9.1321 83.6256 7.40899C76.6916 5.68588 69.4605 5.53246 62.4596 6.95992C53.1379 8.84285 44.5856 13.4524 37.8877 20.2036C31.1899 26.9548 26.6485 35.5435 24.8396 44.8799C23.5187 51.8802 23.7588 59.0858 25.5426 65.9827C27.3265 72.8796 30.6102 79.2979 35.1597 84.7799C39.3818 89.5443 41.8019 95.637 41.9997 102V120C41.9997 124.774 43.8961 129.352 47.2717 132.728C50.6474 136.104 55.2258 138 59.9996 138H83.9996C88.7735 138 93.3519 136.104 96.7276 132.728C100.103 129.352 102 124.774 102 120V103.14C102.201 96.1149 104.782 89.3665 109.32 83.9999C117.27 74.1646 121.018 61.5888 119.749 49.0057C118.479 36.4225 112.295 24.8488 102.54 16.7999V16.9199ZM89.9996 120C89.9996 121.591 89.3675 123.117 88.2423 124.243C87.1171 125.368 85.591 126 83.9996 126H59.9996C58.4084 126 56.8822 125.368 55.757 124.243C54.6318 123.117 53.9997 121.591 53.9997 120V114H89.9996V120ZM100.02 76.5599C93.9867 83.7155 90.4668 92.6521 89.9996 102H77.9996V83.9999C77.9996 82.4086 77.3675 80.8825 76.2423 79.7573C75.1171 78.6321 73.591 77.9999 71.9996 77.9999C70.4084 77.9999 68.8822 78.6321 67.757 79.7573C66.6318 80.8825 65.9996 82.4086 65.9996 83.9999V102H53.9997C53.8413 92.8085 50.4413 83.9685 44.3997 77.0399C40.4135 72.2639 37.733 66.5365 36.6195 60.416C35.506 54.2956 35.9976 47.991 38.0462 42.1171C40.0948 36.2432 43.6306 31.0004 48.3088 26.8999C52.987 22.7994 58.6479 19.9811 64.7397 18.7199C69.975 17.642 75.3846 17.7434 80.5759 19.0167C85.7671 20.2901 90.6097 22.7035 94.7519 26.0816C98.8942 29.4598 102.232 33.718 104.524 38.547C106.815 43.3761 108.003 48.6548 108 53.9999C108.044 62.2191 105.222 70.1967 100.02 76.5599Z" fill="#C8FF29"/>
</svg>
