<svg width="144" height="144" viewBox="0 0 144 144" fill="none" xmlns="http://www.w3.org/2000/svg">
<path d="M41.9493 87.012C41.1613 87.0118 40.381 87.1669 39.6529 87.4683C38.9249 87.7698 38.2633 88.2117 37.7062 88.7689C37.149 89.3261 36.707 89.9876 36.4056 90.7157C36.1041 91.4437 35.949 92.224 35.9493 93.012V103.706C28.2155 94.9596 23.9475 83.687 23.9493 72.012C23.9481 70.2475 24.0538 68.4845 24.2656 66.7328C24.3628 65.9494 24.3044 65.1546 24.0938 64.3938C23.8832 63.6331 23.5245 62.9214 23.0384 62.2995C22.5522 61.6776 21.9481 61.1577 21.2607 60.7697C20.5733 60.3817 19.8161 60.1332 19.0324 60.0384C18.2488 59.9436 17.4541 60.0043 16.694 60.2172C15.9339 60.43 15.2232 60.7908 14.6028 61.2787C13.9823 61.7667 13.4643 62.3724 13.0783 63.0609C12.6923 63.7495 12.446 64.5075 12.3535 65.2914C12.0818 67.5213 11.9467 69.7657 11.9493 72.012C11.9574 86.329 17.103 100.168 26.4505 111.012H17.9493C16.358 111.012 14.8318 111.644 13.7066 112.769C12.5814 113.895 11.9493 115.421 11.9493 117.012C11.9493 118.603 12.5814 120.129 13.7066 121.255C14.8318 122.38 16.358 123.012 17.9493 123.012H41.9493C42.8876 123 43.8096 122.764 44.6384 122.324C45.4672 121.884 46.1789 121.252 46.714 120.481C46.784 120.389 46.8733 120.32 46.9385 120.223C46.9785 120.163 46.9795 120.093 47.0169 120.032C47.3028 119.549 47.517 119.027 47.6529 118.482C47.7417 118.176 47.8048 117.863 47.8414 117.547C47.8587 117.362 47.9494 117.202 47.9494 117.012V93.0122C47.9497 92.2242 47.7946 91.4439 47.4932 90.7158C47.1917 89.9877 46.7497 89.3262 46.1925 88.7689C45.6353 88.2117 44.9738 87.7698 44.2457 87.4683C43.5176 87.1669 42.7373 87.0118 41.9493 87.012ZM50.9493 36.012H40.2544C49.0012 28.2787 60.274 24.0107 71.9493 24.012C73.7129 24.0078 75.4751 24.1135 77.2256 24.3285C78.0081 24.4235 78.8017 24.3635 79.5611 24.1518C80.3204 23.9401 81.0306 23.581 81.6512 23.0948C82.2717 22.6087 82.7904 22.0051 83.1777 21.3184C83.565 20.6318 83.8132 19.8757 83.9082 19.0931C84.0032 18.3106 83.9432 17.517 83.7315 16.7576C83.5199 15.9983 83.1607 15.2881 82.6745 14.6675C82.1884 14.047 81.5848 13.5283 80.8982 13.141C80.2116 12.7538 79.4554 12.5055 78.6729 12.4105C76.4418 12.1413 74.1965 12.0083 71.9493 12.012C57.6324 12.0198 43.7937 17.165 32.9493 26.5122V18.012C32.9493 16.4207 32.3171 14.8946 31.1919 13.7694C30.0667 12.6442 28.5406 12.012 26.9493 12.012C25.358 12.012 23.8318 12.6442 22.7066 13.7694C21.5814 14.8946 20.9493 16.4207 20.9493 18.012V42.012C20.987 42.4086 21.066 42.8002 21.1851 43.1803L21.1866 43.1876C21.3323 43.9259 21.6199 44.6289 22.0336 45.2576L22.1021 45.359C22.4985 45.9356 22.9955 46.4363 23.5691 46.8371C23.6347 46.8851 23.6673 46.9586 23.7354 47.0044C23.8211 47.0612 23.9181 47.0792 24.0057 47.1311C24.3459 47.3358 24.7065 47.5047 25.0816 47.6351C25.5885 47.8115 26.117 47.9181 26.6526 47.9522C26.7566 47.9577 26.8441 48.0122 26.9493 48.0122H50.9493C52.5406 48.0122 54.0667 47.3801 55.1919 46.2549C56.3171 45.1296 56.9493 43.6035 56.9493 42.0122C56.9493 40.4209 56.3171 38.8948 55.1919 37.7696C54.0667 36.6444 52.5406 36.012 50.9493 36.012ZM122.712 100.837C122.566 100.098 122.279 99.3947 121.865 98.766L121.797 98.6653C121.4 98.0883 120.903 97.5874 120.329 97.1865C120.263 97.139 120.231 97.065 120.163 97.0196C120.098 96.9767 120.021 96.9753 119.956 96.935C119.194 96.5119 118.36 96.2362 117.497 96.1224C117.307 96.1044 117.144 96.0117 116.949 96.0117H92.9492C91.358 96.0117 89.8318 96.6439 88.7066 97.7691C87.5814 98.8943 86.9492 100.42 86.9492 102.012C86.9492 103.603 87.5814 105.129 88.7066 106.254C89.8318 107.38 91.358 108.012 92.9492 108.012H103.644C94.8971 115.745 83.6244 120.013 71.9493 120.012C70.1855 120.014 68.4232 119.906 66.6729 119.689C65.0924 119.498 63.5005 119.941 62.2473 120.923C60.994 121.905 60.1822 123.344 59.9902 124.925C59.7983 126.505 60.2421 128.097 61.2239 129.35C62.2057 130.604 63.6452 131.416 65.2256 131.607C67.4567 131.877 69.702 132.012 71.9493 132.012C86.2661 132.004 100.105 126.859 110.949 117.512V126.012C110.949 127.603 111.581 129.129 112.707 130.255C113.832 131.38 115.358 132.012 116.949 132.012C118.541 132.012 120.067 131.38 121.192 130.255C122.317 129.129 122.949 127.603 122.949 126.012V102.012C122.912 101.615 122.832 101.224 122.713 100.844L122.712 100.837ZM125.949 33.012C127.541 33.012 129.067 32.3799 130.192 31.2547C131.317 30.1295 131.949 28.6033 131.949 27.012C131.949 25.4207 131.317 23.8946 130.192 22.7694C129.067 21.6442 127.541 21.012 125.949 21.012H101.949C101.559 21.0497 101.173 21.1275 100.798 21.2442L100.758 21.2523C100.03 21.3981 99.3357 21.6822 98.7141 22.0895L98.5966 22.1689C98.0227 22.5648 97.5242 23.0601 97.1248 23.6316C97.0776 23.6964 97.0048 23.7282 96.96 23.7953C96.9172 23.8597 96.9157 23.9359 96.8754 24.0014C96.4472 24.767 96.1695 25.6074 96.0573 26.4774C96.0401 26.6627 95.9492 26.8224 95.9492 27.012V51.012C95.9492 52.6033 96.5814 54.1295 97.7066 55.2547C98.8318 56.3799 100.358 57.012 101.949 57.012C103.541 57.012 105.067 56.3799 106.192 55.2547C107.317 54.1295 107.949 52.6033 107.949 51.012V40.3148C115.682 49.0626 119.95 60.3359 119.949 72.0117C119.95 73.7763 119.845 75.5393 119.633 77.2911C119.443 78.8704 119.887 80.4607 120.868 81.713C121.849 82.9652 123.286 83.7772 124.865 83.9708C125.108 83.9989 125.353 84.0126 125.598 84.0117C127.063 84.0098 128.476 83.4719 129.572 82.4993C130.668 81.5268 131.369 80.1869 131.545 78.7325C131.817 76.5027 131.952 74.2583 131.949 72.012C131.941 57.695 126.795 43.8562 117.447 33.012H125.949Z" fill="#C8FF29"/>
</svg>
