<svg width="144" height="144" viewBox="0 0 144 144" fill="none" xmlns="http://www.w3.org/2000/svg">
<path d="M99 29.9999C93.7173 29.9957 88.5327 31.4267 84 34.1399C80.7136 26.5967 74.9423 20.4068 67.6472 16.6011C60.3522 12.7953 51.9735 11.6035 43.9066 13.2239C35.8396 14.8443 28.5711 19.1792 23.3115 25.5068C18.0519 31.8343 15.1186 39.7727 15 47.9999V71.9999C15.0086 80.5012 18.0255 88.7251 23.5163 95.2153C29.0071 101.705 36.6176 106.043 45 107.46V126C45 127.591 45.6321 129.117 46.7574 130.243C47.8826 131.368 49.4087 132 51 132C52.5913 132 54.1174 131.368 55.2426 130.243C56.3679 129.117 57 127.591 57 126V107.46C63.1124 106.399 68.8533 103.797 73.68 99.8999C75.8221 103.338 78.6383 106.307 81.9587 108.627C85.2791 110.947 89.0351 112.571 93 113.4V126C93 127.591 93.6321 129.117 94.7574 130.243C95.8826 131.368 97.4087 132 99 132C100.591 132 102.117 131.368 103.243 130.243C104.368 129.117 105 127.591 105 126V113.4C111.776 112.017 117.866 108.335 122.24 102.977C126.613 97.6199 129.001 90.9158 129 83.9999V59.9999C129 52.0434 125.839 44.4128 120.213 38.7867C114.587 33.1606 106.956 29.9999 99 29.9999ZM69 59.9999V83.9999C69.0574 85.1457 69.1776 86.2874 69.36 87.4199C66.1511 91.2417 61.8307 93.9682 57 95.2199V77.9999C57 76.4086 56.3679 74.8825 55.2426 73.7573C54.1174 72.6321 52.5913 71.9999 51 71.9999C49.4087 71.9999 47.8826 72.6321 46.7574 73.7573C45.6321 74.8825 45 76.4086 45 77.9999V95.1599C39.8611 93.8331 35.307 90.8403 32.0501 86.6498C28.7932 82.4592 27.0172 77.3073 27 71.9999V47.9999C26.9843 43.2453 28.3813 38.5932 31.0136 34.6337C33.6459 30.6743 37.395 27.5859 41.7852 25.7604C46.1755 23.9349 51.009 23.4545 55.6726 24.3802C60.3363 25.3059 64.6199 27.596 67.98 30.9599C71.2281 34.2518 73.4394 38.424 74.34 42.9599C70.8716 47.9662 69.0091 53.9096 69 59.9999ZM117 83.9999C116.99 87.7136 115.831 91.3331 113.682 94.3623C111.534 97.3915 108.501 99.6821 105 100.92V77.9999C105 76.4086 104.368 74.8825 103.243 73.7573C102.117 72.6321 100.591 71.9999 99 71.9999C97.4087 71.9999 95.8826 72.6321 94.7574 73.7573C93.6321 74.8825 93 76.4086 93 77.9999V100.92C89.4987 99.6821 86.466 97.3915 84.3176 94.3623C82.1693 91.3331 81.0104 87.7136 81 83.9999V59.9999C81 55.226 82.8964 50.6477 86.2721 47.272C89.6477 43.8964 94.2261 41.9999 99 41.9999C103.774 41.9999 108.352 43.8964 111.728 47.272C115.104 50.6477 117 55.226 117 59.9999V83.9999Z" fill="#C8FF29"/>
</svg>
