<svg width="121" height="120" viewBox="0 0 121 120" fill="none" xmlns="http://www.w3.org/2000/svg">
<path d="M95.9991 48C100.746 48 105.386 46.5924 109.333 43.9553C113.28 41.3181 116.356 37.5698 118.172 33.1844C119.989 28.799 120.464 23.9734 119.538 19.3178C118.612 14.6623 116.326 10.3859 112.97 7.02945C109.613 3.67299 105.337 1.38721 100.681 0.461164C96.0257 -0.464881 91.2001 0.0103987 86.8147 1.8269C82.4292 3.6434 78.681 6.71954 76.0438 10.6663C73.4066 14.6131 71.9991 19.2533 71.9991 24C71.9991 30.3652 74.5276 36.4697 79.0285 40.9706C83.5294 45.4714 89.6339 48 95.9991 48ZM95.9991 12C98.3724 12 100.693 12.7038 102.666 14.0224C104.639 15.341 106.177 17.2151 107.086 19.4078C107.994 21.6005 108.232 24.0133 107.768 26.3411C107.305 28.6689 106.163 30.8071 104.484 32.4853C102.806 34.1635 100.668 35.3064 98.3401 35.7694C96.0124 36.2325 93.5996 35.9948 91.4069 35.0866C89.2141 34.1783 87.34 32.6402 86.0214 30.6669C84.7029 28.6935 83.9991 26.3734 83.9991 24C83.9991 20.8174 85.2634 17.7652 87.5138 15.5147C89.7642 13.2643 92.8165 12 95.9991 12ZM89.0991 62.82C88.561 61.9518 87.8101 61.2352 86.9176 60.7384C86.0251 60.2415 85.0206 59.9807 83.9991 59.9807C82.9776 59.9807 81.973 60.2415 81.0805 60.7384C80.188 61.2352 79.4372 61.9518 78.8991 62.82L72.8991 72.6L53.1591 39C52.6278 38.1047 51.8727 37.363 50.968 36.8478C50.0633 36.3327 49.0402 36.0618 47.9991 36.0618C46.958 36.0618 45.9348 36.3327 45.0301 36.8478C44.1254 37.363 43.3703 38.1047 42.8391 39L0.839068 111C0.313963 111.909 0.0367588 112.941 0.0351632 113.991C0.0335675 115.041 0.307635 116.073 0.829974 116.984C1.35231 117.895 2.10463 118.653 3.01172 119.183C3.91881 119.712 4.94892 119.994 5.99907 120H113.999C115.071 120.002 116.124 119.717 117.049 119.174C117.973 118.632 118.735 117.851 119.256 116.914C119.777 115.977 120.037 114.917 120.009 113.846C119.981 112.774 119.667 111.729 119.099 110.82L89.0991 62.82ZM50.6991 108H16.4391L47.9991 54L65.6391 84L58.1391 96L50.6991 108ZM64.7991 108L73.7391 93.78L77.9991 87.42L83.9991 77.34L103.199 108H64.7991Z" fill="#C8FF29"/>
</svg>
