<svg width="80" height="65" viewBox="0 0 80 65" fill="none" xmlns="http://www.w3.org/2000/svg">
<path d="M79.3705 37.4979C76.6985 55.8328 57.8108 65.0003 39.1994 65.0003C18.7454 65.0003 0.871094 53.6328 0.871094 32.731C0.871094 10.3624 20.9566 0.186523 39.7522 0.186523C58.5478 0.186523 75.5929 9.35397 76.6064 27.6889H61.5883C61.5883 17.3296 52.3748 9.99562 39.0151 9.99562C35.9194 9.73222 32.8032 10.1435 29.8835 11.2009C26.9638 12.2582 24.3109 13.9361 22.1095 16.1178C19.9081 18.2994 18.2111 20.9324 17.1368 23.8332C16.0626 26.7341 15.6368 29.8329 15.8892 32.9142C15.5818 35.9995 15.9712 39.1141 17.0288 42.0305C18.0864 44.9468 19.7856 47.5912 22.0022 49.7703C24.2187 51.9493 26.8965 53.6082 29.84 54.6254C32.7835 55.6426 35.9183 55.9925 39.0151 55.6496C44.6389 56.2765 50.2965 54.8047 54.8922 51.5191C59.4878 48.2335 62.6947 43.368 63.8917 37.8647L79.3705 37.4979Z" fill="white"/>
</svg>
