<svg width="87" height="64" viewBox="0 0 87 64" fill="none" xmlns="http://www.w3.org/2000/svg">
<path d="M25.9842 24.7178C37.7933 25.1409 49.1991 29.1422 58.7039 36.1961C58.7039 34.1759 58.7039 29.7682 58.7039 28.0235C58.7039 17.0043 53.3115 12.5049 39.1452 12.5049H7.15668V0.567383H45.0859C65.9241 0.567383 75.1551 9.29087 75.1551 29.5846V50.3375H86.0312V62.734H64.5532C61.0802 62.734 59.5265 58.8773 59.5265 56.3061C59.8328 52.2477 60.9191 48.2873 62.7253 44.6441L59.7092 42.5321C56.9813 48.8574 52.436 54.2202 46.6556 57.9339C40.8752 61.6475 34.1229 63.5428 27.2637 63.3768C13.7371 63.3768 0.576172 55.847 0.576172 42.6239C0.576172 29.4009 12.6404 24.7178 25.9842 24.7178ZM33.2044 54.1942C37.7479 54.1881 42.2095 52.9798 46.1404 50.6907C50.0713 48.4016 53.3328 45.1127 55.5964 41.1548C48.5462 36.7491 40.5617 34.075 32.2905 33.3495C27.5379 33.3495 17.1188 34.9106 17.1188 43.7259C16.7532 50.5211 24.8874 54.1942 33.2044 54.1942Z" fill="white"/>
</svg>
