<svg width="76" height="66" viewBox="0 0 76 66" fill="none" xmlns="http://www.w3.org/2000/svg">
<path d="M74.4967 46.0778C74.4967 58.5809 61.0877 65.3841 37.28 65.3841C7.54306 65.3841 0.792969 51.8697 0.792969 43.9633H16.5736C17.2121 51.8697 27.5197 55.2712 38.1009 55.2712C54.6113 55.2712 60.4492 52.5132 60.4492 46.0778C60.4492 29.9893 5.71872 46.9972 5.71872 19.9685C5.71872 7.83313 17.7594 0.570312 40.2901 0.570312C59.2634 0.570312 75.3177 7.00571 75.3177 23.1862H60.4492C59.6282 13.9927 52.1484 10.8669 40.2901 10.8669C28.4319 10.8669 21.4081 13.2573 21.4081 20.612C20.6784 36.5167 74.4967 20.52 74.4967 46.0778Z" fill="white"/>
</svg>
