<svg width="79" height="65" viewBox="0 0 79 65" fill="none" xmlns="http://www.w3.org/2000/svg">
<path d="M78.9251 37.4979C76.2532 55.8328 57.3655 65.0003 38.8462 65.0003C18.3922 65.0003 0.425781 53.6328 0.425781 32.731C0.425781 10.3624 20.6034 0.186523 39.399 0.186523C58.1947 0.186523 75.1477 9.35397 76.2533 27.6889H60.8665C60.8665 17.3296 51.6531 9.99562 38.2935 9.99562C35.2014 9.7302 32.0884 10.1408 29.1727 11.1988C26.257 12.2567 23.609 13.9363 21.4145 16.1199C19.22 18.3034 17.5319 20.9381 16.4687 23.8392C15.4055 26.7404 14.9928 29.8377 15.2596 32.9142C14.9546 35.991 15.3424 39.0968 16.3948 42.0057C17.4473 44.9146 19.1379 47.5536 21.3439 49.731C23.5498 51.9083 26.2156 53.5693 29.1475 54.593C32.0794 55.6168 35.2038 55.9778 38.2935 55.6496C43.9173 56.2765 49.5747 54.8047 54.1704 51.5191C58.7661 48.2335 61.9729 43.368 63.1699 37.8647L78.9251 37.4979Z" fill="white"/>
</svg>
