<svg width="77" height="66" viewBox="0 0 77 66" fill="none" xmlns="http://www.w3.org/2000/svg">
<path d="M16.5583 33.6648V36.3233C16.6517 39.1029 17.3152 41.8327 18.5067 44.3393C19.6982 46.846 21.3918 49.0749 23.4801 50.8849C25.5683 52.6949 28.0058 54.0465 30.6377 54.8539C33.2697 55.6612 36.0388 55.9068 38.7695 55.575C43.531 55.9722 48.2968 54.8619 52.4065 52.3981C56.5161 49.9342 59.766 46.2388 61.7061 41.8238H76.0301C72.2225 57.9585 55.3601 65.3841 38.407 65.3841C17.6462 65.3841 0.511719 54.1081 0.511719 33.1147C0.511719 12.1213 18.6434 0.570312 37.7723 0.570312C58.8957 0.570312 72.857 13.1297 72.3131 33.6648H16.5583ZM56.4479 27.3392C56.5372 24.9031 56.0976 22.4768 55.1599 20.231C54.2221 17.9851 52.809 15.9745 51.0201 14.3403C49.2312 12.7061 47.1099 11.4882 44.8054 10.7722C42.501 10.0562 40.0694 9.85955 37.6817 10.1961C32.7195 9.73638 27.7791 11.2815 23.94 14.4937C20.1009 17.7059 17.6753 22.3241 17.193 27.3392H56.4479Z" fill="white"/>
</svg>
