<svg width="81" height="83" viewBox="0 0 81 83" fill="none" xmlns="http://www.w3.org/2000/svg">
<path d="M66.4523 37.1905H69.7899L64.6482 27.0326V0.62207H80.8851V81.5159H64.6482V74.036L69.6997 65.7249H65.5503C61.8016 70.9659 56.8801 75.2104 51.1984 78.1026C45.5167 80.9947 39.2405 82.4502 32.896 82.347C28.6051 82.5683 24.3162 81.8724 20.3024 80.3036C16.2887 78.7347 12.6381 76.3273 9.58323 73.2347C6.52832 70.1421 4.13605 66.4321 2.5588 62.3409C0.981553 58.2498 0.253901 53.8672 0.422182 49.4723C0.317247 45.1203 1.11075 40.7946 2.75081 36.7781C4.39087 32.7615 6.84056 29.1446 9.93972 26.1636C13.0389 23.1827 16.7177 20.905 20.7357 19.4794C24.7537 18.0538 29.0204 17.5123 33.2568 17.8905C39.9832 17.7027 46.6316 19.4016 52.4826 22.8034C58.3336 26.2053 63.1645 31.1804 66.4523 37.1905ZM64.6482 49.934C64.6482 38.4833 56.5298 28.3254 39.6614 28.3254C36.8184 28.2769 33.9939 28.8021 31.3491 29.8711C28.7044 30.9401 26.2912 32.5319 24.2474 34.5555C22.2036 36.5792 20.5691 38.9952 19.4374 41.6656C18.3056 44.3359 17.6987 47.2083 17.6513 50.1188C17.6039 53.0292 18.1171 55.9207 19.1613 58.6282C20.2055 61.3356 21.7603 63.8061 23.7371 65.8984C25.7139 67.9907 28.074 69.6638 30.6824 70.8224C33.2909 71.981 36.0967 72.6023 38.9397 72.6508C42.0669 72.9147 45.214 72.5312 48.1932 71.523C51.1724 70.5147 53.9226 68.9023 56.2799 66.7822C58.6371 64.662 60.553 62.0776 61.9133 59.1829C63.2736 56.2883 64.0503 53.1427 64.1972 49.934H64.6482Z" fill="white"/>
</svg>
