<svg width="78" height="66" viewBox="0 0 78 66" fill="none" xmlns="http://www.w3.org/2000/svg">
<path d="M77.7674 37.8818C75.1262 56.2166 56.4557 65.3841 38.1494 65.3841C17.9305 65.3841 0.261719 54.0165 0.261719 33.1147C0.261719 10.7462 20.1163 0.570312 38.6958 0.570312C57.2753 0.570312 74.0333 9.73775 75.1262 28.0726H59.9165C59.9165 17.7134 50.8089 10.3795 37.694 10.3795C34.6302 10.0998 31.5429 10.4999 28.6494 11.5514C25.7559 12.603 23.1267 14.2804 20.9471 16.4656C18.7675 18.6508 17.0905 21.2905 16.0343 24.1988C14.9781 27.1071 14.5683 30.2131 14.8339 33.298C14.53 36.3833 14.9149 39.498 15.9604 42.4143C17.0058 45.3306 18.6855 47.975 20.8765 50.1541C23.0676 52.3332 25.7147 53.9918 28.6244 55.009C31.534 56.0262 34.6327 56.3762 37.694 56.0332C43.2385 56.6361 48.8086 55.1531 53.3317 51.8696C57.8549 48.5861 61.0114 43.7343 62.1934 38.2484L77.7674 37.8818Z" fill="white"/>
</svg>
