<svg width="78" height="66" viewBox="0 0 78 66" fill="none" xmlns="http://www.w3.org/2000/svg">
<path d="M17.3026 33.793V36.4925C17.3706 39.3154 18.0212 42.0924 19.2123 44.6444C20.4035 47.1964 22.1088 49.4665 24.2181 51.3084C26.3274 53.1504 28.7938 54.5233 31.4583 55.3383C34.1228 56.1533 36.9262 56.3924 39.6874 56.0402C44.5099 56.4717 49.3442 55.3562 53.5086 52.8511C57.6729 50.346 60.9571 46.5776 62.8979 42.0775H77.4847C73.6316 58.4604 56.5678 66.0003 39.4122 66.0003C18.4035 66.0003 0.972656 54.5509 0.972656 33.2345C0.972656 11.9181 19.3208 0.189453 38.7699 0.189453C60.0539 0.189453 74.2738 12.9421 73.7234 33.793H17.3026ZM57.6687 27.3701C57.7451 24.8921 57.2876 22.427 56.3279 20.1469C55.3683 17.8669 53.9297 15.8269 52.1126 14.1693C50.2955 12.5118 48.1438 11.2766 45.8075 10.5501C43.4713 9.82367 41.0069 9.62345 38.5865 9.96337C33.5749 9.49747 28.586 11.069 24.7157 14.3328C20.8453 17.5966 18.41 22.2857 17.9447 27.3701H57.6687Z" fill="white"/>
</svg>
