<svg width="82" height="92" viewBox="0 0 82 92" fill="none" xmlns="http://www.w3.org/2000/svg">
<path d="M14.8711 44.6456H11.4767L16.6139 55.7824V91.3096H0.101562V1.57108H16.6139V8.75016L11.6603 16.2053H15.4214C19.3657 11.2187 24.4094 7.21853 30.1559 4.51943C35.9024 1.82034 42.1948 0.496042 48.538 0.6507C52.8534 0.337919 57.186 0.94012 61.2541 2.41822C65.3222 3.89633 69.0346 6.21718 72.1498 9.22976C75.2649 12.2423 77.7129 15.8792 79.3346 19.9037C80.9564 23.9282 81.7156 28.2502 81.5627 32.5884C81.6878 36.9756 80.8971 41.3406 79.2414 45.403C77.5857 49.4654 75.1016 53.1356 71.9485 56.1778C68.7954 59.22 65.043 61.567 60.9324 63.0681C56.8217 64.5692 52.4437 65.1912 48.0793 64.8943C41.2097 64.9765 34.4551 63.1222 28.5842 59.5425C22.7133 55.9627 17.9621 50.8013 14.8711 44.6456ZM16.7057 30.9317C16.785 34.1742 17.5385 37.3644 18.9181 40.2977C20.2976 43.231 22.2728 45.8427 24.7169 47.9656C27.161 50.0886 30.0202 51.6759 33.1112 52.6257C36.2023 53.5756 39.4571 53.867 42.6669 53.4815C45.6427 53.8714 48.6678 53.5811 51.516 52.6325C54.3642 51.6839 56.9618 50.1016 59.1145 48.0037C61.2672 45.9058 62.9192 43.3469 63.9471 40.518C64.975 37.6892 65.3522 34.6637 65.0504 31.668C65.0504 18.1382 57.7114 10.2228 42.2999 10.2228C26.8883 10.2228 16.7057 18.5064 16.7057 30.9317Z" fill="white"/>
</svg>
