<svg width="55" height="93" viewBox="0 0 55 93" fill="none" xmlns="http://www.w3.org/2000/svg">
<path d="M0.742188 79.5216H19.0867V41.5133H0.742188V29.4912H24.4984C26.0696 29.2577 27.6733 29.398 29.1811 29.9009C30.689 30.4039 32.0592 31.2557 33.1822 32.388C34.3053 33.5203 35.15 34.9018 35.6489 36.422C36.1478 37.9423 36.287 39.5591 36.0554 41.1433V79.5216H54.4V92.0059H0.742188V79.5216ZM26.9749 0.360655C28.8825 0.509021 30.7043 1.22166 32.2121 2.40914C33.7199 3.59662 34.8468 5.20623 35.4515 7.03641C36.0561 8.86658 36.1117 10.836 35.6114 12.6979C35.111 14.5598 34.0769 16.2314 32.6386 17.5035C31.2002 18.7756 29.4216 19.5916 27.5254 19.8492C25.6293 20.1068 23.6999 19.7946 21.9789 18.9517C20.2579 18.1088 18.8218 16.7727 17.8505 15.1107C16.8792 13.4487 16.4159 11.5347 16.5185 9.60841C16.5055 8.27693 16.7778 6.95844 17.3168 5.74286C17.8559 4.52727 18.649 3.44328 19.6418 2.56521C20.6346 1.68714 21.8038 1.03563 23.0695 0.655151C24.3351 0.274673 25.6672 0.174174 26.9749 0.360655Z" fill="white"/>
</svg>
