<svg width="75" height="66" viewBox="0 0 75 66" fill="none" xmlns="http://www.w3.org/2000/svg">
<path d="M74.2706 46.3971C74.2706 59.0925 60.7539 66.0003 37.0083 66.0003C7.23493 66.0003 0.476562 52.2781 0.476562 44.2501H16.2765C16.9158 52.2781 27.1447 55.7319 37.8302 55.7319C54.3608 55.7319 60.1146 52.9315 60.1146 46.3971C60.1146 30.061 5.317 47.3306 5.317 19.886C5.317 7.56401 17.3725 0.189453 39.9309 0.189453C58.836 0.189453 75.0013 6.72393 75.0013 23.1533H60.1146C59.2013 14.2852 51.8037 10.6446 39.9309 10.6446C28.0581 10.6446 21.0256 13.0717 21.0256 20.5396C20.021 36.6889 74.2706 20.4461 74.2706 46.3971Z" fill="white"/>
</svg>
