<svg width="87" height="65" viewBox="0 0 87 65" fill="none" xmlns="http://www.w3.org/2000/svg">
<path d="M26.457 24.9585C38.2535 25.3859 49.6471 29.427 59.1417 36.5513C59.1417 34.5109 59.1417 30.0593 59.1417 28.2972C59.1417 17.1682 53.7551 12.6239 39.6039 12.6239H7.64961V0.567383H45.5383C66.3543 0.567383 75.6666 9.37784 75.6666 29.8738V50.8336H86.1659V63.3537H64.8935C61.3328 63.3537 59.7808 59.4586 59.7808 56.8618C60.0868 52.7629 61.1719 48.763 62.9762 45.0835L59.6895 43.3214C56.9645 49.7097 52.424 55.1261 46.6498 58.8768C40.8756 62.6274 34.1305 64.5415 27.2787 64.3739C13.8579 64.3739 0.710938 56.7691 0.710938 43.4142C0.710938 30.0594 13.1275 24.9585 26.457 24.9585ZM33.6695 54.7288C38.2081 54.7227 42.665 53.5022 46.5917 51.1904C50.5184 48.8785 53.7763 45.5568 56.0375 41.5594C48.9286 36.8908 40.8184 34.0279 32.3914 33.2125C27.7352 33.2125 17.3272 34.7892 17.3272 43.6924C17.3272 51.0191 25.3614 54.7288 33.6695 54.7288Z" fill="white"/>
</svg>
