<svg width="75" height="79" viewBox="0 0 75 79" fill="none" xmlns="http://www.w3.org/2000/svg">
<path d="M74.5937 38.8449C74.879 44.1275 74.0718 49.4122 72.2241 54.358C70.3765 59.3039 67.5293 63.801 63.8665 67.5594C60.2036 71.3177 55.8064 74.2537 50.9585 76.178C46.1106 78.1023 40.9197 78.9722 35.7207 78.7314H0.125V0.994522H40.5457C62.8499 0.901978 74.5937 17.6524 74.5937 38.8449ZM58.389 39.3077C58.389 23.2976 51.4702 11.5445 34.5372 11.5445H16.3297V67.0709H30.0764C33.8217 67.558 37.6268 67.1839 41.2109 65.9762C44.795 64.7685 48.0665 62.758 50.7841 60.0932C53.5016 57.4284 55.5958 54.1773 56.9121 50.5797C58.2283 46.9821 58.7331 43.1301 58.389 39.3077Z" fill="white"/>
</svg>
