<svg width="99" height="81" viewBox="0 0 99 81" fill="none" xmlns="http://www.w3.org/2000/svg">
<path d="M77.3142 36.1774C85.1833 36.1774 86.4643 42.9145 86.4643 47.9904V65.8022L98.3594 66.7251V79.3687H70.9092L79.5102 48.0827H75.8502C75.1715 57.1475 71.0563 65.6001 64.3596 71.6842C57.6629 77.7683 48.8995 81.0162 39.8904 80.7531C34.722 80.8947 29.5797 79.9676 24.7799 78.0291C19.9802 76.0906 15.6246 73.1816 11.9816 69.4812C8.33854 65.7808 5.48507 61.3674 3.59691 56.5128C1.70874 51.6582 0.825865 46.4651 1.00261 41.2533C1.00261 16.9812 18.8452 0 44.8314 0C61.5761 0 81.4318 9.22887 82.1638 29.0711H67.7981C66.7001 19.8421 57.0925 13.7511 44.4654 13.7511C39.6046 13.8719 34.871 15.3421 30.7848 18.0001C26.6986 20.6581 23.4181 24.4009 21.3039 28.8172C19.1897 33.2335 18.3236 38.1522 18.8009 43.0327C19.2782 47.9132 21.0804 52.5665 24.0093 56.481C26.9383 60.3956 30.8806 63.4198 35.4029 65.2214C39.9252 67.0229 44.8525 67.5319 49.643 66.6926C54.4335 65.8532 58.9018 63.6979 62.5568 60.4636C66.2117 57.2292 68.9118 53.0411 70.3602 48.3595H43.8249V36.4542L77.3142 36.1774Z" fill="white"/>
</svg>
