<svg width="61" height="60" viewBox="0 0 61 60" fill="none" xmlns="http://www.w3.org/2000/svg">
<path d="M17 42C18.1935 42 19.3381 41.5259 20.182 40.682C21.0259 39.8381 21.5 38.6935 21.5 37.5C21.5146 37.3504 21.5146 37.1996 21.5 37.05L29.87 28.68H30.56H31.25L36.08 33.51C36.08 33.51 36.08 33.66 36.08 33.75C36.08 34.9435 36.5541 36.0881 37.398 36.932C38.2419 37.7759 39.3865 38.25 40.58 38.25C41.7735 38.25 42.9181 37.7759 43.762 36.932C44.6059 36.0881 45.08 34.9435 45.08 33.75V33.51L56 22.5C56.89 22.5 57.76 22.2361 58.5001 21.7416C59.2401 21.2471 59.8169 20.5443 60.1575 19.7221C60.4981 18.8998 60.5872 17.995 60.4135 17.1221C60.2399 16.2492 59.8113 15.4474 59.182 14.818C58.5526 14.1887 57.7508 13.7601 56.8779 13.5865C56.005 13.4128 55.1002 13.5019 54.2779 13.8425C53.4557 14.1831 52.7529 14.7599 52.2584 15.4999C51.7639 16.24 51.5 17.11 51.5 18C51.4854 18.1496 51.4854 18.3004 51.5 18.45L40.67 29.28H40.19L35 24C35 22.8065 34.5259 21.6619 33.682 20.818C32.8381 19.9741 31.6935 19.5 30.5 19.5C29.3065 19.5 28.1619 19.9741 27.318 20.818C26.4741 21.6619 26 22.8065 26 24L17 33C15.8065 33 14.6619 33.4741 13.818 34.318C12.9741 35.1619 12.5 36.3065 12.5 37.5C12.5 38.6935 12.9741 39.8381 13.818 40.682C14.6619 41.5259 15.8065 42 17 42ZM57.5 54H6.5V3C6.5 2.20435 6.18393 1.44129 5.62132 0.87868C5.05871 0.31607 4.29565 0 3.5 0C2.70435 0 1.94129 0.31607 1.37868 0.87868C0.81607 1.44129 0.5 2.20435 0.5 3V57C0.5 57.7957 0.81607 58.5587 1.37868 59.1213C1.94129 59.6839 2.70435 60 3.5 60H57.5C58.2957 60 59.0587 59.6839 59.6213 59.1213C60.1839 58.5587 60.5 57.7957 60.5 57C60.5 56.2043 60.1839 55.4413 59.6213 54.8787C59.0587 54.3161 58.2957 54 57.5 54Z" fill="#C8FF29"/>
</svg>
