<svg width="48" height="67" viewBox="0 0 48 67" fill="none" xmlns="http://www.w3.org/2000/svg">
<path d="M39.2698 6.46002C36.5107 4.19078 33.2798 2.56611 29.8128 1.70455C26.3458 0.842999 22.7302 0.766289 19.2298 1.48002C14.569 2.42149 10.2928 4.72624 6.94387 8.10186C3.59496 11.4775 1.32424 15.7718 0.419825 20.44C-0.240635 23.9402 -0.120619 27.543 0.771312 30.9914C1.66324 34.4399 3.30511 37.649 5.57983 40.39C7.69088 42.7722 8.90093 45.8186 8.99983 49V58C8.99983 60.387 9.94804 62.6762 11.6359 64.364C13.3237 66.0518 15.6129 67 17.9998 67H29.9998C32.3868 67 34.676 66.0518 36.3638 64.364C38.0516 62.6762 38.9998 60.387 38.9998 58V49.57C39.1005 46.0575 40.391 42.6833 42.6598 40C46.6352 35.0824 48.5091 28.7945 47.8743 22.5029C47.2396 16.2113 44.1474 10.4245 39.2698 6.40002V6.46002ZM32.9998 58C32.9998 58.7957 32.6838 59.5587 32.1211 60.1213C31.5585 60.684 30.7955 61 29.9998 61H17.9998C17.2042 61 16.4411 60.684 15.8785 60.1213C15.3159 59.5587 14.9998 58.7957 14.9998 58V55H32.9998V58ZM38.0098 36.28C34.9933 39.8578 33.2334 44.3261 32.9998 49H26.9998V40C26.9998 39.2044 26.6838 38.4413 26.1211 37.8787C25.5585 37.3161 24.7955 37 23.9998 37C23.2042 37 22.4411 37.3161 21.8785 37.8787C21.3159 38.4413 20.9998 39.2044 20.9998 40V49H14.9998C14.9207 44.4043 13.2207 39.9843 10.1998 36.52C8.20675 34.132 6.8665 31.2683 6.30976 28.2081C5.75301 25.1478 5.99878 21.9956 7.02309 19.0586C8.0474 16.1217 9.81529 13.5003 12.1544 11.45C14.4935 9.39975 17.324 7.99062 20.3698 7.36002C22.9875 6.82105 25.6923 6.87175 28.2879 7.50843C30.8836 8.14511 33.3048 9.3518 35.376 11.0409C37.4471 12.73 39.1161 14.8591 40.2619 17.2736C41.4076 19.6881 42.0013 22.3275 41.9998 25C42.022 29.1096 40.6111 33.0984 38.0098 36.28Z" fill="#C8FF29"/>
</svg>
