<svg width="61" height="61" viewBox="0 0 61 61" fill="none" xmlns="http://www.w3.org/2000/svg">
<path d="M15.9751 37.506C15.5811 37.5059 15.191 37.5834 14.8269 37.7342C14.4629 37.8849 14.1322 38.1059 13.8536 38.3845C13.575 38.6631 13.354 38.9938 13.2033 39.3578C13.0525 39.7219 12.975 40.112 12.9751 40.506V45.8529C9.10826 41.4798 6.97422 35.8435 6.97511 30.006C6.97456 29.1238 7.02739 28.2423 7.1333 27.3664C7.18187 26.9747 7.15267 26.5773 7.04737 26.1969C6.94207 25.8165 6.76275 25.4607 6.51967 25.1497C6.2766 24.8388 5.97455 24.5789 5.63084 24.3849C5.28713 24.1909 4.90851 24.0666 4.51669 24.0192C4.12487 23.9718 3.72754 24.0022 3.34748 24.1086C2.96742 24.215 2.61209 24.3954 2.30187 24.6394C1.99165 24.8834 1.73262 25.1862 1.53964 25.5305C1.34665 25.8747 1.22351 26.2537 1.17725 26.6457C1.04136 27.7606 0.973858 28.8828 0.975115 30.006C0.979191 37.1645 3.55198 44.0838 8.22572 49.506H3.97511C3.17947 49.506 2.4164 49.8221 1.85379 50.3847C1.29118 50.9473 0.975115 51.7104 0.975115 52.506C0.975115 53.3017 1.29118 54.0647 1.85379 54.6273C2.4164 55.1899 3.17947 55.506 3.97511 55.506H15.9751C16.4443 55.5001 16.9053 55.3822 17.3197 55.1621C17.7341 54.942 18.0899 54.626 18.3575 54.2406C18.3925 54.1944 18.4372 54.1602 18.4697 54.1116C18.4897 54.0817 18.4903 54.0464 18.5089 54.016C18.6519 53.7745 18.759 53.5134 18.8269 53.2411C18.8713 53.0881 18.9029 52.9317 18.9212 52.7734C18.9298 52.6808 18.9752 52.601 18.9752 52.5061V40.5061C18.9753 40.1121 18.8978 39.7219 18.7471 39.3579C18.5963 38.9938 18.3754 38.6631 18.0968 38.3845C17.8181 38.1059 17.4874 37.8849 17.1233 37.7341C16.7593 37.5834 16.3691 37.5059 15.9751 37.506ZM20.4751 12.006H15.1277C19.5011 8.13934 25.1375 6.00535 30.9751 6.00602C31.8569 6.0039 32.738 6.05675 33.6133 6.16424C34.0046 6.21175 34.4014 6.18174 34.781 6.0759C35.1607 5.97006 35.5158 5.79048 35.8261 5.54741C36.1363 5.30433 36.3957 5.00253 36.5893 4.65922C36.783 4.31592 36.9071 3.93783 36.9546 3.54656C37.0021 3.15529 36.9721 2.75849 36.8663 2.37882C36.7604 1.99914 36.5808 1.64403 36.3378 1.33377C36.0947 1.0235 35.7929 0.764142 35.4496 0.570511C35.1063 0.37688 34.7282 0.252764 34.3369 0.20525C33.2214 0.0706726 32.0987 0.00414007 30.9751 0.0060202C23.8167 0.00991155 16.8974 2.58251 11.4751 7.25609V3.00602C11.4751 2.21037 11.159 1.44731 10.5964 0.8847C10.0338 0.322091 9.27077 0.0060202 8.47512 0.0060202C7.67947 0.0060202 6.9164 0.322091 6.35379 0.8847C5.79118 1.44731 5.47511 2.21037 5.47511 3.00602V15.006C5.49398 15.2043 5.53351 15.4001 5.59304 15.5901L5.59376 15.5938C5.66661 15.963 5.81045 16.3145 6.01727 16.6288L6.05153 16.6795C6.24976 16.9678 6.49822 17.2181 6.78503 17.4185C6.81782 17.4425 6.83411 17.4793 6.86816 17.5022C6.91103 17.5306 6.95955 17.5396 7.00331 17.5656C7.17345 17.6679 7.35373 17.7524 7.54128 17.8176C7.79473 17.9057 8.05898 17.9591 8.32679 17.9761C8.37878 17.9789 8.42256 18.0061 8.47512 18.0061H20.4751C21.2708 18.0061 22.0338 17.69 22.5964 17.1274C23.159 16.5648 23.4751 15.8018 23.4751 15.0061C23.4751 14.2105 23.159 13.4474 22.5964 12.8848C22.0338 12.3222 21.2708 12.006 20.4751 12.006ZM56.3565 44.4183C56.2837 44.049 56.1398 43.6974 55.9327 43.383L55.8989 43.3326C55.7005 43.0442 55.4519 42.7937 55.1648 42.5933C55.132 42.5695 55.1159 42.5325 55.082 42.5098C55.0496 42.4884 55.0112 42.4876 54.9782 42.4675C54.5977 42.2559 54.1807 42.1181 53.749 42.0612C53.6542 42.0522 53.5723 42.0059 53.4751 42.0059H41.4751C40.6795 42.0059 39.9164 42.3219 39.3538 42.8845C38.7912 43.4472 38.4751 44.2102 38.4751 45.0059C38.4751 45.8015 38.7912 46.5646 39.3538 47.1272C39.9164 47.6898 40.6795 48.0059 41.4751 48.0059H46.8223C42.449 51.8726 36.8127 54.0066 30.9751 54.0059C30.0932 54.007 29.2121 53.9532 28.3369 53.8447C27.5467 53.7488 26.7507 53.9707 26.1241 54.4616C25.4975 54.9525 25.0916 55.6722 24.9956 56.4624C24.8996 57.2526 25.1215 58.0486 25.6124 58.6752C26.1033 59.3018 26.8231 59.7078 27.6133 59.8037C28.7288 59.9383 29.8515 60.0058 30.9751 60.0059C38.1335 60.002 45.0529 57.4294 50.4751 52.7558V57.006C50.4751 57.8017 50.7912 58.5647 51.3538 59.1273C51.9164 59.6899 52.6795 60.006 53.4751 60.006C54.2708 60.006 55.0338 59.6899 55.5964 59.1273C56.159 58.5647 56.4751 57.8017 56.4751 57.006V45.006C56.4562 44.8077 56.4167 44.612 56.3572 44.4219L56.3565 44.4183ZM57.9751 10.506C58.7708 10.506 59.5338 10.1899 60.0964 9.62734C60.659 9.06473 60.9751 8.30167 60.9751 7.50602C60.9751 6.71037 60.659 5.94731 60.0964 5.3847C59.5338 4.82209 58.7708 4.50602 57.9751 4.50602H45.9751C45.7798 4.52485 45.587 4.56375 45.3996 4.62212L45.3796 4.62614C45.0153 4.69902 44.6683 4.84112 44.3575 5.04473L44.2988 5.08445C44.0118 5.28238 43.7626 5.53006 43.5629 5.81579C43.5393 5.84819 43.5029 5.86412 43.4805 5.89763C43.4591 5.92985 43.4583 5.96795 43.4382 6.00071C43.2241 6.38349 43.0852 6.80371 43.0291 7.23869C43.0205 7.33136 42.9751 7.41119 42.9751 7.50602V19.506C42.9751 20.3017 43.2912 21.0647 43.8538 21.6273C44.4164 22.1899 45.1795 22.506 45.9751 22.506C46.7708 22.506 47.5338 22.1899 48.0964 21.6273C48.659 21.0647 48.9751 20.3017 48.9751 19.506V14.1574C52.8417 18.5313 54.9756 24.168 54.9751 30.0059C54.9757 30.8881 54.9228 31.7696 54.8169 32.6455C54.7218 33.4352 54.9439 34.2303 55.4344 34.8565C55.9249 35.4826 56.6437 35.8886 57.4331 35.9854C57.5547 35.9995 57.677 36.0063 57.7993 36.0059C58.5318 36.0049 59.2387 35.7359 59.7865 35.2497C60.3343 34.7634 60.6852 34.0934 60.773 33.3662C60.9089 32.2513 60.9764 31.1292 60.9751 30.006C60.971 22.8475 58.3981 15.9281 53.7241 10.506H57.9751Z" fill="#C8FF29"/>
</svg>
