<svg width="61" height="60" viewBox="0 0 61 60" fill="none" xmlns="http://www.w3.org/2000/svg">
<path d="M47.9995 24C50.3729 24 52.693 23.2962 54.6664 21.9776C56.6398 20.6591 58.1778 18.7849 59.0861 16.5922C59.9943 14.3995 60.232 11.9867 59.769 9.65892C59.3059 7.33115 58.163 5.19295 56.4848 3.51472C54.8066 1.83649 52.6684 0.693605 50.3406 0.230582C48.0128 -0.232441 45.6 0.00519937 43.4073 0.913451C41.2146 1.8217 39.3405 3.35977 38.0219 5.33316C36.7033 7.30655 35.9995 9.62663 35.9995 12C35.9995 15.1826 37.2638 18.2349 39.5143 20.4853C41.7647 22.7357 44.8169 24 47.9995 24ZM47.9995 6C49.1862 6 50.3463 6.3519 51.333 7.01119C52.3196 7.67048 53.0887 8.60755 53.5428 9.7039C53.9969 10.8003 54.1158 12.0067 53.8842 13.1705C53.6527 14.3344 53.0813 15.4035 52.2422 16.2426C51.4031 17.0818 50.334 17.6532 49.1701 17.8847C48.0062 18.1162 46.7998 17.9974 45.7034 17.5433C44.6071 17.0892 43.67 16.3201 43.0107 15.3334C42.3514 14.3467 41.9995 13.1867 41.9995 12C41.9995 10.4087 42.6317 8.88258 43.7569 7.75736C44.8821 6.63215 46.4082 6.00001 47.9995 6ZM44.5495 31.41C44.2805 30.9759 43.9051 30.6176 43.4588 30.3692C43.0126 30.1207 42.5103 29.9904 41.9995 29.9904C41.4888 29.9904 40.9865 30.1207 40.5403 30.3692C40.094 30.6176 39.7186 30.9759 39.4495 31.41L36.4495 36.3L26.5795 19.5C26.3139 19.0523 25.9364 18.6815 25.484 18.4239C25.0317 18.1663 24.5201 18.0309 23.9995 18.0309C23.479 18.0309 22.9674 18.1663 22.5151 18.4239C22.0627 18.6815 21.6852 19.0523 21.4195 19.5L0.419534 55.5C0.156982 55.9547 0.0183794 56.4704 0.0175816 56.9955C0.0167838 57.5206 0.153818 58.0367 0.414987 58.4922C0.676156 58.9477 1.05231 59.3267 1.50586 59.5913C1.95941 59.8559 2.47446 59.9968 2.99953 60H56.9995C57.5356 60.0011 58.0621 59.8585 58.5243 59.5872C58.9866 59.3158 59.3677 58.9255 59.628 58.4569C59.8883 57.9884 60.0184 57.4586 60.0045 56.9228C59.9907 56.3869 59.8336 55.8646 59.5495 55.41L44.5495 31.41ZM25.3495 54H8.21953L23.9995 27L32.8195 42L29.0695 48L25.3495 54ZM32.3995 54L36.8695 46.89L38.9995 43.71L41.9995 38.67L51.5995 54H32.3995Z" fill="#C8FF29"/>
</svg>
