<svg width="58" height="60" viewBox="0 0 58 60" fill="none" xmlns="http://www.w3.org/2000/svg">
<path d="M42.5 9.00003C39.8587 8.99793 37.2663 9.71341 35 11.07C33.3568 7.29839 30.4712 4.20345 26.8236 2.30059C23.1761 0.397734 18.9868 -0.198213 14.9533 0.611991C10.9198 1.4222 7.28557 3.58965 4.65577 6.75344C2.02597 9.91723 0.559301 13.8864 0.5 18V30C0.504308 34.2507 2.01274 38.3626 4.75816 41.6077C7.50357 44.8528 11.3088 47.0216 15.5 47.73V57C15.5 57.7957 15.8161 58.5587 16.3787 59.1214C16.9413 59.684 17.7044 60 18.5 60C19.2956 60 20.0587 59.684 20.6213 59.1214C21.1839 58.5587 21.5 57.7957 21.5 57V47.73C24.5562 47.1997 27.4266 45.8987 29.84 43.95C30.9111 45.669 32.3191 47.1533 33.9794 48.3134C35.6396 49.4735 37.5175 50.2854 39.5 50.7V57C39.5 57.7957 39.8161 58.5587 40.3787 59.1214C40.9413 59.684 41.7043 60 42.5 60C43.2957 60 44.0587 59.684 44.6213 59.1214C45.1839 58.5587 45.5 57.7957 45.5 57V50.7C48.8881 50.0084 51.9332 48.1675 54.1199 45.4887C56.3067 42.81 57.5007 39.458 57.5 36V24C57.5 20.0218 55.9196 16.2065 53.1066 13.3934C50.2936 10.5804 46.4782 9.00003 42.5 9.00003ZM27.5 24V36C27.5287 36.5729 27.5888 37.1437 27.68 37.71C26.0756 39.6209 23.9154 40.9841 21.5 41.61V33C21.5 32.2044 21.1839 31.4413 20.6213 30.8787C20.0587 30.3161 19.2956 30 18.5 30C17.7044 30 16.9413 30.3161 16.3787 30.8787C15.8161 31.4413 15.5 32.2044 15.5 33V41.58C12.9306 40.9166 10.6535 39.4202 9.02507 37.325C7.39661 35.2297 6.50862 32.6537 6.5 30V18C6.49217 15.6227 7.19064 13.2967 8.50681 11.3169C9.82297 9.33719 11.6975 7.793 13.8926 6.88025C16.0877 5.96749 18.5045 5.72731 20.8363 6.19017C23.1681 6.65302 25.3099 7.79807 26.99 9.48003C28.614 11.1259 29.7197 13.212 30.17 15.48C28.4358 17.9832 27.5045 20.9548 27.5 24ZM51.5 36C51.4948 37.8569 50.9154 39.6666 49.8412 41.1812C48.767 42.6958 47.2506 43.8411 45.5 44.46V33C45.5 32.2044 45.1839 31.4413 44.6213 30.8787C44.0587 30.3161 43.2957 30 42.5 30C41.7043 30 40.9413 30.3161 40.3787 30.8787C39.8161 31.4413 39.5 32.2044 39.5 33V44.46C37.7494 43.8411 36.233 42.6958 35.1588 41.1812C34.0846 39.6666 33.5052 37.8569 33.5 36V24C33.5 21.6131 34.4482 19.3239 36.136 17.6361C37.8239 15.9482 40.1131 15 42.5 15C44.8869 15 47.1761 15.9482 48.864 17.6361C50.5518 19.3239 51.5 21.6131 51.5 24V36Z" fill="#C8FF29"/>
</svg>
