<svg width="333" height="255" viewBox="0 0 333 255" fill="none" xmlns="http://www.w3.org/2000/svg">
<path opacity="0.34" d="M110.219 127.848C101.46 137.068 82.4212 133.882 83.5224 148.477C84.7807 165.156 85.6547 180.927 99.8907 203.578C114.389 226.646 143.814 226.424 166.39 231.127C181.314 234.236 238.85 246.222 258.782 217.352C269.489 201.844 264.512 181.549 263.49 177.75C258.505 159.22 246.641 157.785 225.238 126.669C212.835 108.639 213.985 105 205.818 99.6942C187.12 87.547 156.218 90.4599 147.558 104.286C141.876 113.357 116.466 121.273 110.219 127.848Z" fill="#B6B6C4"/>
<path d="M164.686 111.567C159.139 106.714 154.777 106.564 152.433 106.536C141.856 106.41 134.499 122.131 140.89 134.916C144.5 142.138 157.703 142.563 165.181 153.626C170.504 161.501 176.622 155.789 177.446 154.916C179.538 152.697 177.09 153.19 177.066 142.504C177.047 133.754 176.423 130.256 174.169 124.575C171.363 117.504 165.256 112.066 164.686 111.567Z" fill="#AFCEE1"/>
<path d="M178.375 146.115C177.774 146.1 177.162 146.11 176.535 146.149C168.074 146.666 159.144 147.408 151.952 153.545C145.011 159.467 143.561 167.108 142.155 174.512C140.796 181.674 138.411 194.238 146.698 197.009C153.398 199.249 163.24 193.805 167.648 191.367C169.602 190.287 183.604 182.336 190.353 168.536C190.787 167.649 192.214 164.64 193.874 161.127C197.711 153.008 193.605 146.508 184.478 146.273L178.375 146.115Z" fill="#EDB6AB"/>
<path d="M223.4 216.123L220.878 190.968L200.834 157.582C197.138 159.191 193.633 161.207 190.382 163.591C188.293 165.189 166.442 186.485 162.532 204.57C161.824 207.847 158.298 224.154 167.462 230.249L223.4 216.123Z" fill="#B9C0B2"/>
<path d="M245.892 207.098L174.504 92.1411" stroke="#888787" stroke-width="8" stroke-miterlimit="10"/>
<path d="M159.471 225.902C153.181 211.192 150.141 193.593 162.751 181.227C165.02 178.975 167.477 177.107 169.619 175.007C178.775 166.499 178.455 152.925 175.73 141.662C174.002 132.647 169.735 125.05 165.907 116.764C161.5 107.677 162.335 97.2165 168.852 89.3745L169.28 89.6331C166.992 95.0859 165.886 100.979 167.177 106.734C168.398 112.168 171.906 117.06 174.676 122.705C176.106 125.541 177.293 128.493 178.223 131.53C183.023 147.226 181.857 163.366 170.989 176.255C162.975 185.006 157.234 195.577 158.029 207.715C158.21 213.625 159.284 219.65 159.955 225.775L159.471 225.902Z" fill="#AFAFAF"/>
<path d="M244.242 221.269C236.25 220.745 215.066 219.386 210.844 213.974C203.77 204.908 212.367 193.122 204.242 176.798C196.161 160.563 179.808 164.278 177.445 137.033" stroke="#AFAFAF" stroke-width="3" stroke-miterlimit="10"/>
<path d="M130.228 107.777C130.058 110.959 129.703 124.403 139.536 136.092C145.932 143.694 153.732 142.194 159.301 148.798C163.55 153.836 166.673 166.527 161.688 185.347" stroke="#AFAFAF" stroke-width="3" stroke-miterlimit="10"/>
<path d="M217.853 170.972L217.594 171.091L218.687 173.464L218.946 173.345L217.853 170.972Z" fill="#D3D1D0"/>
<path d="M217.066 169.266L216.807 169.385L217.477 170.84L217.736 170.721L217.066 169.266Z" fill="#D3D1D0"/>
<path d="M216.359 167.731L216.1 167.85L216.691 169.134L216.95 169.014L216.359 167.731Z" fill="#D3D1D0"/>
<path d="M216.692 170.386L216.174 170.625L217.256 172.975L217.774 172.736L216.692 170.386Z" fill="#D3D1D0"/>
<path d="M215.983 168.848L215.465 169.086L216.058 170.373L216.576 170.135L215.983 168.848Z" fill="#D3D1D0"/>
<path d="M215.174 167.096L214.656 167.334L215.348 168.835L215.866 168.597L215.174 167.096Z" fill="#D3D1D0"/>
<path d="M216.91 172.8L216.393 173.039L217.51 175.464L218.028 175.226L216.91 172.8Z" fill="#D3D1D0"/>
<path d="M216.159 171.169L215.641 171.407L216.276 172.787L216.794 172.549L216.159 171.169Z" fill="#D3D1D0"/>
<path d="M214.766 168.145L214.248 168.384L214.783 169.546L215.301 169.307L214.766 168.145Z" fill="#D3D1D0"/>
<path d="M215.418 169.559L214.9 169.797L215.526 171.156L216.044 170.917L215.418 169.559Z" fill="#D3D1D0"/>
<path d="M215.284 171.204L214.766 171.442L215.479 172.991L215.997 172.752L215.284 171.204Z" fill="#D3D1D0"/>
<path d="M214.965 170.513L214.447 170.751L214.65 171.191L215.168 170.952L214.965 170.513Z" fill="#D3D1D0"/>
<path d="M214.303 169.075L213.785 169.314L214.332 170.501L214.85 170.262L214.303 169.075Z" fill="#D3D1D0"/>
<path d="M214.91 172.328L214.393 172.566L215.536 175.048L216.054 174.809L214.91 172.328Z" fill="#D3D1D0"/>
<path d="M214.123 170.621L213.605 170.86L214.276 172.315L214.794 172.076L214.123 170.621Z" fill="#D3D1D0"/>
<path d="M213.416 169.087L212.898 169.325L213.49 170.609L214.008 170.37L213.416 169.087Z" fill="#D3D1D0"/>
<path d="M214.469 173.308L213.951 173.547L214.441 174.61L214.959 174.371L214.469 173.308Z" fill="#D3D1D0"/>
<path d="M213.039 170.204L212.521 170.442L213.836 173.296L214.354 173.057L213.039 170.204Z" fill="#D3D1D0"/>
<path d="M212.004 167.958L211.486 168.196L212.405 170.191L212.923 169.952L212.004 167.958Z" fill="#D3D1D0"/>
<path d="M213.969 174.155L213.451 174.394L214.3 176.237L214.818 175.999L213.969 174.155Z" fill="#D3D1D0"/>
<path d="M213.219 172.524L212.701 172.763L213.337 174.143L213.855 173.904L213.219 172.524Z" fill="#D3D1D0"/>
<path d="M212.092 170.082L211.574 170.321L212.253 171.795L212.771 171.556L212.092 170.082Z" fill="#D3D1D0"/>
<path d="M212.887 171.807L212.369 172.046L212.584 172.512L213.102 172.273L212.887 171.807Z" fill="#D3D1D0"/>
<path d="M212.676 173.287L212.158 173.526L212.768 174.851L213.286 174.612L212.676 173.287Z" fill="#D3D1D0"/>
<path d="M212.024 171.869L211.506 172.107L212.044 173.274L212.561 173.036L212.024 171.869Z" fill="#D3D1D0"/>
<path d="M210.813 169.244L210.295 169.483L211.388 171.856L211.906 171.617L210.813 169.244Z" fill="#D3D1D0"/>
<path d="M211.968 173.683L211.709 173.803L212.802 176.176L213.061 176.057L211.968 173.683Z" fill="#D3D1D0"/>
<path d="M211.181 171.977L210.922 172.096L211.592 173.551L211.851 173.432L211.181 171.977Z" fill="#D3D1D0"/>
<path d="M210.474 170.442L210.215 170.562L210.806 171.845L211.065 171.726L210.474 170.442Z" fill="#D3D1D0"/>
<path d="M217.593 171.092L217.334 171.211L218.427 173.584L218.686 173.465L217.593 171.092Z" fill="#D3D1D0"/>
<path d="M216.808 169.385L216.549 169.504L217.219 170.959L217.478 170.84L216.808 169.385Z" fill="#D3D1D0"/>
<path d="M216.101 167.85L215.842 167.969L216.433 169.253L216.692 169.134L216.101 167.85Z" fill="#D3D1D0"/>
<path d="M210.805 173.098L210.287 173.336L211.37 175.686L211.888 175.448L210.805 173.098Z" fill="#D3D1D0"/>
<path d="M210.098 171.559L209.58 171.798L210.173 173.085L210.691 172.846L210.098 171.559Z" fill="#D3D1D0"/>
<path d="M209.289 169.807L208.771 170.046L209.463 171.547L209.981 171.308L209.289 169.807Z" fill="#D3D1D0"/>
<path d="M211.026 175.511L210.508 175.75L211.625 178.176L212.143 177.937L211.026 175.511Z" fill="#D3D1D0"/>
<path d="M210.274 173.88L209.756 174.119L210.392 175.499L210.91 175.26L210.274 173.88Z" fill="#D3D1D0"/>
<path d="M208.881 170.857L208.363 171.096L208.899 172.258L209.417 172.019L208.881 170.857Z" fill="#D3D1D0"/>
<path d="M209.534 172.27L209.016 172.509L209.642 173.867L210.159 173.629L209.534 172.27Z" fill="#D3D1D0"/>
<path d="M209.399 173.915L208.881 174.154L209.594 175.702L210.112 175.464L209.399 173.915Z" fill="#D3D1D0"/>
<path d="M209.08 173.225L208.562 173.463L208.765 173.903L209.283 173.664L209.08 173.225Z" fill="#D3D1D0"/>
<path d="M208.418 171.787L207.9 172.025L208.447 173.212L208.965 172.973L208.418 171.787Z" fill="#D3D1D0"/>
<path d="M209.026 175.039L208.508 175.278L209.651 177.76L210.169 177.521L209.026 175.039Z" fill="#D3D1D0"/>
<path d="M208.239 173.333L207.721 173.572L208.391 175.027L208.909 174.788L208.239 173.333Z" fill="#D3D1D0"/>
<path d="M207.532 171.798L207.014 172.037L207.605 173.32L208.123 173.082L207.532 171.798Z" fill="#D3D1D0"/>
<path d="M208.584 176.02L208.066 176.258L208.556 177.322L209.074 177.083L208.584 176.02Z" fill="#D3D1D0"/>
<path d="M207.155 172.915L206.637 173.154L207.951 176.007L208.469 175.769L207.155 172.915Z" fill="#D3D1D0"/>
<path d="M206.12 170.669L205.602 170.908L206.52 172.902L207.038 172.664L206.12 170.669Z" fill="#D3D1D0"/>
<path d="M208.082 176.867L207.564 177.105L208.414 178.949L208.932 178.71L208.082 176.867Z" fill="#D3D1D0"/>
<path d="M207.334 175.236L206.816 175.475L207.452 176.855L207.97 176.616L207.334 175.236Z" fill="#D3D1D0"/>
<path d="M206.207 172.794L205.689 173.032L206.368 174.506L206.886 174.267L206.207 172.794Z" fill="#D3D1D0"/>
<path d="M207.002 174.519L206.484 174.757L206.699 175.223L207.217 174.985L207.002 174.519Z" fill="#D3D1D0"/>
<path d="M206.791 175.999L206.273 176.237L206.884 177.562L207.402 177.323L206.791 175.999Z" fill="#D3D1D0"/>
<path d="M206.137 174.58L205.619 174.819L206.157 175.986L206.675 175.747L206.137 174.58Z" fill="#D3D1D0"/>
<path d="M204.928 171.956L204.41 172.194L205.504 174.567L206.021 174.329L204.928 171.956Z" fill="#D3D1D0"/>
<path d="M206.081 176.395L205.822 176.514L206.915 178.887L207.174 178.768L206.081 176.395Z" fill="#D3D1D0"/>
<path d="M205.296 174.689L205.037 174.808L205.707 176.263L205.966 176.144L205.296 174.689Z" fill="#D3D1D0"/>
<path d="M204.589 173.154L204.33 173.273L204.921 174.557L205.18 174.437L204.589 173.154Z" fill="#D3D1D0"/>
<path d="M211.708 173.803L211.449 173.922L212.542 176.295L212.801 176.176L211.708 173.803Z" fill="#D3D1D0"/>
<path d="M210.923 172.097L210.664 172.216L211.334 173.671L211.593 173.552L210.923 172.097Z" fill="#D3D1D0"/>
<path d="M210.216 170.562L209.957 170.681L210.548 171.965L210.807 171.846L210.216 170.562Z" fill="#D3D1D0"/>
<path d="M205.823 176.514L205.564 176.633L206.658 179.006L206.917 178.887L205.823 176.514Z" fill="#D3D1D0"/>
<path d="M205.036 174.808L204.777 174.927L205.448 176.382L205.707 176.263L205.036 174.808Z" fill="#D3D1D0"/>
<path d="M204.329 173.273L204.07 173.392L204.662 174.676L204.921 174.556L204.329 173.273Z" fill="#D3D1D0"/>
<path d="M182.22 109.522L181.961 109.641L183.054 112.014L183.313 111.895L182.22 109.522Z" fill="#D3D1D0"/>
<path d="M181.433 107.815L181.174 107.935L181.844 109.39L182.103 109.27L181.433 107.815Z" fill="#D3D1D0"/>
<path d="M180.726 106.28L180.467 106.399L181.058 107.683L181.317 107.564L180.726 106.28Z" fill="#D3D1D0"/>
<path d="M181.057 108.936L180.539 109.174L181.622 111.524L182.14 111.286L181.057 108.936Z" fill="#D3D1D0"/>
<path d="M180.35 107.397L179.832 107.636L180.425 108.923L180.943 108.684L180.35 107.397Z" fill="#D3D1D0"/>
<path d="M179.541 105.645L179.023 105.884L179.715 107.385L180.233 107.146L179.541 105.645Z" fill="#D3D1D0"/>
<path d="M181.278 111.349L180.76 111.588L181.877 114.014L182.395 113.775L181.278 111.349Z" fill="#D3D1D0"/>
<path d="M180.528 109.718L180.01 109.957L180.646 111.337L181.163 111.098L180.528 109.718Z" fill="#D3D1D0"/>
<path d="M179.133 106.695L178.615 106.934L179.151 108.096L179.668 107.857L179.133 106.695Z" fill="#D3D1D0"/>
<path d="M179.786 108.108L179.268 108.347L179.894 109.705L180.411 109.467L179.786 108.108Z" fill="#D3D1D0"/>
<path d="M179.651 109.753L179.133 109.992L179.846 111.54L180.364 111.302L179.651 109.753Z" fill="#D3D1D0"/>
<path d="M179.332 109.063L178.814 109.301L179.017 109.741L179.535 109.502L179.332 109.063Z" fill="#D3D1D0"/>
<path d="M178.67 107.625L178.152 107.863L178.699 109.05L179.217 108.811L178.67 107.625Z" fill="#D3D1D0"/>
<path d="M179.278 110.877L178.76 111.116L179.903 113.597L180.421 113.359L179.278 110.877Z" fill="#D3D1D0"/>
<path d="M178.491 109.171L177.973 109.409L178.643 110.864L179.161 110.626L178.491 109.171Z" fill="#D3D1D0"/>
<path d="M177.784 107.636L177.266 107.875L177.857 109.158L178.375 108.92L177.784 107.636Z" fill="#D3D1D0"/>
<path d="M178.836 111.858L178.318 112.096L178.808 113.159L179.326 112.921L178.836 111.858Z" fill="#D3D1D0"/>
<path d="M177.407 108.753L176.889 108.992L178.203 111.845L178.721 111.607L177.407 108.753Z" fill="#D3D1D0"/>
<path d="M176.371 106.507L175.854 106.746L176.772 108.74L177.29 108.502L176.371 106.507Z" fill="#D3D1D0"/>
<path d="M178.334 112.705L177.816 112.943L178.666 114.787L179.183 114.548L178.334 112.705Z" fill="#D3D1D0"/>
<path d="M177.584 111.073L177.066 111.312L177.702 112.692L178.22 112.453L177.584 111.073Z" fill="#D3D1D0"/>
<path d="M176.459 108.632L175.941 108.87L176.62 110.344L177.138 110.105L176.459 108.632Z" fill="#D3D1D0"/>
<path d="M177.254 110.357L176.736 110.595L176.951 111.061L177.469 110.823L177.254 110.357Z" fill="#D3D1D0"/>
<path d="M177.043 111.837L176.525 112.075L177.136 113.4L177.654 113.161L177.043 111.837Z" fill="#D3D1D0"/>
<path d="M176.389 110.418L175.871 110.657L176.409 111.824L176.927 111.585L176.389 110.418Z" fill="#D3D1D0"/>
<path d="M175.18 107.794L174.662 108.032L175.755 110.405L176.273 110.167L175.18 107.794Z" fill="#D3D1D0"/>
<path d="M176.333 112.233L176.074 112.352L177.167 114.725L177.426 114.606L176.333 112.233Z" fill="#D3D1D0"/>
<path d="M175.548 110.527L175.289 110.646L175.96 112.101L176.218 111.982L175.548 110.527Z" fill="#D3D1D0"/>
<path d="M174.841 108.992L174.582 109.111L175.173 110.395L175.432 110.275L174.841 108.992Z" fill="#D3D1D0"/>
<path d="M181.96 109.641L181.701 109.76L182.794 112.133L183.053 112.014L181.96 109.641Z" fill="#D3D1D0"/>
<path d="M181.175 107.934L180.916 108.054L181.586 109.509L181.845 109.389L181.175 107.934Z" fill="#D3D1D0"/>
<path d="M180.468 106.4L180.209 106.519L180.8 107.803L181.059 107.683L180.468 106.4Z" fill="#D3D1D0"/>
<path d="M175.172 111.647L174.654 111.886L175.737 114.236L176.255 113.997L175.172 111.647Z" fill="#D3D1D0"/>
<path d="M174.465 110.109L173.947 110.347L174.54 111.634L175.058 111.396L174.465 110.109Z" fill="#D3D1D0"/>
<path d="M173.657 108.357L173.139 108.595L173.83 110.096L174.348 109.858L173.657 108.357Z" fill="#D3D1D0"/>
<path d="M175.393 114.061L174.875 114.299L175.992 116.725L176.51 116.486L175.393 114.061Z" fill="#D3D1D0"/>
<path d="M174.643 112.429L174.125 112.668L174.761 114.048L175.279 113.809L174.643 112.429Z" fill="#D3D1D0"/>
<path d="M173.248 109.406L172.73 109.645L173.266 110.807L173.784 110.568L173.248 109.406Z" fill="#D3D1D0"/>
<path d="M173.901 110.82L173.383 111.058L174.009 112.417L174.527 112.178L173.901 110.82Z" fill="#D3D1D0"/>
<path d="M173.766 112.465L173.248 112.703L173.962 114.252L174.479 114.013L173.766 112.465Z" fill="#D3D1D0"/>
<path d="M173.448 111.774L172.93 112.012L173.132 112.452L173.65 112.213L173.448 111.774Z" fill="#D3D1D0"/>
<path d="M172.786 110.336L172.268 110.575L172.814 111.761L173.332 111.523L172.786 110.336Z" fill="#D3D1D0"/>
<path d="M173.393 113.589L172.875 113.827L174.018 116.309L174.536 116.07L173.393 113.589Z" fill="#D3D1D0"/>
<path d="M172.606 111.882L172.088 112.121L172.758 113.576L173.276 113.337L172.606 111.882Z" fill="#D3D1D0"/>
<path d="M171.899 110.347L171.381 110.586L171.972 111.87L172.49 111.631L171.899 110.347Z" fill="#D3D1D0"/>
<path d="M172.952 114.569L172.434 114.808L172.923 115.871L173.441 115.632L172.952 114.569Z" fill="#D3D1D0"/>
<path d="M171.522 111.465L171.004 111.703L172.318 114.557L172.836 114.318L171.522 111.465Z" fill="#D3D1D0"/>
<path d="M170.487 109.218L169.969 109.457L170.888 111.452L171.406 111.213L170.487 109.218Z" fill="#D3D1D0"/>
<path d="M172.451 115.416L171.934 115.655L172.783 117.498L173.301 117.259L172.451 115.416Z" fill="#D3D1D0"/>
<path d="M171.7 113.785L171.182 114.023L171.817 115.403L172.335 115.165L171.7 113.785Z" fill="#D3D1D0"/>
<path d="M170.575 111.343L170.057 111.582L170.736 113.055L171.253 112.817L170.575 111.343Z" fill="#D3D1D0"/>
<path d="M171.369 113.068L170.852 113.307L171.066 113.773L171.584 113.534L171.369 113.068Z" fill="#D3D1D0"/>
<path d="M171.159 114.548L170.641 114.787L171.251 116.111L171.769 115.873L171.159 114.548Z" fill="#D3D1D0"/>
<path d="M170.506 113.13L169.988 113.368L170.526 114.535L171.044 114.297L170.506 113.13Z" fill="#D3D1D0"/>
<path d="M169.295 110.505L168.777 110.744L169.871 113.117L170.389 112.878L169.295 110.505Z" fill="#D3D1D0"/>
<path d="M170.45 114.944L170.191 115.063L171.284 117.437L171.543 117.318L170.45 114.944Z" fill="#D3D1D0"/>
<path d="M169.663 113.238L169.404 113.357L170.075 114.812L170.334 114.693L169.663 113.238Z" fill="#D3D1D0"/>
<path d="M168.956 111.703L168.697 111.822L169.289 113.106L169.547 112.987L168.956 111.703Z" fill="#D3D1D0"/>
<path d="M176.075 112.352L175.816 112.472L176.91 114.845L177.169 114.725L176.075 112.352Z" fill="#D3D1D0"/>
<path d="M175.29 110.646L175.031 110.765L175.702 112.22L175.961 112.101L175.29 110.646Z" fill="#D3D1D0"/>
<path d="M174.583 109.111L174.324 109.23L174.916 110.514L175.174 110.394L174.583 109.111Z" fill="#D3D1D0"/>
<path d="M170.191 115.063L169.932 115.183L171.025 117.556L171.284 117.436L170.191 115.063Z" fill="#D3D1D0"/>
<path d="M169.403 113.357L169.145 113.477L169.815 114.932L170.074 114.812L169.403 113.357Z" fill="#D3D1D0"/>
<path d="M168.697 111.822L168.438 111.941L169.029 113.225L169.288 113.106L168.697 111.822Z" fill="#D3D1D0"/>
<path d="M161.752 188.773L182.106 170.152L209.083 179.006L188.369 197.389L161.752 188.773Z" fill="#F6EDDB"/>
<path d="M189.504 183.133L191.741 179.072L191.001 178.943C191.001 178.943 190.713 178.668 191.019 178.619C191.326 178.57 191.687 178.668 191.813 178.619C191.939 178.57 192.138 177.956 192.138 177.956C192.138 177.956 192.029 177.082 192.607 177.179C193.184 177.276 192.697 178.02 192.697 178.02L192.715 178.845C192.715 178.845 193.924 178.845 193.797 179.072C193.671 179.299 192.968 179.282 192.968 179.282L193.689 181.467L193.096 181.367C193.096 181.367 193.382 182.669 193.545 182.68C193.948 182.708 194.647 182.561 194.519 182.826C194.095 182.935 193.659 182.992 193.221 182.997L192.427 181.301L191.245 181.106C191.245 181.106 190.117 183.214 189.81 183.263C189.504 183.311 189.504 183.133 189.504 183.133Z" fill="#1D1E1C"/>
<path d="M197.561 174.364C197.777 173.931 197.033 170.35 196.678 170.23C196.322 170.111 195.989 168.637 196.878 169.194C196.975 169.281 197.05 169.389 197.096 169.511C197.142 169.632 197.159 169.763 197.144 169.892C197.077 170.31 197.944 170.131 198.188 170.469C198.432 170.808 199.898 173.019 199.898 173.019C200.358 173.539 200.71 174.145 200.935 174.801C201.16 175.457 201.253 176.152 201.209 176.844C201.164 179.394 201.808 179.314 201.72 179.553C201.631 179.792 200.565 180.091 200.565 180.091C200.565 180.091 200.698 184.773 200.209 184.932C200.086 184.984 199.951 185.002 199.818 184.985C199.685 184.967 199.56 184.915 199.454 184.832C199.454 184.832 199.249 184.71 199.854 184.454C200.459 184.198 199.898 180.171 199.898 180.171L198.88 180.134C198.88 180.134 199.232 184.717 198.699 184.984C198.569 185.066 198.419 185.109 198.266 185.109C198.112 185.109 197.962 185.066 197.833 184.984C197.833 184.984 197.677 184.773 198.144 184.554C198.61 184.334 198.232 180.151 198.232 180.151C197.834 180.046 197.458 179.871 197.122 179.633C197.122 179.633 198.632 177.063 198.144 174.991L195.589 176.386C195.589 176.386 194.457 176.525 195.589 175.808C196.722 175.091 197.381 174.723 197.561 174.364Z" fill="#1D1E1C"/>
<path d="M176.961 177.851C177.561 178.474 177.988 179.243 178.198 180.081C178.325 180.393 178.387 180.728 178.381 181.064C178.375 181.401 178.301 181.733 178.164 182.04L175.725 184.489" stroke="#1D1E1C" stroke-width="0.1" stroke-linecap="round" stroke-linejoin="round"/>
<path d="M171.139 179.867L174.179 177.607L176.962 177.85L175.588 179.863L171.139 179.867Z" stroke="#1D1E1C" stroke-width="0.1" stroke-linecap="round" stroke-linejoin="round"/>
<path d="M169.816 184.353C169.816 184.353 174.093 185.305 175.725 184.489C176.258 182.911 176.24 180.435 175.588 179.864C174.946 179.86 171.139 179.868 171.139 179.868C170.569 181.322 170.126 182.822 169.816 184.353Z" stroke="#1D1E1C" stroke-width="0.1" stroke-miterlimit="10"/>
<path d="M186.658 174.272L188.748 174.102C188.748 174.102 190.635 177.014 190.365 178.092C190.365 178.092 189.624 178.885 186.119 178.714L186.658 174.272Z" stroke="#1D1E1C" stroke-width="0.1" stroke-linecap="round" stroke-linejoin="round"/>
<path d="M188.748 174.102C188.456 173.931 185.783 172.602 185.783 172.602H183.738L186.659 174.272L188.748 174.102Z" stroke="#1D1E1C" stroke-width="0.1" stroke-linecap="round" stroke-linejoin="round"/>
<path d="M183.738 172.602L182.098 176.038L186.119 178.714C186.119 178.714 186.771 174.329 186.658 174.272C186.546 174.215 183.738 172.602 183.738 172.602Z" stroke="#1D1E1C" stroke-width="0.1" stroke-linecap="round" stroke-linejoin="round"/>
<path d="M174.834 172.059C175.405 170.911 175.543 169.778 174.818 169.627C174.092 169.476 173.72 170.715 173.716 171.122C173.723 171.401 173.774 171.676 173.868 171.938C173.416 173.238 173.241 174.617 173.354 175.988C173.58 178.09 174.139 178.101 174.865 179.165C175.075 179.474 176.071 179.142 176.102 179.365C176.286 180.671 176.392 184.646 176.392 184.646L176.462 184.986H177.677C177.677 184.986 177.926 184.874 177.677 184.7C177.403 184.582 177.106 184.528 176.808 184.541C176.808 184.541 176.925 181.348 177.056 180.322C177.094 180.032 177.167 179.748 177.272 179.475C177.344 179.365 177.426 179.261 177.517 179.165H179.231V184.074L179.278 184.414H180.333C180.338 184.365 180.33 184.316 180.311 184.272C180.291 184.227 180.261 184.188 180.222 184.159C180.028 184.067 179.825 183.993 179.618 183.937L179.758 183.066L179.89 178.652C179.282 178.71 178.669 178.689 178.067 178.59C177.942 178.494 177.828 178.386 177.725 178.267C176.773 176.989 175.405 174.773 175.405 174.773C175.405 174.773 180.675 176.868 180.776 176.787C180.877 176.707 180.776 176.344 180.776 176.344L175.62 173.947C175.62 173.947 181.259 176.122 181.279 175.901C181.3 175.679 181.481 175.719 179.93 175.024C178.214 174.23 176.558 173.311 174.975 172.276L174.834 172.059Z" fill="black"/>
<path d="M151.949 129.148L152.27 134.759" stroke="#1D1E1C" stroke-width="0.1" stroke-linejoin="round"/>
<path d="M152.307 132.431C153.261 132.394 154.217 132.426 155.166 132.527L155.131 134.804" stroke="#1D1E1C" stroke-width="0.1" stroke-linejoin="round"/>
<path d="M166.489 129.128L166.395 135.141" stroke="#1D1E1C" stroke-width="0.1" stroke-linejoin="round"/>
<path d="M166.312 132.81C165.402 132.705 164.484 132.69 163.572 132.767L163.535 135.096" stroke="#1D1E1C" stroke-width="0.1" stroke-linejoin="round"/>
<path d="M156.195 130.251L161.683 130.337" stroke="#1D1E1C" stroke-width="0.1" stroke-linejoin="round"/>
<path d="M158.936 130.398L158.863 135.023" stroke="#1D1E1C" stroke-width="0.1" stroke-linejoin="round"/>
<path d="M153.988 127.662C153.988 127.662 154.319 127.574 154.503 126.444C154.7 125.232 156.195 125.595 156.05 126.468C155.905 127.342 155.293 127.36 155.293 127.36C155.293 127.36 154.739 127.447 154.713 127.602C154.683 127.782 154.473 128.822 155.078 128.862C155.615 128.883 156.151 128.828 156.672 128.697L157.044 128.265C157.044 128.265 157.767 128.67 157.371 128.825C156.974 128.979 154.957 129.123 154.82 129.471C154.684 129.819 155.193 130.834 155.193 130.834C155.785 130.947 156.368 131.103 156.938 131.3C157.285 131.48 157.233 134.837 157.233 134.837L156.882 134.831C156.882 134.831 157.009 132.352 156.179 132.207C155.349 132.063 153.331 132.294 153.295 131.768C153.26 131.242 152.709 129.131 153.348 128.397L153.988 127.662Z" fill="#1D1E1C"/>
<path d="M159.592 126.084C159.592 126.084 161.36 128.732 161.445 128.85C161.749 129.079 162.067 129.287 162.399 129.473C162.399 129.473 163.681 129.434 163.762 129.815C163.844 130.196 164.473 131.053 163.594 131.272C162.714 131.492 161.453 131.881 161.453 131.881L161.403 135.063L162.045 135.073C162.045 135.073 162.029 132.357 162.352 132.275C162.674 132.192 165.212 132.349 165.387 132.322C165.563 132.296 165.824 130.56 165.824 130.56C165.824 130.56 166.263 128.628 165.858 128.388C165.453 128.148 164.289 127.867 164.322 127.634C164.355 127.401 164.664 125.713 163.631 125.784C162.598 125.855 162.168 127.221 162.574 127.432C162.979 127.642 163.644 128.032 163.644 128.032C163.644 128.032 164.402 128.132 164.396 128.511C164.39 128.891 163.6 128.995 163.453 129.08C163.015 129.118 162.575 129.111 162.139 129.06C162.139 129.06 161.975 128.386 161.858 128.355C161.742 128.324 159.592 126.084 159.592 126.084Z" fill="#1D1E1C"/>
<path d="M151.441 192.6C152.507 191.75 153.513 190.826 154.45 189.834C154.417 189.597 154.317 189.373 154.163 189.19C154.163 189.19 153.662 187.803 154.909 188.204C155.063 188.342 155.171 188.522 155.22 188.723C155.269 188.923 155.256 189.133 155.183 189.326C154.968 190.086 156.212 189.978 156.212 189.978C156.212 189.978 159.221 188.903 159.379 188.932C159.537 188.96 159.452 189.217 159.122 189.389C158.793 189.56 156.298 190.293 156.126 190.709C156.163 191.957 156.341 193.197 156.656 194.406C156.714 194.449 159.895 195.151 159.895 195.151C159.895 195.151 161.053 195.294 160.494 195.509C159.935 195.724 156.23 194.961 156.23 194.961C155.654 196.108 155.164 197.297 154.765 198.518C154.908 198.676 155.252 198.733 155.166 198.934C155.08 199.134 154.173 198.576 154.173 198.576C154.173 198.576 155.662 194.545 155.161 194.416C154.791 194.313 154.43 194.183 154.078 194.029L153.891 191.253C153.891 191.253 151.992 192.542 151.643 192.804C151.367 193.011 151.441 192.6 151.441 192.6Z" fill="black"/>
<path d="M163.121 182.467L165.996 176.646L163.636 176.186C163.636 176.186 163.437 176.085 163.831 176.015C164.225 175.946 165.927 176.066 166.089 175.997C166.251 175.927 166.506 175.046 166.506 175.046C166.506 175.046 166.367 173.794 167.109 173.933C167.851 174.072 167.225 175.139 167.225 175.139L167.248 176.322C167.248 176.322 169.934 175.348 169.771 175.673C169.092 176.183 168.354 176.611 167.573 176.948L168.5 180.078L167.738 179.935C167.738 179.935 168.106 181.801 168.315 181.817C168.833 181.857 169.601 181.531 169.587 181.845C169.586 181.873 169.557 182.329 169.473 182.339C169.391 182.348 169.307 182.006 169.254 182.008C168.791 182.049 168.331 182.118 167.876 182.215L166.878 179.84L165.359 179.561C165.359 179.561 163.661 182.724 163.267 182.794C163.07 182.829 162.41 182.801 162.41 182.71C162.41 182.476 163.121 182.467 163.121 182.467Z" fill="black"/>
<path d="M169.066 177.562C169.575 176.705 169.121 175.577 169.426 174.628C169.695 174.057 170.029 173.518 170.42 173.022" stroke="black" stroke-width="0.1" stroke-miterlimit="10"/>
<path d="M158.242 191.021C158.558 190.629 158.822 190.198 159.028 189.739C159.217 189.222 159.268 188.665 159.175 188.123C159.013 186.915 158.716 185.715 158.48 184.52C158.468 184.457 158.371 184.484 158.384 184.547C158.604 185.661 158.855 186.774 159.04 187.895C159.164 188.465 159.14 189.056 158.969 189.613C158.766 190.103 158.492 190.56 158.156 190.97C158.118 191.022 158.205 191.072 158.242 191.021Z" fill="black"/>
<path d="M158.378 184.478C158.562 184.329 158.711 184.14 158.815 183.927C158.918 183.713 158.974 183.479 158.977 183.242C158.987 183.08 158.958 182.919 158.891 182.772C158.817 182.669 158.706 182.599 158.582 182.577C158.457 182.555 158.329 182.583 158.224 182.654C158.105 182.75 158.008 182.871 157.94 183.008C157.873 183.145 157.837 183.296 157.835 183.449C157.785 183.808 157.77 184.262 158.133 184.468C158.145 184.475 158.158 184.477 158.171 184.473C158.177 184.472 158.183 184.469 158.189 184.465C158.194 184.461 158.198 184.456 158.202 184.45C158.205 184.444 158.207 184.438 158.208 184.432C158.209 184.425 158.208 184.419 158.207 184.412C158.205 184.406 158.202 184.4 158.198 184.395C158.194 184.389 158.189 184.385 158.184 184.382C158.066 184.289 157.977 184.163 157.93 184.021C157.883 183.878 157.879 183.725 157.918 183.58C157.916 183.289 158.019 183.007 158.209 182.787C158.378 182.64 158.704 182.61 158.814 182.843C158.867 182.978 158.888 183.123 158.876 183.267C158.869 183.487 158.815 183.703 158.717 183.9C158.619 184.097 158.479 184.27 158.307 184.407C158.257 184.448 158.328 184.518 158.378 184.478Z" fill="black"/>
<path d="M170.368 173.127C170.55 173.209 170.752 173.236 170.949 173.207C171.146 173.177 171.33 173.09 171.479 172.958C171.79 172.716 172.1 172.338 171.932 171.926C171.879 171.746 171.78 171.582 171.644 171.452C171.508 171.323 171.341 171.23 171.158 171.186C170.993 171.162 170.825 171.191 170.677 171.267C170.528 171.343 170.407 171.463 170.329 171.61C170.226 171.835 170.155 172.073 170.119 172.318C170.066 172.547 170.086 172.788 170.177 173.005C170.204 173.063 170.291 173.013 170.264 172.955C170.155 172.591 170.182 172.201 170.339 171.856C170.38 171.693 170.469 171.546 170.594 171.434C170.712 171.341 170.856 171.287 171.006 171.279C171.167 171.281 171.325 171.33 171.458 171.421C171.591 171.512 171.694 171.64 171.754 171.79C171.809 171.867 171.847 171.954 171.865 172.047C171.883 172.139 171.881 172.235 171.859 172.326C171.79 172.499 171.681 172.653 171.54 172.774C171.404 172.93 171.223 173.039 171.022 173.087C170.821 173.135 170.61 173.119 170.419 173.041C170.362 173.011 170.311 173.097 170.368 173.127Z" fill="black"/>
<path d="M158.225 184.489C158.226 184.507 158.227 184.524 158.226 184.542L158.224 184.568C158.224 184.571 158.224 184.583 158.224 184.57L158.222 184.583C158.219 184.599 158.215 184.616 158.21 184.632L158.201 184.657C158.2 184.659 158.196 184.671 158.2 184.659L158.194 184.672C158.19 184.68 158.188 184.689 158.188 184.698C158.188 184.706 158.19 184.715 158.194 184.723C158.198 184.73 158.205 184.737 158.212 184.741C158.22 184.745 158.228 184.748 158.237 184.748C158.274 184.751 158.312 184.746 158.347 184.732C158.381 184.718 158.412 184.696 158.437 184.667C158.447 184.653 158.453 184.638 158.457 184.621C158.46 184.604 158.461 184.587 158.457 184.571C158.454 184.554 158.447 184.538 158.438 184.524C158.428 184.51 158.416 184.498 158.401 184.489C158.396 184.486 158.389 184.484 158.383 184.483C158.376 184.482 158.37 184.482 158.363 184.484C158.357 184.486 158.351 184.489 158.346 184.493C158.341 184.497 158.336 184.502 158.333 184.507C158.329 184.513 158.327 184.519 158.326 184.526C158.326 184.532 158.326 184.539 158.328 184.545C158.329 184.551 158.332 184.557 158.336 184.563C158.34 184.568 158.345 184.572 158.351 184.576L158.357 184.579C158.365 184.583 158.349 184.571 158.354 184.577L158.359 184.581C158.35 184.574 158.354 184.573 158.357 184.579C158.358 184.581 158.361 184.589 158.358 184.581C158.354 184.572 158.357 184.58 158.358 184.582L158.359 184.589C158.361 184.594 158.359 184.574 158.359 184.585L158.358 184.601L158.359 184.592L158.359 184.597L158.357 184.604L158.354 184.611C158.355 184.607 158.359 184.6 158.355 184.608L158.348 184.621C158.354 184.61 158.353 184.614 158.349 184.618L158.344 184.623C158.336 184.631 158.353 184.617 158.344 184.623L158.336 184.628L158.327 184.633L158.323 184.635C158.319 184.636 158.321 184.636 158.327 184.633L158.309 184.639L158.29 184.643L158.28 184.645C158.288 184.644 158.289 184.643 158.283 184.644L158.28 184.645C158.266 184.646 158.252 184.647 158.237 184.647L158.28 184.723C158.316 184.65 158.331 184.569 158.324 184.489C158.324 184.476 158.319 184.463 158.31 184.454C158.3 184.444 158.288 184.439 158.274 184.439C158.261 184.439 158.249 184.444 158.239 184.454C158.23 184.463 158.225 184.476 158.225 184.489Z" fill="black"/>
<path d="M170.345 173.03C170.291 173.029 170.238 173.043 170.192 173.071C170.185 173.075 170.179 173.082 170.174 173.089C170.17 173.097 170.168 173.105 170.168 173.114C170.168 173.123 170.17 173.131 170.174 173.139C170.179 173.146 170.185 173.153 170.192 173.157C170.273 173.208 170.355 173.256 170.438 173.302C170.444 173.306 170.45 173.308 170.456 173.309C170.463 173.31 170.47 173.309 170.476 173.307C170.482 173.306 170.488 173.303 170.493 173.299C170.499 173.295 170.503 173.29 170.506 173.284C170.51 173.279 170.512 173.272 170.513 173.266C170.514 173.259 170.513 173.253 170.512 173.246C170.51 173.24 170.507 173.234 170.503 173.229C170.499 173.224 170.494 173.219 170.488 173.216C170.405 173.17 170.323 173.122 170.243 173.071V173.157L170.269 173.143C170.259 173.148 170.276 173.141 170.278 173.14L170.292 173.136L170.307 173.133C170.308 173.132 170.324 173.13 170.317 173.131C170.311 173.131 170.326 173.13 170.328 173.13C170.333 173.13 170.339 173.13 170.345 173.13C170.358 173.13 170.371 173.125 170.38 173.115C170.39 173.106 170.395 173.093 170.395 173.08C170.395 173.067 170.39 173.054 170.38 173.044C170.371 173.035 170.358 173.03 170.345 173.03Z" fill="black"/>
<path d="M199.398 198.915V196.988C199.438 196.759 199.531 196.542 199.671 196.356C199.81 196.17 199.992 196.02 200.201 195.917C200.914 195.579 201.438 196.251 201.7 196.613C201.962 196.976 201.379 198.487 201.379 198.487L200.255 199.29L204.912 201.003L204.109 201.485L200.844 200.682C200.844 200.682 201.418 202.673 200.897 203.519C200.376 204.366 197.975 204.755 197.846 205.232C197.78 206.498 197.78 207.767 197.846 209.033L197.044 208.746L196.454 205.072C196.326 205.124 196.218 205.213 196.141 205.327C196.065 205.442 196.025 205.577 196.026 205.714L196.347 209.033L195.432 208.719C195.432 208.719 194.612 204.93 194.955 204.376C195.711 203.721 196.559 203.181 197.471 202.77L197.582 201.907L198.006 201.271L198.274 199.504L199.398 198.915Z" fill="#1D1E1C"/>
<path d="M202.58 202.915H204.354L204.717 202.613L205.1 202.475L205.563 201.262C205.563 201.262 206.235 200.537 206.692 200.537C207.149 200.537 207.498 201.544 207.498 201.544L207.337 202.189L206.208 202.915L206.329 203.761L206.208 205.535H205.805L205.724 204.93L204.475 206.26L202.58 207.107L202.379 206.865L203.87 205.414L201.935 206.462L201.371 206.301C202.17 205.801 202.925 205.235 203.628 204.608C203.766 204.367 203.849 204.098 203.87 203.822L202.534 203.216L202.58 202.915Z" fill="#1D1E1C"/>
<path d="M193.512 204.097L207.499 209.566L211.086 207.107L197.301 201.867L193.512 204.097Z" stroke="#1D1E1C" stroke-width="0.05" stroke-linejoin="round"/>
<path d="M211.449 202.592L197.543 198.158L197.301 201.867L211.086 207.107L211.449 202.592Z" stroke="#1D1E1C" stroke-width="0.05" stroke-linejoin="round"/>
<path d="M206.895 209.391V212.548L207.5 212.871L207.983 212.266V209.31" stroke="#1D1E1C" stroke-width="0.05" stroke-miterlimit="10"/>
<path d="M210.006 207.847V211.03L210.481 211.218L210.884 210.412V207.295" stroke="#1D1E1C" stroke-width="0.05" stroke-miterlimit="10"/>
<path d="M194.357 204.386V206.845L194.871 207.107L195.244 206.845V204.688" stroke="#1D1E1C" stroke-width="0.05" stroke-miterlimit="10"/>
<path d="M166.405 167.41C165.154 167.515 163.477 167.234 163.369 166.605C163.274 166.054 164.416 165.463 164.546 165.396C165.348 165.008 166.268 164.942 167.118 165.21C167.717 165.387 168.865 165.891 168.822 166.419C168.774 167.003 167.288 167.336 166.405 167.41Z" stroke="#1D1E1C" stroke-width="0.1" stroke-linejoin="round"/>
<path d="M147.48 172.433L151.54 157.126L154.832 175.725" stroke="#1D1E1C" stroke-width="0.1" stroke-linejoin="round"/>
<path d="M160.758 164.313L165.861 149.884L170.414 168.702" stroke="#1D1E1C" stroke-width="0.1" stroke-linejoin="round"/>
<path d="M151.541 157.126L165.86 149.884" stroke="#1D1E1C" stroke-width="0.1" stroke-miterlimit="10"/>
<path d="M156.598 154.568L163.364 166.49" stroke="#1D1E1C" stroke-width="0.1" stroke-linejoin="round"/>
<path d="M160.279 152.853L165.409 160.208" stroke="#1D1E1C" stroke-width="0.1" stroke-linejoin="round"/>
<path d="M164.927 161.131L165.585 159.293C166.011 158.915 166.553 158.693 167.121 158.662C167.369 158.669 167.607 158.756 167.8 158.911C167.994 159.066 168.131 159.28 168.191 159.52L167.956 160.75L166.993 161.198L166.999 162.484L170.619 164.615L173.705 165.314L175.886 165.086V165.767L174.336 166.234L170.836 165.709L172.717 167.865H173.624L174.116 168.702H172.291C171.473 167.895 170.721 167.024 170.043 166.096C169.813 165.551 167.628 165.958 167.628 165.958C167.628 165.958 165.577 165.596 165.011 164.869C164.444 164.143 164.927 162.105 164.927 162.105L160.611 162.041L160.449 161.498L164.927 161.131Z" fill="#1D1E1C"/>
<path d="M205.744 174.93L208.324 170.247L207.471 170.098C207.471 170.098 207.138 169.78 207.492 169.724C207.845 169.668 208.261 169.78 208.407 169.724C208.552 169.668 208.781 168.959 208.781 168.959C208.781 168.959 208.656 167.952 209.322 168.064C209.988 168.176 209.426 169.034 209.426 169.034L209.447 169.986C209.447 169.986 210.841 169.986 210.695 170.247C210.549 170.508 209.738 170.489 209.738 170.489L210.57 173.008L209.887 172.893C209.887 172.893 210.216 174.395 210.404 174.407C210.869 174.439 211.674 174.27 211.527 174.575C211.038 174.701 210.536 174.767 210.031 174.772L209.115 172.817L207.752 172.592C207.752 172.592 206.451 175.023 206.098 175.079C205.744 175.135 205.744 174.93 205.744 174.93Z" fill="#1D1E1C"/>
<path d="M220.815 159.651C220.815 159.651 221.359 159.845 221.359 160.22C221.359 160.596 222.001 160.627 222.001 160.627L224.362 164.451C224.892 165.522 225.167 166.701 225.163 167.896C225.027 169.483 225.01 170.182 225.283 170.25C225.556 170.319 225.76 170.438 225.641 170.728C225.522 171.018 224.566 171.155 224.566 171.155L224.549 175.521C224.549 175.521 224.02 176.391 223.799 176.323C223.577 176.255 223.468 176.134 223.481 175.976C223.494 175.818 224.038 175.231 224.038 175.231L223.833 171.155L222.912 171.189C222.912 171.189 222.826 176.211 222.673 176.327C222.519 176.442 221.956 176.596 222.025 176.238C222.102 175.976 222.25 175.74 222.451 175.555L222.315 171.12C222.315 171.12 220.984 170.899 221.274 170.592C221.776 169.962 222.095 169.207 222.195 168.408C222.195 167.675 222.366 165.44 222.366 165.44L219.807 167.248C219.807 167.248 219.108 167.18 219.517 166.907C219.927 166.634 221.308 165.236 221.308 165.236C221.308 165.236 221.752 164.076 221.598 163.7C221.445 163.325 220.913 161.822 220.899 161.636C220.887 161.476 220.984 160.545 220.984 160.545C220.859 160.545 220.737 160.5 220.642 160.419C220.546 160.338 220.482 160.226 220.462 160.102C220.327 159.595 220.815 159.651 220.815 159.651Z" fill="black"/>
<path opacity="0.9" d="M146.221 164.986C153.636 164.986 159.647 157.114 159.647 147.404C159.647 137.694 153.636 129.823 146.221 129.823C138.806 129.823 132.795 137.694 132.795 147.404C132.795 157.114 138.806 164.986 146.221 164.986Z" fill="#C8FF29"/>
<path d="M138.488 148.933L146.221 153.556" stroke="#1D1E1C" stroke-width="0.1" stroke-miterlimit="10"/>
<path d="M156.118 148.933L146.221 158.707" stroke="#1D1E1C" stroke-width="0.1" stroke-miterlimit="10"/>
<path d="M146.221 180.433V143.084" stroke="#1D1E1C" stroke-width="0.1" stroke-miterlimit="10"/>
<path opacity="0.9" d="M136.211 111.731C143.626 111.731 149.637 103.86 149.637 94.1495C149.637 84.4394 143.626 76.5679 136.211 76.5679C128.796 76.5679 122.785 84.4394 122.785 94.1495C122.785 103.86 128.796 111.731 136.211 111.731Z" fill="#C8FF29"/>
<path d="M128.479 95.6782L136.211 100.301" stroke="#1D1E1C" stroke-width="0.1" stroke-miterlimit="10"/>
<path d="M146.108 95.6782L136.211 105.452" stroke="#1D1E1C" stroke-width="0.1" stroke-miterlimit="10"/>
<path d="M136.211 127.178V89.8296" stroke="#1D1E1C" stroke-width="0.1" stroke-miterlimit="10"/>
<path opacity="0.9" d="M148.986 184.719C153.479 184.719 157.122 179.949 157.122 174.065C157.122 168.18 153.479 163.41 148.986 163.41C144.492 163.41 140.85 168.18 140.85 174.065C140.85 179.949 144.492 184.719 148.986 184.719Z" fill="#B7E020"/>
<path d="M144.301 174.991L148.987 177.792" stroke="#1D1E1C" stroke-width="0.1" stroke-miterlimit="10"/>
<path d="M154.984 174.991L148.986 180.914" stroke="#1D1E1C" stroke-width="0.1" stroke-miterlimit="10"/>
<path d="M148.986 194.08V171.447" stroke="#1D1E1C" stroke-width="0.1" stroke-miterlimit="10"/>
<path opacity="0.9" d="M167.984 218.114C173.087 218.114 177.223 212.697 177.223 206.015C177.223 199.333 173.087 193.916 167.984 193.916C162.881 193.916 158.744 199.333 158.744 206.015C158.744 212.697 162.881 218.114 167.984 218.114Z" fill="#C8FF29"/>
<path d="M162.662 207.067L167.983 210.249" stroke="#1D1E1C" stroke-width="0.1" stroke-miterlimit="10"/>
<path d="M174.796 207.067L167.984 213.794" stroke="#1D1E1C" stroke-width="0.1" stroke-miterlimit="10"/>
<path d="M167.984 228.745V203.042" stroke="#1D1E1C" stroke-width="0.1" stroke-miterlimit="10"/>
<path opacity="0.9" d="M185.525 222.678C190.628 222.678 194.764 217.261 194.764 210.578C194.764 203.896 190.628 198.479 185.525 198.479C180.422 198.479 176.285 203.896 176.285 210.578C176.285 217.261 180.422 222.678 185.525 222.678Z" fill="#C8FF29"/>
<path d="M180.203 211.631L185.524 214.812" stroke="#1D1E1C" stroke-width="0.1" stroke-miterlimit="10"/>
<path d="M192.337 211.631L185.525 218.357" stroke="#1D1E1C" stroke-width="0.1" stroke-miterlimit="10"/>
<path d="M185.525 233.309V207.605" stroke="#1D1E1C" stroke-width="0.1" stroke-miterlimit="10"/>
<path opacity="0.9" d="M202.908 157.349C208.011 157.349 212.147 151.932 212.147 145.249C212.147 138.567 208.011 133.15 202.908 133.15C197.805 133.15 193.668 138.567 193.668 145.249C193.668 151.932 197.805 157.349 202.908 157.349Z" fill="#B7E020"/>
<path d="M197.586 146.302L202.907 149.483" stroke="#1D1E1C" stroke-width="0.1" stroke-miterlimit="10"/>
<path d="M209.719 146.302L202.908 153.028" stroke="#1D1E1C" stroke-width="0.1" stroke-miterlimit="10"/>
<path d="M202.908 167.979V142.276" stroke="#1D1E1C" stroke-width="0.1" stroke-miterlimit="10"/>
<path d="M26.7755 126.291L49.6285 166.226L83.7795 221.521L139.243 215.377V120.147L73.5655 35.668L25.8125 39.508" fill="white"/>
<path d="M26.7755 126.291L49.6285 166.226L83.7795 221.521L139.243 215.377V120.147L73.5655 35.668L25.8125 39.508" stroke="#020202" stroke-miterlimit="10"/>
<path d="M83.5494 221.037L84.5752 125.64C84.5755 125.612 84.5671 125.584 84.5512 125.561L26.2988 40.564V126.236C26.2988 126.26 26.3056 126.285 26.3184 126.306L83.2948 221.107C83.3102 221.132 83.3335 221.152 83.3612 221.163C83.3889 221.174 83.4195 221.176 83.4483 221.168C83.4771 221.16 83.5025 221.143 83.5208 221.12C83.539 221.096 83.5491 221.067 83.5494 221.037Z" fill="white" stroke="#020202" stroke-miterlimit="10"/>
<path d="M84.5762 125.597L139.243 120.473" stroke="#020202" stroke-miterlimit="10"/>
<path d="M193.929 108.747L216.77 148.686L250.904 203.987L306.338 197.842V102.603L240.694 18.1162L192.967 21.9562" fill="white"/>
<path d="M193.929 108.747L216.77 148.686L250.904 203.987L306.338 197.842V102.603L240.694 18.1162L192.967 21.9562" stroke="#020202" stroke-miterlimit="10"/>
<path d="M250.645 203.503L251.671 108.105C251.671 108.077 251.663 108.05 251.647 108.026L193.395 23.0293V108.701C193.395 108.726 193.401 108.75 193.414 108.772L250.391 203.572C250.406 203.597 250.429 203.617 250.457 203.628C250.485 203.64 250.515 203.641 250.544 203.634C250.573 203.626 250.598 203.609 250.616 203.585C250.635 203.561 250.645 203.533 250.645 203.503Z" fill="white" stroke="#020202" stroke-miterlimit="10"/>
<path d="M251.672 108.062L306.339 102.515" stroke="#020202" stroke-miterlimit="10"/>
<path d="M142.899 113.815L143.114 118.524C143.114 118.524 143.27 118.825 143.482 118.866C143.694 118.907 143.482 117.813 143.482 117.813C143.494 117.496 143.566 117.183 143.693 116.892C143.912 116.351 144.824 116.892 144.824 116.892L145.022 117.195L145.219 116.734L145.881 115.368L146.223 115.736C146.223 115.736 145.009 118.734 144.93 118.866C144.654 119.437 144.481 120.051 144.416 120.682L144.087 127.419H143.666L143.719 122.498L143.429 122.524L142.719 126.683L142.305 126.446L142.593 124.156L142.745 121.235L142.535 118.866L142.425 113.526L142.899 113.815Z" fill="#1D1E1C"/>
<path d="M161.373 112.029C161.367 111.765 161.317 111.504 161.225 111.256C161.181 111.141 161.163 111.017 161.171 110.894C161.179 110.771 161.214 110.651 161.272 110.543C161.33 110.434 161.411 110.339 161.508 110.264C161.606 110.188 161.719 110.135 161.839 110.107C162.29 110.1 162.738 110.167 163.167 110.305L163.365 111.534L162.612 112.346V112.802C162.612 112.802 163.271 112.987 163.41 113.221C163.543 113.619 163.634 114.03 163.682 114.447L163.92 115.725L167.784 118.43V119.004L165.921 117.895L163.457 116.457L163.373 116.635L165.505 118.45L166.268 119.177L166.031 119.553L162.156 117.162L161.185 116.448L160.551 114.83C160.389 114.471 160.289 114.087 160.254 113.694C160.257 113.387 160.29 113.082 160.353 112.782L161.373 112.029Z" fill="#1D1E1C"/>
<path d="M141.131 124.437V112.646L147.307 116.085V128.718" stroke="#1D1E1C" stroke-width="0.1" stroke-miterlimit="10"/>
<path d="M158.285 119.924V114.696L163.548 117.31V122.732" stroke="#1D1E1C" stroke-width="0.1" stroke-miterlimit="10"/>
<path d="M166.917 122.732V116.696L161.373 113.959V118.029" stroke="#1D1E1C" stroke-width="0.1" stroke-miterlimit="10"/>
<path d="M150.816 122.077V118.714L157.767 122.665V126.393" stroke="#1D1E1C" stroke-width="0.1" stroke-miterlimit="10"/>
<path d="M177.398 100.929C173.937 100.929 166.663 99.3951 165.7 91.3182C163.159 69.9949 169.485 48.5195 176.928 48.5195C185.721 48.5195 192.454 80.3941 188.703 92.2589C186.212 100.137 180.859 100.929 177.398 100.929Z" fill="#ADDD00"/>
<path d="M177.398 114.7V87.3286" stroke="#1D1E1C" stroke-width="0.1" stroke-miterlimit="10"/>
<path d="M187.344 144.85C183.883 144.85 176.608 143.316 175.645 135.239C173.105 113.915 179.431 92.4399 186.873 92.4399C195.666 92.4399 202.399 124.315 198.648 136.179C196.157 144.057 190.805 144.85 187.344 144.85Z" fill="#ADDD00"/>
<path d="M187.344 158.62V131.249" stroke="#1D1E1C" stroke-width="0.1" stroke-miterlimit="10"/>
<path opacity="0.9" d="M222.467 221.672C220.143 221.672 215.26 220.74 214.614 215.834C212.908 202.88 217.155 189.834 222.151 189.834C228.054 189.834 232.573 209.197 230.055 216.405C228.383 221.191 224.79 221.672 222.467 221.672Z" fill="#ADDD00"/>
<path d="M222.467 230.038V213.41" stroke="#1D1E1C" stroke-width="0.1" stroke-miterlimit="10"/>
<path opacity="0.9" d="M196.24 146.891C203.655 146.891 209.667 139.02 209.667 129.31C209.667 119.6 203.655 111.728 196.24 111.728C188.825 111.728 182.814 119.6 182.814 129.31C182.814 139.02 188.825 146.891 196.24 146.891Z" fill="#B7E020"/>
<path d="M188.508 130.838L196.24 135.461" stroke="#1D1E1C" stroke-width="0.1" stroke-miterlimit="10"/>
<path d="M206.138 130.838L196.24 140.612" stroke="#1D1E1C" stroke-width="0.1" stroke-miterlimit="10"/>
<path d="M196.24 162.339V124.99" stroke="#1D1E1C" stroke-width="0.1" stroke-miterlimit="10"/>
</svg>
