<svg width="769" height="643" viewBox="0 0 769 643" fill="none" xmlns="http://www.w3.org/2000/svg">
<path opacity="0.34" d="M295.945 272.486C270.669 299.102 215.728 289.905 218.906 332.036C222.537 380.184 225.059 425.711 266.139 491.097C307.977 557.689 392.889 557.047 458.035 570.624C501.101 579.6 667.131 614.202 724.65 530.861C755.546 486.094 741.184 427.507 738.235 416.54C723.852 363.049 689.616 358.905 627.853 269.084C592.063 217.033 595.38 206.529 571.813 191.213C517.857 156.148 428.681 164.556 403.693 204.468C387.297 230.655 313.97 253.506 295.945 272.486Z" fill="#99C3A6"/>
<path d="M441.422 505.271L395.643 508.362C388.034 509.087 380.357 508.283 373.063 505.996C365.769 503.709 359.007 499.985 353.173 495.044C347.339 490.104 342.552 484.046 339.093 477.227C335.635 470.408 333.575 462.966 333.034 455.339C332.494 447.711 333.484 440.053 335.946 432.814C338.408 425.575 342.293 418.902 347.372 413.188C352.451 407.473 358.621 402.832 365.519 399.539C372.417 396.245 379.904 394.365 387.54 394.01L433.319 390.919C448.67 389.708 463.875 394.628 475.61 404.601C487.346 414.574 494.656 428.789 495.944 444.139C496.394 451.738 495.339 459.352 492.839 466.542C490.34 473.731 486.445 480.357 481.379 486.037C476.313 491.717 470.176 496.34 463.319 499.641C456.462 502.941 449.021 504.855 441.422 505.271Z" fill="#AFCEE1"/>
<path d="M706.238 494.483L563.206 504.141C559.279 504.451 555.388 503.192 552.386 500.641C549.383 498.089 547.513 494.452 547.184 490.525L541.994 417.288C541.594 410.183 544.029 403.21 548.765 397.901C553.5 392.591 560.149 389.379 567.25 388.969L688.056 380.812C691.984 380.502 695.874 381.761 698.876 384.312C701.879 386.864 703.749 390.501 704.079 394.428L710.806 489.361C710.844 489.998 710.755 490.636 710.546 491.238C710.337 491.841 710.01 492.396 709.586 492.872C709.161 493.348 708.647 493.735 708.072 494.012C707.498 494.288 706.874 494.448 706.238 494.483Z" fill="#B9C0B2"/>
<path d="M576.836 400.792C543.586 406.251 531.798 421.295 511.977 416.312C462.203 403.801 451.18 393.673 426.714 411.1C407.487 424.796 394.11 455.126 401.621 476.914C414.062 513.002 479.598 513.437 500.752 513.577C521.244 513.552 541.529 509.477 560.442 501.588C579.355 493.699 596.524 482.151 610.964 467.606C626.495 452.345 634.087 431.62 621.022 412.155C614.453 402.369 605.41 396.1 576.836 400.792Z" fill="#EDB6AB"/>
<path d="M337.599 537.32L267.766 380.418L704.587 342.72" stroke="#A9A7A4" stroke-width="6" stroke-miterlimit="10"/>
<path d="M388.358 551.813C384.173 513.956 402.37 468.099 443.103 457.467C452.275 455.238 461.589 453.642 470.98 452.689C486.744 450.89 502.202 447.023 516.957 441.189C531.916 435.206 543.362 426.563 556.266 416.122C604.839 375.258 669.612 351.219 732.767 353.962L733.088 355.957C681.587 364.863 631.348 383.772 589.337 415.143C575.191 425.545 562.557 437.761 547.874 447.585C538.544 453.657 528.477 458.51 517.917 462.026C503.156 466.738 487.869 469.603 472.404 470.555C455.202 471.557 437.365 472.573 423.571 483.95C402.815 500.204 393.69 526.541 390.363 552.06L388.358 551.813Z" fill="#D3D2C9"/>
<path d="M600.744 469.769L608.188 456.251L605.727 455.82C605.727 455.82 604.766 454.904 605.787 454.742C606.807 454.581 608.008 454.904 608.428 454.742C608.848 454.581 609.508 452.534 609.508 452.534C609.508 452.534 609.148 449.626 611.069 449.949C612.99 450.272 611.369 452.75 611.369 452.75L611.429 455.496C611.429 455.496 615.451 455.496 615.031 456.25C614.611 457.004 612.27 456.951 612.27 456.951L614.671 464.222L612.698 463.89C612.698 463.89 613.649 468.224 614.191 468.261C615.532 468.353 617.857 467.866 617.432 468.746C616.021 469.109 614.571 469.3 613.114 469.315L610.47 463.669L606.538 463.02C606.538 463.02 602.785 470.038 601.765 470.2C600.744 470.361 600.744 469.769 600.744 469.769Z" fill="#1D1E1C"/>
<path d="M627.551 440.578C628.271 439.136 625.796 427.216 624.613 426.818C623.431 426.42 622.322 421.513 625.278 423.37C625.601 423.657 625.851 424.018 626.005 424.422C626.159 424.826 626.214 425.261 626.165 425.691C625.943 427.084 628.826 426.487 629.639 427.614C630.452 428.741 635.329 436.102 635.329 436.102C636.858 437.833 638.03 439.848 638.778 442.033C639.526 444.218 639.836 446.529 639.69 448.834C639.542 457.321 641.685 457.056 641.39 457.852C641.094 458.647 637.547 459.642 637.547 459.642C637.547 459.642 637.99 475.225 636.364 475.756C635.954 475.929 635.504 475.99 635.063 475.932C634.621 475.873 634.203 475.698 633.851 475.424C633.851 475.424 633.168 475.016 635.182 474.164C637.195 473.312 635.329 459.907 635.329 459.907L631.941 459.786C631.941 459.786 633.112 475.04 631.338 475.928C630.907 476.2 630.407 476.344 629.897 476.344C629.387 476.344 628.888 476.2 628.456 475.928C628.456 475.928 627.939 475.225 629.491 474.496C631.043 473.766 629.786 459.841 629.786 459.841C628.461 459.493 627.209 458.909 626.091 458.117C626.091 458.117 631.117 449.563 629.491 442.667L620.992 447.308C620.992 447.308 617.222 447.773 620.992 445.385C624.761 442.998 626.954 441.773 627.551 440.578Z" fill="#1D1E1C"/>
<path d="M559.012 452.184C561.008 454.257 562.426 456.817 563.127 459.609C563.549 460.647 563.756 461.76 563.737 462.881C563.717 464.002 563.471 465.107 563.012 466.129L554.896 474.28" stroke="#1D1E1C" stroke-width="0.1" stroke-linecap="round" stroke-linejoin="round"/>
<path d="M539.637 458.899L549.754 451.376L559.011 452.184L554.44 458.884L539.637 458.899Z" stroke="#1D1E1C" stroke-width="0.1" stroke-linecap="round" stroke-linejoin="round"/>
<path d="M535.234 473.827C535.234 473.827 549.466 476.996 554.895 474.28C556.667 469.027 556.61 460.787 554.438 458.885C552.304 458.873 539.635 458.899 539.635 458.899C537.738 463.738 536.266 468.733 535.234 473.827Z" stroke="#1D1E1C" stroke-width="0.1" stroke-miterlimit="10"/>
<path d="M591.275 440.273L598.227 439.704C598.227 439.704 604.506 449.399 603.609 452.986C603.609 452.986 601.142 455.625 589.48 455.057L591.275 440.273Z" stroke="#1D1E1C" stroke-width="0.1" stroke-linecap="round" stroke-linejoin="round"/>
<path d="M598.227 439.704C597.255 439.135 588.359 434.713 588.359 434.713H581.557L591.275 440.273L598.227 439.704Z" stroke="#1D1E1C" stroke-width="0.1" stroke-linecap="round" stroke-linejoin="round"/>
<path d="M581.557 434.713L576.1 446.148L589.481 455.057C589.481 455.057 591.649 440.462 591.275 440.273C590.901 440.083 581.557 434.713 581.557 434.713Z" stroke="#1D1E1C" stroke-width="0.1" stroke-linecap="round" stroke-linejoin="round"/>
<path d="M551.932 432.905C553.83 429.084 554.289 425.313 551.877 424.81C549.464 424.307 548.223 428.43 548.213 429.788C548.234 430.714 548.403 431.631 548.715 432.503C547.212 436.828 546.629 441.421 547.006 445.985C547.759 452.98 549.62 453.018 552.033 456.559C552.734 457.588 556.047 456.484 556.151 457.225C556.764 461.573 557.114 474.803 557.114 474.803L557.349 475.935H561.391C561.391 475.935 562.22 475.561 561.391 474.983C560.48 474.59 559.491 474.41 558.5 474.455C558.5 474.455 558.888 463.825 559.323 460.41C559.451 459.445 559.693 458.499 560.044 457.592C560.284 457.224 560.557 456.878 560.859 456.559H566.562V472.899L566.718 474.03H570.228C570.244 473.869 570.219 473.706 570.155 473.557C570.091 473.409 569.989 473.279 569.86 473.181C569.213 472.876 568.54 472.629 567.849 472.444L568.316 469.543L568.755 454.851C566.732 455.043 564.693 454.974 562.689 454.644C562.274 454.325 561.892 453.966 561.549 453.571C558.384 449.314 553.83 441.939 553.83 441.939C553.83 441.939 571.368 448.912 571.703 448.644C572.038 448.375 571.703 447.169 571.703 447.169L554.546 439.191C554.546 439.191 573.311 446.431 573.378 445.694C573.445 444.956 574.048 445.088 568.888 442.776C563.177 440.132 557.667 437.074 552.402 433.626L551.932 432.905Z" fill="black"/>
<path d="M309.518 468.898C309.303 469.222 308.871 470.518 307.684 470.842C306.497 471.166 303.798 469.87 302.072 474.836C300.577 480.796 300.138 486.972 300.776 493.083C301.424 493.838 303.151 479.371 303.69 480.99C304.23 482.61 302.719 498.049 303.367 499.992C304.014 501.936 307.679 515.971 305.792 516.187C303.906 516.403 304.149 517.105 304.149 517.105L307.063 518.562L307.306 510.465C307.306 510.465 307.792 492.786 308.358 493.731C308.884 501.729 308.884 509.754 308.358 517.753C308.157 518.181 308.095 518.662 308.183 519.127C308.27 519.592 308.501 520.018 308.844 520.344C310.133 520.148 311.387 519.766 312.567 519.21C312.567 519.21 312.163 517.996 311.434 517.996C311.215 518.005 310.997 517.97 310.792 517.893C310.586 517.816 310.399 517.699 310.24 517.547C310.081 517.396 309.955 517.215 309.868 517.013C309.781 516.812 309.736 516.596 309.734 516.376C309.734 515.243 311.92 502.449 311.92 502.449H312.567C312.567 502.449 311.758 483.096 313.377 484.149C314.996 485.201 316.857 485.606 316.938 486.578C317.019 487.55 317.586 492.246 317.586 492.975C317.586 493.704 315.4 502.773 315.805 502.854C316.21 502.935 314.348 506.821 314.672 509.17C314.996 511.518 315.967 513.461 315.158 513.623C314.348 513.785 313.539 514.595 313.862 514.878C314.186 515.162 316.777 514.271 316.777 514.271C316.777 514.271 315.846 508.927 316.857 508.643C317.869 508.36 319.893 509.575 319.893 509.575C319.893 509.575 318.476 515.931 319.083 516.417C319.387 516.69 319.77 516.86 320.176 516.903L321.661 509.372C321.661 509.372 323.333 497.874 323.211 497.631C323.09 497.388 325.977 496.862 325.977 496.862L326.679 493.731L331.967 488.116C331.967 488.116 333.262 486.821 333.316 488.386C333.37 489.952 332.399 502.044 332.399 502.044C332.649 502.469 332.848 502.922 332.992 503.394C332.938 503.555 332.237 515.486 332.237 515.486C332.237 515.486 331.805 515.108 330.834 515.81C329.862 516.511 330.24 516.349 330.24 516.349L333.318 517.807L335.529 502.8L337.094 502.854L336.77 520.373L337.903 520.128L339.9 502.152L343.785 501.18L342.004 492.219C342.448 490.098 342.773 487.953 342.976 485.795C342.922 484.554 341.734 477.806 340.331 477.266C339.271 476.811 338.258 476.25 337.309 475.592C336.981 474.083 336.529 472.602 335.96 471.166C335.151 469.276 329.917 470.68 330.834 473.703C331.751 476.726 335.097 476.618 334.395 477.968C333.694 479.317 331.589 479.479 331.589 479.479L330.402 486.443C328.442 488.385 326.637 490.479 325.006 492.705C325.062 493.403 325.062 494.104 325.006 494.802L324.143 495.242L322.113 493.461C322.113 493.461 324.844 490.33 323.009 489.25C321.175 488.17 318.8 487.684 318.8 489.142C318.8 490.6 318.153 490.6 318.153 490.6L317.991 486.335C317.991 486.335 319.664 485.525 318.962 484.823C318.261 484.122 316.156 483.258 315.778 482.61C315.381 482.029 314.929 481.486 314.429 480.991L315.454 480.181C315.454 480.181 315.023 472.893 313.512 472.03C312.001 471.166 315.67 470.734 314.267 468.197C312.864 465.66 311.245 464.796 310.328 465.39C309.411 465.983 309.518 468.898 309.518 468.898Z" fill="black"/>
<path d="M469.972 411.866C472.645 409.734 475.165 407.417 477.514 404.932C477.43 404.337 477.182 403.776 476.795 403.316C476.795 403.316 475.54 399.839 478.664 400.845C479.049 401.19 479.321 401.643 479.444 402.145C479.566 402.647 479.534 403.174 479.352 403.658C478.813 405.562 481.931 405.292 481.931 405.292C481.931 405.292 489.473 402.597 489.868 402.669C490.263 402.741 490.051 403.383 489.225 403.814C488.399 404.245 482.146 406.082 481.715 407.124C481.808 410.254 482.254 413.363 483.044 416.393C483.188 416.501 491.161 418.261 491.161 418.261C491.161 418.261 494.062 418.622 492.662 419.161C489.063 419.06 485.483 418.599 481.976 417.785C480.531 420.662 479.303 423.643 478.304 426.704C478.663 427.099 479.525 427.243 479.309 427.746C479.094 428.249 476.821 426.849 476.821 426.849C476.821 426.849 480.553 416.743 479.296 416.42C478.37 416.16 477.463 415.835 476.583 415.449L476.113 408.489C476.113 408.489 471.353 411.722 470.479 412.378C469.787 412.897 469.972 411.866 469.972 411.866Z" fill="black"/>
<path d="M614.515 389.384L621.722 374.791L615.807 373.637C615.807 373.637 615.308 373.384 616.296 373.21C617.284 373.035 621.548 373.338 621.955 373.163C622.361 372.989 623.001 370.78 623.001 370.78C623.001 370.78 622.652 367.64 624.512 367.989C626.372 368.338 624.802 371.012 624.802 371.012L624.86 373.977C624.86 373.977 631.591 371.536 631.184 372.35C629.48 373.63 627.631 374.703 625.674 375.547L627.999 383.396L626.089 383.038C626.089 383.038 627.009 387.716 627.534 387.756C628.833 387.855 630.758 387.038 630.722 387.827C630.719 387.897 630.647 389.04 630.436 389.064C630.231 389.088 630.019 388.231 629.887 388.236C628.726 388.338 627.573 388.511 626.433 388.754L623.932 382.799L620.125 382.099C620.125 382.099 615.87 390.03 614.882 390.205C614.388 390.292 612.735 390.223 612.734 389.994C612.734 389.408 614.515 389.384 614.515 389.384Z" fill="black"/>
<path d="M629.422 377.089C630.696 374.94 629.559 372.11 630.323 369.731C630.998 368.299 631.834 366.948 632.814 365.706" stroke="black" stroke-width="0.1" stroke-miterlimit="10"/>
<path d="M487.035 407.917C487.826 406.932 488.488 405.85 489.005 404.697C489.48 403.401 489.607 402.003 489.374 400.642C488.969 397.613 488.224 394.601 487.633 391.603C487.597 391.421 487.319 391.498 487.355 391.68C487.905 394.474 488.537 397.266 488.998 400.076C489.308 401.5 489.248 402.98 488.822 404.373C488.312 405.599 487.626 406.744 486.785 407.771C486.675 407.921 486.925 408.065 487.035 407.917Z" fill="black"/>
<path d="M487.375 391.517C487.839 391.14 488.214 390.666 488.474 390.128C488.735 389.59 488.874 389.001 488.881 388.403C488.908 387.995 488.833 387.587 488.663 387.216C488.477 386.953 488.194 386.774 487.877 386.717C487.559 386.661 487.232 386.732 486.967 386.914C486.665 387.155 486.42 387.459 486.249 387.805C486.079 388.152 485.988 388.531 485.982 388.917C485.856 389.826 485.821 390.973 486.738 391.494C486.755 391.504 486.773 391.51 486.792 391.513C486.81 391.515 486.829 391.514 486.848 391.509C486.866 391.504 486.883 391.496 486.898 391.484C486.914 391.473 486.926 391.459 486.936 391.442C486.945 391.426 486.952 391.408 486.954 391.389C486.957 391.37 486.956 391.351 486.951 391.333C486.946 391.315 486.938 391.297 486.926 391.282C486.915 391.267 486.9 391.254 486.884 391.245C486.591 391.013 486.373 390.701 486.256 390.346C486.14 389.991 486.13 389.61 486.228 389.25C486.222 388.526 486.48 387.825 486.952 387.278C487.366 386.918 488.167 386.84 488.437 387.41C488.568 387.746 488.621 388.107 488.592 388.466C488.575 389.015 488.439 389.554 488.193 390.045C487.948 390.537 487.599 390.969 487.17 391.313C487.025 391.428 487.231 391.631 487.375 391.517Z" fill="black"/>
<path d="M632.674 365.984C633.133 366.191 633.642 366.261 634.14 366.186C634.638 366.11 635.104 365.892 635.481 365.558C636.265 364.946 637.044 363.991 636.62 362.952C636.487 362.496 636.237 362.084 635.894 361.756C635.552 361.428 635.129 361.195 634.668 361.082C634.251 361.023 633.825 361.094 633.449 361.286C633.073 361.478 632.766 361.782 632.569 362.155C632.31 362.72 632.131 363.319 632.04 363.934C631.905 364.515 631.957 365.122 632.188 365.671C632.267 365.84 632.515 365.693 632.437 365.526C632.168 364.619 632.236 363.646 632.629 362.786C632.731 362.381 632.951 362.015 633.263 361.737C633.556 361.508 633.911 361.374 634.283 361.354C634.683 361.358 635.074 361.48 635.405 361.707C635.735 361.933 635.992 362.252 636.14 362.624C636.276 362.815 636.37 363.032 636.415 363.262C636.46 363.491 636.455 363.728 636.4 363.956C636.23 364.386 635.958 364.768 635.607 365.07C635.269 365.457 634.819 365.729 634.319 365.848C633.82 365.968 633.295 365.928 632.819 365.735C632.655 365.649 632.509 365.898 632.674 365.984Z" fill="black"/>
<path d="M486.958 391.529C486.962 391.572 486.963 391.615 486.961 391.658L486.957 391.725L486.955 391.735C486.953 391.752 486.954 391.746 486.957 391.725L486.952 391.758C486.944 391.799 486.934 391.839 486.922 391.879L486.902 391.937C486.901 391.941 486.884 391.979 486.894 391.959C486.904 391.938 486.886 391.975 486.884 391.979C486.872 392.001 486.865 392.026 486.865 392.052C486.865 392.077 486.872 392.102 486.884 392.125C486.897 392.146 486.915 392.165 486.937 392.177C486.959 392.19 486.983 392.196 487.009 392.196C487.105 392.205 487.202 392.19 487.292 392.154C487.382 392.117 487.462 392.06 487.525 391.986C487.551 391.949 487.569 391.907 487.578 391.863C487.587 391.819 487.588 391.773 487.579 391.729C487.57 391.685 487.552 391.643 487.526 391.606C487.501 391.569 487.468 391.537 487.429 391.513C487.396 391.494 487.357 391.488 487.32 391.498C487.283 391.508 487.251 391.532 487.232 391.565C487.213 391.598 487.207 391.637 487.217 391.674C487.227 391.711 487.251 391.743 487.284 391.762L487.301 391.772C487.32 391.782 487.28 391.751 487.289 391.763C487.293 391.767 487.309 391.786 487.293 391.764C487.289 391.759 487.277 391.743 487.293 391.764C487.301 391.778 487.296 391.787 487.288 391.753L487.293 391.768L487.296 391.783C487.302 391.808 487.295 391.746 487.294 391.771L487.295 391.791C487.291 391.818 487.294 391.798 487.295 391.791C487.296 391.785 487.298 391.764 487.295 391.791L487.29 391.813L487.284 391.829C487.28 391.843 487.302 391.794 487.288 391.82L487.279 391.835C487.271 391.848 487.258 391.854 487.284 391.829L487.263 391.852C487.286 391.838 487.241 391.872 487.263 391.852L487.241 391.865L487.222 391.875C487.206 391.884 487.252 391.864 487.228 391.872L487.177 391.888L487.133 391.898C487.098 391.896 487.119 391.9 487.133 391.898L487.113 391.9L487.009 391.907L487.133 392.125C487.223 391.94 487.262 391.734 487.246 391.529C487.246 391.491 487.231 391.454 487.204 391.427C487.177 391.4 487.14 391.385 487.102 391.385C487.064 391.385 487.027 391.4 487 391.427C486.973 391.454 486.958 391.491 486.958 391.529Z" fill="black"/>
<path d="M632.62 365.704C632.482 365.703 632.347 365.739 632.228 365.81C632.207 365.823 632.189 365.841 632.177 365.863C632.165 365.885 632.158 365.91 632.158 365.935C632.158 365.96 632.165 365.984 632.177 366.006C632.189 366.028 632.207 366.046 632.228 366.059C632.43 366.186 632.635 366.308 632.844 366.423C632.86 366.432 632.878 366.439 632.897 366.441C632.916 366.444 632.935 366.443 632.953 366.438C632.972 366.433 632.989 366.425 633.004 366.413C633.019 366.402 633.032 366.387 633.041 366.371C633.051 366.355 633.057 366.337 633.06 366.318C633.062 366.299 633.061 366.28 633.056 366.262C633.052 366.243 633.043 366.226 633.032 366.211C633.02 366.196 633.006 366.183 632.99 366.174C632.781 366.058 632.576 365.937 632.374 365.81V366.059C632.394 366.044 632.417 366.032 632.441 366.024C632.404 366.032 632.449 366.022 632.457 366.019L632.493 366.008L632.53 365.999C632.534 365.998 632.576 365.993 632.553 365.995C632.53 365.996 632.573 365.994 632.577 365.993C632.591 365.993 632.606 365.993 632.62 365.993C632.659 365.993 632.695 365.978 632.722 365.951C632.749 365.923 632.765 365.887 632.765 365.848C632.765 365.81 632.749 365.773 632.722 365.746C632.695 365.719 632.659 365.704 632.62 365.704Z" fill="black"/>
<path d="M519.488 384.916C509.606 380.914 524.724 372.169 528.721 371.055C531.861 370.422 534.956 369.579 537.984 368.53C543.086 366.43 541.368 357.171 548.131 353.456C553.454 350.531 556.774 368.696 562.999 363.245C566.435 360.236 567.711 355.631 577.115 357.33C581.365 358.099 577.115 369.026 583.794 370.09C587.284 370.647 589.649 360.819 600.266 363.368C612.524 366.312 601.714 382.142 601.245 384.651C586.935 384.916 552.55 384.689 519.488 384.916Z" fill="#A4D0B6"/>
<path d="M691.591 375.128C685.014 370.98 695.075 361.915 697.736 360.761C699.869 360.087 701.933 359.211 703.9 358.144C707.296 355.968 706.152 346.371 710.654 342.52C714.196 339.489 716.405 358.316 720.548 352.667C722.835 349.548 723.684 344.775 729.943 346.536C732.772 347.333 729.943 358.658 734.388 359.762C736.71 360.339 743.644 356.243 745.355 363.593C748.041 375.129 728.663 396.557 728.35 399.157C718.826 399.432 713.595 374.893 691.591 375.128Z" fill="#A4D0B6"/>
<path d="M672.955 364.95V358.148C673.094 357.338 673.424 356.574 673.917 355.917C674.409 355.26 675.051 354.729 675.788 354.368C678.303 353.172 680.154 355.545 681.077 356.825C682.001 358.105 679.944 363.439 679.944 363.439L675.977 366.273L692.411 372.32L689.578 374.021L678.055 371.186C678.055 371.186 680.081 378.214 678.244 381.202C676.407 384.19 667.934 385.565 667.477 387.249C667.246 391.718 667.246 396.196 667.477 400.666L664.649 399.651L662.565 386.682C662.116 386.866 661.732 387.18 661.462 387.584C661.193 387.988 661.051 388.464 661.054 388.949L662.187 400.666L658.96 399.556C658.96 399.556 656.066 386.182 657.276 384.225C658.486 382.269 666.154 378.556 666.154 378.556L666.546 375.511L668.043 373.265L668.988 367.029L672.955 364.95Z" fill="#1D1E1C"/>
<path d="M684.183 379.067H690.441L691.721 378L693.072 377.517L694.708 373.234C694.708 373.234 697.078 370.673 698.69 370.673C700.302 370.673 701.535 374.23 701.535 374.23L700.966 376.506L696.984 379.067L697.41 382.055L696.984 388.316H695.561L695.277 386.182L690.868 390.877L684.183 393.865L683.472 393.011L688.734 387.889L681.907 391.588L679.916 391.019C682.735 389.255 685.399 387.256 687.881 385.043C688.368 384.193 688.66 383.246 688.734 382.269L684.019 380.131L684.183 379.067Z" fill="#1D1E1C"/>
<path d="M652.18 383.24L701.534 402.544L714.193 393.863L665.549 375.368L652.18 383.24Z" stroke="#1D1E1C" stroke-width="0.05" stroke-linejoin="round"/>
<path d="M715.474 377.929L666.403 362.277L665.549 375.369L714.193 393.864L715.474 377.929Z" stroke="#1D1E1C" stroke-width="0.05" stroke-linejoin="round"/>
<path d="M699.4 401.926V413.072L701.533 414.212L703.241 412.076V401.644" stroke="#1D1E1C" stroke-width="0.05" stroke-miterlimit="10"/>
<path d="M710.385 396.476V407.714L712.061 408.378L713.481 405.532V394.527" stroke="#1D1E1C" stroke-width="0.05" stroke-miterlimit="10"/>
<path d="M655.166 384.26V392.94L656.981 393.864L658.297 392.94V385.328" stroke="#1D1E1C" stroke-width="0.05" stroke-miterlimit="10"/>
<path d="M463.955 445.552C460.344 445.854 455.505 445.045 455.194 443.227C454.921 441.639 458.217 439.933 458.591 439.739C460.905 438.618 463.56 438.427 466.012 439.203C467.742 439.714 471.054 441.167 470.929 442.691C470.79 444.378 466.502 445.34 463.955 445.552Z" stroke="#1D1E1C" stroke-width="0.1" stroke-linejoin="round"/>
<path d="M409.346 460.053L421.062 415.865L430.561 469.556" stroke="#1D1E1C" stroke-width="0.1" stroke-linejoin="round"/>
<path d="M447.658 436.612L462.381 394.959L475.522 449.282" stroke="#1D1E1C" stroke-width="0.1" stroke-linejoin="round"/>
<path d="M421.061 415.866L462.382 394.96" stroke="#1D1E1C" stroke-width="0.1" stroke-miterlimit="10"/>
<path d="M435.654 408.483L455.179 442.899" stroke="#1D1E1C" stroke-width="0.1" stroke-linejoin="round"/>
<path d="M446.279 403.529L461.082 424.764" stroke="#1D1E1C" stroke-width="0.1" stroke-linejoin="round"/>
<path d="M459.69 427.428L461.59 422.122C462.82 421.032 464.382 420.39 466.023 420.301C466.737 420.32 467.425 420.572 467.983 421.019C468.54 421.466 468.936 422.083 469.11 422.777L468.431 426.327L465.654 427.621L465.669 431.334L476.116 437.485L485.021 439.504L491.314 438.846V440.81L486.843 442.16L476.743 440.643L482.171 446.868H484.786L486.209 449.284H480.942C478.581 446.954 476.411 444.438 474.453 441.761C473.79 440.187 467.485 441.363 467.485 441.363C467.485 441.363 461.568 440.316 459.932 438.22C458.297 436.124 459.69 430.239 459.69 430.239L447.237 430.054L446.77 428.486L459.69 427.428Z" fill="#1D1E1C"/>
<path d="M658.938 428.825L659.863 445.022" stroke="#1D1E1C" stroke-width="0.1" stroke-linejoin="round"/>
<path d="M659.967 438.3C662.721 438.194 665.479 438.288 668.219 438.579L668.116 445.152" stroke="#1D1E1C" stroke-width="0.1" stroke-linejoin="round"/>
<path d="M700.895 428.768L700.623 446.126" stroke="#1D1E1C" stroke-width="0.1" stroke-linejoin="round"/>
<path d="M700.382 439.397C697.757 439.093 695.108 439.051 692.475 439.273L692.369 445.995" stroke="#1D1E1C" stroke-width="0.1" stroke-linejoin="round"/>
<path d="M671.188 432.009L687.023 432.257" stroke="#1D1E1C" stroke-width="0.1" stroke-linejoin="round"/>
<path d="M679.1 432.433L678.891 445.783" stroke="#1D1E1C" stroke-width="0.1" stroke-linejoin="round"/>
<path d="M664.817 424.535C664.817 424.535 665.774 424.282 666.305 421.019C666.873 417.521 671.188 418.567 670.769 421.089C670.35 423.611 668.585 423.662 668.585 423.662C668.585 423.662 666.986 423.913 666.91 424.363C666.823 424.883 666.219 427.883 667.965 427.998C669.512 428.061 671.061 427.9 672.564 427.522L673.636 426.275C673.636 426.275 675.724 427.446 674.58 427.891C673.436 428.337 667.616 428.751 667.221 429.756C666.826 430.762 668.296 433.692 668.296 433.692C670.005 434.018 671.687 434.467 673.331 435.036C674.333 435.557 674.181 445.247 674.181 445.247L673.171 445.231C673.171 445.231 673.536 438.073 671.141 437.656C668.746 437.239 662.923 437.906 662.82 436.388C662.717 434.869 661.128 428.776 662.973 426.655L664.817 424.535Z" fill="#1D1E1C"/>
<path d="M680.994 419.98C680.994 419.98 686.096 427.623 686.343 427.964C687.218 428.626 688.138 429.227 689.095 429.762C689.095 429.762 692.794 429.651 693.029 430.751C693.265 431.85 695.079 434.323 692.542 434.957C690.004 435.591 686.364 436.714 686.364 436.714L686.22 445.899L688.073 445.928C688.073 445.928 688.027 438.089 688.958 437.851C689.888 437.613 697.211 438.065 697.718 437.988C698.225 437.912 698.977 432.901 698.977 432.901C698.977 432.901 700.244 427.324 699.076 426.632C697.907 425.939 694.55 425.128 694.645 424.455C694.739 423.782 695.63 418.908 692.65 419.114C689.67 419.32 688.429 423.262 689.599 423.87C690.769 424.478 692.689 425.604 692.689 425.604C692.689 425.604 694.875 425.891 694.858 426.987C694.84 428.082 692.561 428.383 692.136 428.63C690.873 428.737 689.604 428.717 688.345 428.57C688.345 428.57 687.87 426.624 687.535 426.535C687.199 426.445 680.994 419.98 680.994 419.98Z" fill="#1D1E1C"/>
<path d="M105.921 541.42L9.92832 315.874L1 56.0847L624.935 1L667.349 53.4809L185.167 94.793L267.765 245.53L273.343 525.789L105.921 541.42Z" fill="white" stroke="#020202" stroke-miterlimit="10"/>
<path d="M2.39844 57.2295L100.621 265.658L107.319 542.565" stroke="#020202" stroke-miterlimit="10"/>
<path d="M667.347 318.952L269.873 351.586L267.763 245.53L185.166 94.7935L667.347 53.4814V318.952Z" fill="white" stroke="#020202" stroke-miterlimit="10"/>
<path d="M667.348 318.952V53.4814L185.167 94.7935L267.764 245.53L99.2227 264.513" stroke="#020202" stroke-miterlimit="10"/>
<path d="M312.691 359.844C328.901 359.844 342.041 342.631 342.041 321.397C342.041 300.163 328.901 282.949 312.691 282.949C296.482 282.949 283.342 300.163 283.342 321.397C283.342 342.631 296.482 359.844 312.691 359.844Z" fill="#C8FF29"/>
<path d="M295.789 324.74L312.692 334.849" stroke="#1D1E1C" stroke-width="0.1" stroke-miterlimit="10"/>
<path d="M334.327 324.74L312.691 346.113" stroke="#1D1E1C" stroke-width="0.1" stroke-miterlimit="10"/>
<path d="M312.691 393.625V311.95" stroke="#1D1E1C" stroke-width="0.1" stroke-miterlimit="10"/>
<path d="M342.897 412.629L343.516 426.221C343.516 426.221 343.968 427.09 344.579 427.208C345.19 427.327 344.579 424.169 344.579 424.169C344.614 423.253 344.82 422.351 345.187 421.51C345.819 419.948 348.452 421.51 348.452 421.51L349.023 422.384L349.591 421.054L351.502 417.111L352.489 418.174C352.489 418.174 348.984 426.828 348.756 427.208C347.963 428.857 347.461 430.631 347.275 432.451L346.326 451.9H345.111L345.263 437.693L344.427 437.769L342.376 449.773L341.182 449.09L342.014 442.479L342.453 434.046L341.845 427.208L341.53 411.793L342.897 412.629Z" fill="#1D1E1C"/>
<path d="M396.205 407.472C396.189 406.71 396.045 405.956 395.779 405.241C395.653 404.908 395.6 404.552 395.624 404.196C395.647 403.841 395.746 403.495 395.914 403.181C396.082 402.867 396.314 402.592 396.597 402.375C396.879 402.158 397.205 402.004 397.551 401.923C398.851 401.902 400.145 402.095 401.382 402.496L401.954 406.042L399.781 408.388V409.703C399.781 409.703 401.684 410.237 402.084 410.914C402.466 412.063 402.73 413.248 402.869 414.451L403.555 418.141L414.706 425.949V427.608L409.331 424.405L402.22 420.255L401.977 420.769L408.13 426.006L410.332 428.105L409.646 429.192L398.466 422.288L395.664 420.229L393.834 415.558C393.367 414.52 393.077 413.411 392.977 412.277C392.985 411.393 393.081 410.512 393.262 409.646L396.205 407.472Z" fill="#1D1E1C"/>
<path d="M337.795 443.289V409.254L355.617 419.181V455.65" stroke="#1D1E1C" stroke-width="0.1" stroke-miterlimit="10"/>
<path d="M387.295 430.263V415.168L402.482 422.717V438.366" stroke="#1D1E1C" stroke-width="0.1" stroke-miterlimit="10"/>
<path d="M412.205 438.366V420.945L396.207 413.044V424.793" stroke="#1D1E1C" stroke-width="0.1" stroke-miterlimit="10"/>
<path d="M365.742 436.476V426.768L385.801 438.176V448.935" stroke="#1D1E1C" stroke-width="0.1" stroke-miterlimit="10"/>
<path d="M435.007 358.591C425.02 358.591 404.027 354.162 401.25 330.846C393.918 269.291 412.173 207.298 433.65 207.298C459.024 207.298 478.453 299.311 467.628 333.562C460.44 356.303 444.995 358.591 435.007 358.591Z" fill="#A4D100"/>
<path d="M435.006 398.343V319.33" stroke="#1D1E1C" stroke-width="0.1" stroke-miterlimit="10"/>
<path opacity="0.9" d="M584.236 340.304C605.633 340.304 622.979 317.581 622.979 289.55C622.979 261.52 605.633 238.797 584.236 238.797C562.838 238.797 545.492 261.52 545.492 289.55C545.492 317.581 562.838 340.304 584.236 340.304Z" fill="#C8FF29"/>
<path d="M561.922 293.964L584.235 307.308" stroke="#1D1E1C" stroke-width="0.1" stroke-miterlimit="10"/>
<path d="M612.797 293.964L584.236 322.178" stroke="#1D1E1C" stroke-width="0.1" stroke-miterlimit="10"/>
<path d="M584.236 384.896V277.08" stroke="#1D1E1C" stroke-width="0.1" stroke-miterlimit="10"/>
<path opacity="0.9" d="M729.257 362.244C750.654 362.244 768 339.521 768 311.491C768 283.46 750.654 260.737 729.257 260.737C707.86 260.737 690.514 283.46 690.514 311.491C690.514 339.521 707.86 362.244 729.257 362.244Z" fill="#C8FF29"/>
<path d="M706.943 315.904L729.257 329.249" stroke="#1D1E1C" stroke-width="0.1" stroke-miterlimit="10"/>
<path d="M757.819 315.904L729.258 344.118" stroke="#1D1E1C" stroke-width="0.1" stroke-miterlimit="10"/>
<path d="M729.258 406.837V299.021" stroke="#1D1E1C" stroke-width="0.1" stroke-miterlimit="10"/>
<path opacity="0.9" d="M646.116 542.849C663.017 542.849 676.719 524.9 676.719 502.76C676.719 480.619 663.017 462.671 646.116 462.671C629.215 462.671 615.514 480.619 615.514 502.76C615.514 524.9 629.215 542.849 646.116 542.849Z" fill="#C8FF29"/>
<path d="M628.49 506.246L646.115 516.786" stroke="#1D1E1C" stroke-width="0.1" stroke-miterlimit="10"/>
<path d="M668.675 506.246L646.115 528.532" stroke="#1D1E1C" stroke-width="0.1" stroke-miterlimit="10"/>
<path d="M646.115 578.073V492.911" stroke="#1D1E1C" stroke-width="0.1" stroke-miterlimit="10"/>
<path opacity="0.9" d="M508.399 590.035C533.684 590.035 554.181 563.184 554.181 530.061C554.181 496.938 533.684 470.087 508.399 470.087C483.114 470.087 462.617 496.938 462.617 530.061C462.617 563.184 483.114 590.035 508.399 590.035Z" fill="#C8FF29"/>
<path d="M482.031 535.276L508.398 551.045" stroke="#1D1E1C" stroke-width="0.1" stroke-miterlimit="10"/>
<path d="M542.15 535.276L508.4 568.616" stroke="#1D1E1C" stroke-width="0.1" stroke-miterlimit="10"/>
<path d="M508.4 642.728V515.325" stroke="#1D1E1C" stroke-width="0.1" stroke-miterlimit="10"/>
<path opacity="0.9" d="M380.598 556.409C372.552 556.409 355.64 553.18 353.402 536.181C347.496 491.304 362.202 446.107 379.504 446.107C399.946 446.107 415.599 513.191 406.877 538.161C401.087 554.741 388.644 556.409 380.598 556.409Z" fill="#A4D100"/>
<path d="M380.598 585.39V527.785" stroke="#1D1E1C" stroke-width="0.1" stroke-miterlimit="10"/>
</svg>
