<svg width="771" height="645" viewBox="0 0 771 645" fill="none" xmlns="http://www.w3.org/2000/svg">
<path opacity="0.34" d="M296.889 351.043C277.485 376.018 235.307 367.387 237.746 406.922C240.534 452.103 242.47 494.823 274.007 556.179C306.126 618.667 371.313 618.065 421.325 630.805C454.387 639.227 581.848 671.696 626.005 593.492C649.724 551.484 638.699 496.508 636.435 486.218C625.392 436.023 599.11 432.135 551.695 347.849C524.218 299.007 526.765 289.15 508.673 274.779C467.25 241.874 398.79 249.764 379.607 287.216C367.02 311.789 310.727 333.232 296.889 351.043Z" fill="#99C3A6"/>
<path d="M314.611 447.414L506.85 415.365L542.304 490.119L447.958 511.166L338.978 529.884L314.611 447.414Z" fill="#EDB6AB"/>
<path d="M332.414 542.066L565.949 494.982L599.579 566.171L482.006 592.399L362.306 612.96L332.414 542.066Z" fill="#B9C0B2"/>
<path d="M279.854 384.984L342.785 378.591L421.905 372.296L441.757 367.129L493.96 363.756L510.311 405.404L445.923 419.723L298.452 449.62L279.854 384.984Z" fill="#AFCEE1"/>
<path d="M356.034 616.742L268.775 379.302L497.272 357.384L603.676 570.567" stroke="#A9A7A4" stroke-width="6" stroke-miterlimit="10"/>
<path d="M400.482 546.973L402.201 570.568" stroke="#1D1E1C" stroke-width="0.1" stroke-linejoin="round"/>
<path d="M402.201 560.764C406.211 560.546 410.232 560.619 414.232 560.982V570.567" stroke="#1D1E1C" stroke-width="0.1" stroke-linejoin="round"/>
<path d="M461.617 545.927V571.243" stroke="#1D1E1C" stroke-width="0.1" stroke-linejoin="round"/>
<path d="M461.112 561.438C460.13 560.674 449.588 561.438 449.588 561.438V571.242" stroke="#1D1E1C" stroke-width="0.1" stroke-linejoin="round"/>
<path d="M418.404 551.334H441.484" stroke="#1D1E1C" stroke-width="0.1" stroke-linejoin="round"/>
<path d="M429.945 551.772V571.242" stroke="#1D1E1C" stroke-width="0.1" stroke-linejoin="round"/>
<path d="M408.954 540.583C408.954 540.583 410.343 540.191 411.041 535.421C411.789 530.309 418.1 531.735 417.547 535.421C416.995 539.108 414.423 539.223 414.423 539.223C414.423 539.223 412.099 539.626 412 540.283C411.885 541.043 411.073 545.432 413.619 545.56C415.876 545.615 418.129 545.346 420.31 544.761L421.844 542.918C421.844 542.918 424.913 544.577 423.256 545.252C421.599 545.928 413.128 546.666 412.575 548.14C412.023 549.615 414.233 553.855 414.233 553.855C416.729 554.29 419.191 554.906 421.599 555.698C423.072 556.435 423.072 570.568 423.072 570.568H421.599C421.599 570.568 421.967 560.122 418.468 559.569C414.969 559.016 406.499 560.122 406.315 557.91C406.131 555.698 403.675 546.85 406.315 543.716L408.954 540.583Z" fill="#1D1E1C"/>
<path d="M432.42 533.57C432.42 533.57 440.028 544.598 440.397 545.09C441.687 546.035 443.04 546.889 444.448 547.647C444.448 547.647 449.834 547.402 450.202 548.999C450.571 550.597 453.272 554.16 449.589 555.144C445.906 556.127 440.627 557.847 440.627 557.847V571.242H443.328C443.328 571.242 443.082 559.813 444.433 559.445C445.783 559.076 456.464 559.568 457.2 559.445C457.937 559.322 458.919 551.998 458.919 551.998C458.919 551.998 460.638 543.838 458.919 542.854C457.2 541.871 452.29 540.766 452.412 539.782C452.535 538.799 453.721 531.672 449.384 532.04C445.046 532.409 443.328 538.185 445.046 539.045C446.765 539.905 449.589 541.503 449.589 541.503C449.589 541.503 452.78 541.871 452.78 543.469C452.78 545.067 449.466 545.558 448.852 545.927C447.015 546.112 445.164 546.112 443.328 545.927C443.328 545.927 442.591 543.1 442.1 542.977C441.609 542.855 432.42 533.57 432.42 533.57Z" fill="#1D1E1C"/>
<path d="M441.708 444.356C441.708 444.356 440.708 446.485 441.708 447.299C442.709 448.113 445.524 447.925 445.461 452.308C445.399 456.691 442.453 458.256 443.363 458.82C444.273 459.383 445.962 458.444 446.587 459.822C447.213 461.199 444.273 464.098 444.273 464.098L436.267 464.768C436.267 464.768 432.076 464.392 432.826 463.516C433.577 462.639 438.393 460.448 438.518 459.759C438.643 459.07 437.205 458.131 437.205 458.131C437.205 458.131 434.89 452.621 436.83 450.805C438.047 449.8 439.029 448.539 439.705 447.111C439.894 446.548 437.061 442.65 439.705 442.039C442.35 441.429 441.708 444.356 441.708 444.356Z" fill="black"/>
<path d="M451.632 468.719C451.632 468.719 454.259 460.504 450.32 460.297C446.382 460.09 436.904 467.717 435.965 466.872C435.027 466.026 435.215 461.236 431.837 461.142C428.459 461.048 423.956 466.12 424.237 467.529C424.519 468.938 424.284 472.272 428.741 469.689C433.197 467.106 430.148 473.728 430.148 473.728C430.148 473.728 422.924 480.021 428.928 481.429C434.933 482.838 434.605 474.761 436.763 472.272C439.204 469.659 442.159 467.581 445.442 466.167C446.111 466.03 446.808 466.134 447.408 466.461C448.009 466.787 448.475 467.315 448.725 467.952C449.476 470.943 451.632 468.719 451.632 468.719Z" stroke="black" stroke-width="0.1" stroke-miterlimit="10"/>
<path d="M433.032 461.422C432.008 461.063 430.91 460.968 429.839 461.147C428.769 461.327 427.761 461.774 426.909 462.447C425.422 463.881 424.22 465.585 423.367 467.468C423.267 468.159 423.982 470.519 424.459 470.61C425.216 470.792 426.007 470.777 426.756 470.568" stroke="black" stroke-width="0.1" stroke-miterlimit="10"/>
<path d="M430.325 469.1C430.285 470.391 429.971 471.658 429.406 472.819C428.074 474.405 426.914 476.127 425.944 477.958C425.85 478.9 425.756 480.244 426.321 480.551C427.01 480.849 427.718 481.098 428.442 481.295" stroke="black" stroke-width="0.1" stroke-miterlimit="10"/>
<path d="M443.268 467.154C444.452 466.674 445.766 466.62 446.986 467.001C448.327 467.657 448.056 468.912 448.551 469.26C449.029 469.481 449.558 469.568 450.081 469.51" stroke="black" stroke-width="0.1" stroke-miterlimit="10"/>
<path d="M531.429 408.28C531.215 408.602 530.786 409.888 529.609 410.21C528.431 410.531 525.754 409.245 524.041 414.175C522.558 420.091 522.124 426.221 522.757 432.287C523.399 433.037 525.112 418.676 525.647 420.284C526.183 421.891 524.684 437.217 525.326 439.146C525.968 441.075 529.604 455.008 527.733 455.222C525.861 455.437 526.102 456.133 526.102 456.133L528.993 457.58L529.234 449.542C529.234 449.542 529.716 431.993 530.278 432.93C530.8 440.871 530.8 448.836 530.278 456.777C530.078 457.202 530.017 457.679 530.103 458.141C530.19 458.602 530.419 459.025 530.76 459.349C532.039 459.154 533.283 458.775 534.453 458.223C534.453 458.223 534.052 457.018 533.329 457.018C533.112 457.027 532.895 456.992 532.692 456.916C532.488 456.839 532.302 456.723 532.145 456.573C531.987 456.423 531.862 456.242 531.775 456.043C531.689 455.843 531.644 455.628 531.643 455.41C531.643 454.285 533.811 441.585 533.811 441.585H534.453C534.453 441.585 533.65 422.374 535.256 423.419C536.862 424.464 538.709 424.866 538.789 425.83C538.87 426.795 539.432 431.457 539.432 432.18C539.432 432.904 537.264 441.906 537.665 441.987C538.067 442.067 536.22 445.925 536.541 448.256C536.862 450.587 537.826 452.516 537.023 452.677C536.22 452.838 535.417 453.642 535.738 453.923C536.059 454.204 538.629 453.32 538.629 453.32C538.629 453.32 537.705 448.015 538.709 447.734C539.713 447.452 541.72 448.658 541.72 448.658C541.72 448.658 540.315 454.968 540.917 455.45C541.219 455.721 541.598 455.89 542.001 455.933L543.474 448.457C543.474 448.457 545.133 437.043 545.012 436.802C544.892 436.561 547.756 436.039 547.756 436.039L548.452 432.93L553.698 427.357C553.698 427.357 554.983 426.071 555.036 427.625C555.09 429.179 554.126 441.183 554.126 441.183C554.374 441.605 554.572 442.054 554.715 442.523C554.661 442.683 553.966 454.526 553.966 454.526C553.966 454.526 553.537 454.151 552.574 454.847C551.61 455.544 551.985 455.383 551.985 455.383L555.038 456.83L557.231 441.933L558.784 441.987L558.462 459.377L559.587 459.134L561.567 441.29L565.421 440.325L563.655 431.43C564.095 429.324 564.417 427.195 564.619 425.053C564.565 423.821 563.387 417.122 561.995 416.586C560.943 416.135 559.939 415.578 558.998 414.925C558.671 413.427 558.224 411.957 557.659 410.531C556.856 408.656 551.664 410.049 552.574 413.05C553.484 416.051 556.803 415.943 556.107 417.283C555.411 418.623 553.323 418.784 553.323 418.784L552.146 425.696C550.201 427.624 548.411 429.703 546.793 431.912C546.848 432.605 546.848 433.301 546.793 433.994L545.936 434.431L543.923 432.663C543.923 432.663 546.632 429.554 544.812 428.483C542.992 427.411 540.636 426.929 540.636 428.376C540.636 429.822 539.994 429.822 539.994 429.822L539.833 425.589C539.833 425.589 541.493 424.785 540.797 424.089C540.101 423.392 538.013 422.535 537.639 421.892C537.244 421.314 536.796 420.776 536.3 420.284L537.317 419.48C537.317 419.48 536.889 412.246 535.39 411.389C533.891 410.531 537.532 410.103 536.14 407.584C534.748 405.065 533.142 404.208 532.232 404.797C531.322 405.387 531.429 408.28 531.429 408.28Z" fill="black"/>
<path d="M306.844 449.619L506.49 412.33" stroke="#B9B9B8" stroke-width="5" stroke-miterlimit="10"/>
<path d="M298.451 453.124L522.228 409.228" stroke="#A9A7A4" stroke-width="6" stroke-miterlimit="10"/>
<path d="M332.416 536.101L563.818 490.709" stroke="#A9A7A4" stroke-width="6" stroke-miterlimit="10"/>
<path d="M428.146 496.757L428.853 494.753L430.855 492.276C430.855 492.276 430.928 488.151 428.357 487.25C427.595 486.908 426.749 486.799 425.926 486.937C425.102 487.074 424.337 487.452 423.727 488.022C422.179 489.294 423.317 493.22 423.317 493.22L425.084 496.285C423.769 497.188 422.615 498.304 421.668 499.587C420.608 501.279 419.746 504.769 420.608 505.954C421.929 507.03 423.45 507.831 425.084 508.312C426.593 507.776 428.205 507.594 429.796 507.778C432.193 509.62 434.403 511.694 436.391 513.972L437.923 512.439L431.68 505.6L429.265 502.181L432.269 502.063L431.798 499.705L428.382 498.766L428.146 496.757Z" fill="#1D1E1C"/>
<path d="M463.247 459.733V462.327L461.48 463.271L462.089 470.621L463.998 470.738L464.513 476.658L462.658 478.835L462.423 485.358H464.307L465.132 480.014L467.824 477.723L468.374 486.89H470.259L471.139 475.415C471.56 473.195 471.56 470.915 471.139 468.694C470.376 465.64 469.392 462.645 468.194 459.733L469.843 456.196L470.13 453.102C470.13 453.102 468.77 450.632 466.7 450.89C464.631 451.149 461.97 452.687 461.911 454.345C462.123 456.191 462.572 458.002 463.247 459.733Z" fill="#1D1E1C"/>
<path d="M384.109 466.587C380.527 466.887 375.727 466.084 375.418 464.279C375.148 462.702 378.417 461.009 378.788 460.817C381.084 459.704 383.718 459.514 386.15 460.284C387.866 460.792 391.152 462.234 391.027 463.746C390.89 465.421 386.636 466.376 384.109 466.587Z" stroke="#1D1E1C" stroke-width="0.1" stroke-linejoin="round"/>
<path d="M329.938 480.981L341.557 437.118L350.981 490.414" stroke="#1D1E1C" stroke-width="0.1" stroke-linejoin="round"/>
<path d="M367.945 457.712L382.55 416.365L395.584 470.289" stroke="#1D1E1C" stroke-width="0.1" stroke-linejoin="round"/>
<path d="M341.559 437.118L382.549 416.366" stroke="#1D1E1C" stroke-width="0.1" stroke-miterlimit="10"/>
<path d="M356.035 429.79L375.404 463.953" stroke="#1D1E1C" stroke-width="0.1" stroke-linejoin="round"/>
<path d="M366.574 424.873L381.259 445.952" stroke="#1D1E1C" stroke-width="0.1" stroke-linejoin="round"/>
<path d="M379.88 448.594L381.764 443.328C382.984 442.245 384.534 441.608 386.162 441.52C386.87 441.538 387.553 441.789 388.106 442.233C388.659 442.676 389.052 443.289 389.224 443.977L388.551 447.501L385.796 448.787L385.811 452.471L396.174 458.577L405.008 460.582L411.251 459.928V461.879L406.815 463.219L396.796 461.712L402.181 467.892H404.775L406.186 470.29H400.962C398.62 467.977 396.467 465.48 394.525 462.822C393.867 461.26 387.612 462.428 387.612 462.428C387.612 462.428 381.742 461.388 380.12 459.307C378.498 457.226 379.88 451.385 379.88 451.385L367.526 451.202L367.062 449.645L379.88 448.594Z" fill="#1D1E1C"/>
<path d="M417.779 509.255L467.958 468.105L472.67 470.464L423.553 511.195L417.779 509.255Z" stroke="#1D1E1C" stroke-width="0.05" stroke-miterlimit="10"/>
<path d="M447.229 502.77L447.936 492.511L454.414 498.767" stroke="#1D1E1C" stroke-width="0.1" stroke-miterlimit="10"/>
<path d="M435.098 493.102L436.629 486.067L447.936 492.512" stroke="#1D1E1C" stroke-width="0.1" stroke-miterlimit="10"/>
<path d="M501.99 523.682V518.472C502.097 517.853 502.349 517.267 502.726 516.764C503.103 516.261 503.594 515.854 504.158 515.578C506.083 514.662 507.499 516.479 508.206 517.459C508.913 518.439 507.339 522.524 507.339 522.524L504.303 524.695L516.879 529.325L514.711 530.627L505.893 528.457C505.893 528.457 507.444 533.838 506.038 536.126C504.632 538.414 498.148 539.468 497.798 540.757C497.621 544.179 497.621 547.608 497.798 551.031L495.634 550.254L494.039 540.323C493.695 540.463 493.401 540.704 493.195 541.014C492.989 541.323 492.88 541.687 492.883 542.059L493.75 551.031L491.28 550.181C491.28 550.181 489.066 539.94 489.992 538.442C492.035 536.673 494.323 535.211 496.786 534.1L497.085 531.768L498.232 530.049L498.954 525.274L501.99 523.682Z" fill="#1D1E1C"/>
<path d="M510.581 534.492H515.37L516.35 533.675L517.384 533.304L518.636 530.025C518.636 530.025 520.45 528.063 521.683 528.063C522.917 528.063 523.86 530.787 523.86 530.787L523.425 532.531L520.377 534.492L520.704 536.78L520.377 541.574H519.289L519.071 539.94L515.697 543.535L510.582 545.823L510.037 545.169L514.065 541.247L508.84 544.08L507.316 543.644C509.473 542.293 511.512 540.762 513.412 539.068C513.784 538.417 514.007 537.691 514.065 536.943L510.456 535.307L510.581 534.492Z" fill="#1D1E1C"/>
<path d="M486.094 537.687L523.86 552.47L533.547 545.822L496.325 531.658L486.094 537.687Z" stroke="#1D1E1C" stroke-width="0.05" stroke-linejoin="round"/>
<path d="M534.531 533.62L496.979 521.634L496.326 531.657L533.549 545.822L534.531 533.62Z" stroke="#1D1E1C" stroke-width="0.05" stroke-linejoin="round"/>
<path d="M522.229 551.998V560.531L523.86 561.405L525.168 559.769V551.78" stroke="#1D1E1C" stroke-width="0.05" stroke-miterlimit="10"/>
<path d="M530.633 547.825V556.427L531.915 556.937L533.003 554.757V546.332" stroke="#1D1E1C" stroke-width="0.05" stroke-miterlimit="10"/>
<path d="M488.377 538.469V545.114L489.765 545.822L490.773 545.114V539.286" stroke="#1D1E1C" stroke-width="0.05" stroke-miterlimit="10"/>
<path d="M406.456 393.228C406.174 393.183 405.886 393.205 405.614 393.292C405.343 393.38 405.096 393.531 404.894 393.732C404.691 393.933 404.539 394.179 404.45 394.451C404.361 394.722 404.337 395.01 404.38 395.293C404.38 397.185 406.179 400.111 404.38 400.627C402.581 401.143 396.905 403.38 394.414 401.315C393.158 400.193 391.702 399.317 390.123 398.734V399.939L398.982 405.445C400.089 406.133 402.304 406.477 401.888 408.886C401.208 411.87 400.745 414.9 400.504 417.951C400.504 420.587 400.735 432.575 400.366 433.148C399.997 433.722 397.505 433.607 397.413 434.639H401.565L402.765 416.285H403.965L403.78 434.639H406.871C406.815 434.342 406.674 434.068 406.465 433.849C406.256 433.63 405.989 433.476 405.695 433.406L404.657 433.148L407.771 406.133L417.267 398.223L416.906 397.53C416.906 397.53 407.771 402.778 406.941 401.401C406.11 400.025 408.948 396.669 408.186 395.207C407.805 394.398 407.206 393.713 406.456 393.228Z" fill="black"/>
<path d="M428.998 386.587H429.948L439.303 373.113" fill="#AFCEE1"/>
<rect x="0.538997" y="0.457681" width="421.999" height="285.071" transform="matrix(0.996688 -0.0813266 0.0813072 0.996689 93.5974 78.3759)" fill="white" stroke="black"/>
<path d="M106.133 538.366L10.9077 314.475L2.05078 56.5921L620.997 1.91162L662.78 55.9588L612.51 214.719L508.428 63.6127L184.746 95.0163L266.683 244.647L272.216 522.849L106.133 538.366Z" fill="white" stroke="#020202" stroke-width="3" stroke-miterlimit="10"/>
<path d="M2.05078 56.5923L99.4886 263.488L106.133 538.366" stroke="#020202" stroke-width="3" stroke-miterlimit="10"/>
<path d="M99.4863 263.488L266.68 244.646" stroke="#020202" stroke-width="3" stroke-miterlimit="10"/>
<path d="M268.775 349.922L511.382 329.992L609.556 489.598L769.001 471.863V196.987L661.269 54.0049" fill="white"/>
<path d="M268.775 349.922L511.382 329.992L609.556 489.598L769.001 471.863V196.987L661.269 54.0049" stroke="#020202" stroke-width="3" stroke-miterlimit="10"/>
<path d="M511.383 329.992V67.0112L612.511 214.719L609.556 489.597L511.383 329.992Z" fill="white" stroke="#020202" stroke-width="3" stroke-miterlimit="10"/>
<path d="M612.508 214.72L768.998 196.986" stroke="#020202" stroke-width="3" stroke-miterlimit="10"/>
<path d="M306.843 379.302C322.923 379.302 335.958 362.215 335.958 341.137C335.958 320.058 322.923 302.971 306.843 302.971C290.764 302.971 277.729 320.058 277.729 341.137C277.729 362.215 290.764 379.302 306.843 379.302Z" fill="#C8FF29"/>
<path d="M290.076 344.455L306.844 354.49" stroke="#1D1E1C" stroke-width="0.1" stroke-miterlimit="10"/>
<path d="M328.307 344.455L306.844 365.671" stroke="#1D1E1C" stroke-width="0.1" stroke-miterlimit="10"/>
<path d="M306.844 412.834V331.759" stroke="#1D1E1C" stroke-width="0.1" stroke-miterlimit="10"/>
<path opacity="0.9" d="M476.925 510.622C495.376 510.622 510.334 491.015 510.334 466.828C510.334 442.64 495.376 423.033 476.925 423.033C458.473 423.033 443.516 442.64 443.516 466.828C443.516 491.015 458.473 510.622 476.925 510.622Z" fill="#C8FF29"/>
<path d="M457.684 470.636L476.925 482.15" stroke="#1D1E1C" stroke-width="0.1" stroke-miterlimit="10"/>
<path d="M501.552 470.636L476.924 494.982" stroke="#1D1E1C" stroke-width="0.1" stroke-miterlimit="10"/>
<path d="M476.924 549.101V456.067" stroke="#1D1E1C" stroke-width="0.1" stroke-miterlimit="10"/>
<path opacity="0.95" d="M356.379 537.843C369.05 537.843 379.322 524.378 379.322 507.768C379.322 491.158 369.05 477.693 356.379 477.693C343.708 477.693 333.436 491.158 333.436 507.768C333.436 524.378 343.708 537.843 356.379 537.843Z" fill="#C8FF29"/>
<path d="M343.166 510.383L356.38 518.291" stroke="#1D1E1C" stroke-width="0.1" stroke-miterlimit="10"/>
<path d="M373.292 510.383L356.379 527.102" stroke="#1D1E1C" stroke-width="0.1" stroke-miterlimit="10"/>
<path d="M356.379 564.267V500.378" stroke="#1D1E1C" stroke-width="0.1" stroke-miterlimit="10"/>
<path d="M486.524 357.41C504.936 357.41 519.862 337.844 519.862 313.708C519.862 289.572 504.936 270.006 486.524 270.006C468.112 270.006 453.186 289.572 453.186 313.708C453.186 337.844 468.112 357.41 486.524 357.41Z" fill="#C8FF29"/>
<path d="M467.324 317.509L486.525 328.999" stroke="#1D1E1C" stroke-width="0.1" stroke-miterlimit="10"/>
<path d="M511.1 317.509L486.523 341.803" stroke="#1D1E1C" stroke-width="0.1" stroke-miterlimit="10"/>
<path d="M486.523 395.807V302.971" stroke="#1D1E1C" stroke-width="0.1" stroke-miterlimit="10"/>
<path opacity="0.9" d="M329.58 483.475C341.278 483.475 350.762 471.044 350.762 455.709C350.762 440.375 341.278 427.943 329.58 427.943C317.882 427.943 308.398 440.375 308.398 455.709C308.398 471.044 317.882 483.475 329.58 483.475Z" fill="#C8FF29"/>
<path d="M317.381 458.124L329.58 465.424" stroke="#1D1E1C" stroke-width="0.1" stroke-miterlimit="10"/>
<path d="M345.195 458.124L329.58 473.559" stroke="#1D1E1C" stroke-width="0.1" stroke-miterlimit="10"/>
<path d="M329.58 507.871V448.887" stroke="#1D1E1C" stroke-width="0.1" stroke-miterlimit="10"/>
<path d="M316.313 390.326L316.927 403.818C316.927 403.818 317.376 404.68 317.982 404.798C318.588 404.916 317.982 401.782 317.982 401.782C318.017 400.872 318.221 399.977 318.584 399.142C319.212 397.591 321.824 399.142 321.824 399.142L322.39 400.009L322.954 398.69L324.849 394.775L325.828 395.831C325.828 395.831 322.351 404.421 322.125 404.798C321.338 406.435 320.841 408.195 320.656 410.002L319.715 429.309H318.509L318.66 415.206L317.831 415.281L315.797 427.197L314.611 426.519L315.438 419.957L315.872 411.586L315.269 404.798L314.957 389.496L316.313 390.326Z" fill="#1D1E1C"/>
<path d="M369.195 385.207C369.179 384.45 369.036 383.702 368.772 382.992C368.647 382.661 368.595 382.308 368.618 381.955C368.641 381.602 368.739 381.259 368.906 380.947C369.072 380.635 369.303 380.363 369.583 380.147C369.864 379.932 370.186 379.779 370.53 379.699C371.82 379.678 373.104 379.87 374.331 380.267L374.898 383.787L372.743 386.115V387.422C372.743 387.422 374.63 387.951 375.026 388.623C375.406 389.764 375.668 390.94 375.806 392.135L376.487 395.797L387.548 403.548V405.195L382.216 402.015L375.162 397.896L374.921 398.407L381.025 403.605L383.209 405.689L382.529 406.767L371.438 399.914L368.658 397.87L366.843 393.233C366.379 392.203 366.092 391.102 365.992 389.977C366.001 389.099 366.096 388.224 366.276 387.365L369.195 385.207Z" fill="#1D1E1C"/>
<path d="M311.25 420.761V386.976L328.93 396.828V433.028" stroke="#1D1E1C" stroke-width="0.1" stroke-miterlimit="10"/>
<path d="M360.355 407.832V392.848L375.424 400.338V415.875" stroke="#1D1E1C" stroke-width="0.1" stroke-miterlimit="10"/>
<path d="M385.066 415.875V398.579L369.195 390.736V402.402" stroke="#1D1E1C" stroke-width="0.1" stroke-miterlimit="10"/>
<path d="M338.977 413.998V404.361L358.872 415.686V426.366" stroke="#1D1E1C" stroke-width="0.1" stroke-miterlimit="10"/>
<path d="M401.166 372.87C391.258 372.87 370.433 368.474 367.678 345.329C360.405 284.226 378.514 222.688 399.819 222.688C424.99 222.688 444.264 314.026 433.526 348.025C426.395 370.599 411.073 372.87 401.166 372.87Z" fill="#9AC400"/>
<path d="M401.166 412.33V333.897" stroke="#1D1E1C" stroke-width="0.1" stroke-miterlimit="10"/>
<path opacity="0.9" d="M345.555 425.223C340.866 425.223 331.009 423.34 329.706 413.427C326.263 387.255 334.834 360.897 344.918 360.897C356.831 360.897 365.953 400.019 360.871 414.581C359.951 417.86 357.919 420.716 355.124 422.658C352.329 424.6 348.945 425.507 345.555 425.223Z" fill="#A4D0B6"/>
<path d="M345.555 442.124V408.53" stroke="#1D1E1C" stroke-width="0.1" stroke-miterlimit="10"/>
<path opacity="0.9" d="M510.308 422.672C506.007 422.672 496.965 420.945 495.769 411.85C492.611 387.842 500.473 363.662 509.724 363.662C520.653 363.662 529.021 399.551 524.359 412.91C523.515 415.918 521.65 418.537 519.086 420.319C516.522 422.1 513.419 422.932 510.308 422.672Z" fill="#A4D0B6"/>
<path d="M510.309 438.177V407.359" stroke="#1D1E1C" stroke-width="0.1" stroke-miterlimit="10"/>
<path opacity="0.9" d="M556.448 529.885C549.797 529.885 535.818 527.214 533.969 513.154C529.087 476.035 541.243 438.651 555.544 438.651C572.441 438.651 585.38 494.138 578.171 514.792C573.385 528.505 563.099 529.885 556.448 529.885Z" fill="#9AC400"/>
<path d="M556.447 553.857V506.209" stroke="#1D1E1C" stroke-width="0.1" stroke-miterlimit="10"/>
<path opacity="0.9" d="M371.522 354.94C363.186 354.94 345.664 351.593 343.347 333.97C337.227 287.446 352.464 240.59 370.388 240.59C391.567 240.59 407.783 310.135 398.748 336.023C392.749 353.211 379.858 354.94 371.522 354.94Z" fill="#9AC400"/>
<path d="M371.521 384.985V325.266" stroke="#1D1E1C" stroke-width="0.1" stroke-miterlimit="10"/>
</svg>
