<svg width="72" height="72" viewBox="0 0 72 72" fill="none" xmlns="http://www.w3.org/2000/svg">
<path d="M39.9 36.66C41.5007 35.2744 42.7847 33.5607 43.6646 31.6351C44.5446 29.7095 45 27.6171 45 25.5C45 21.5218 43.4196 17.7064 40.6066 14.8934C37.7936 12.0804 33.9782 10.5 30 10.5C26.0218 10.5 22.2064 12.0804 19.3934 14.8934C16.5804 17.7064 15 21.5218 15 25.5C15 27.6171 15.4554 29.7095 16.3354 31.6351C17.2153 33.5607 18.4993 35.2744 20.1 36.66C15.9004 38.5617 12.3374 41.6326 9.83694 45.5056C7.33649 49.3787 6.00442 53.8899 6 58.5C6 59.2956 6.31607 60.0587 6.87868 60.6213C7.44129 61.1839 8.20435 61.5 9 61.5C9.79565 61.5 10.5587 61.1839 11.1213 60.6213C11.6839 60.0587 12 59.2956 12 58.5C12 53.7261 13.8964 49.1477 17.2721 45.7721C20.6477 42.3964 25.2261 40.5 30 40.5C34.7739 40.5 39.3523 42.3964 42.7279 45.7721C46.1036 49.1477 48 53.7261 48 58.5C48 59.2956 48.3161 60.0587 48.8787 60.6213C49.4413 61.1839 50.2044 61.5 51 61.5C51.7956 61.5 52.5587 61.1839 53.1213 60.6213C53.6839 60.0587 54 59.2956 54 58.5C53.9956 53.8899 52.6635 49.3787 50.1631 45.5056C47.6626 41.6326 44.0996 38.5617 39.9 36.66ZM30 34.5C28.22 34.5 26.4799 33.9722 24.9999 32.9832C23.5198 31.9943 22.3663 30.5887 21.6851 28.9442C21.0039 27.2996 20.8257 25.49 21.1729 23.7442C21.5202 21.9984 22.3774 20.3947 23.636 19.136C24.8947 17.8774 26.4984 17.0202 28.2442 16.6729C29.99 16.3257 31.7996 16.5039 33.4442 17.1851C35.0887 17.8663 36.4943 19.0198 37.4832 20.4999C38.4722 21.9799 39 23.72 39 25.5C39 27.8869 38.0518 30.1761 36.364 31.864C34.6761 33.5518 32.3869 34.5 30 34.5ZM65.13 27.39C64.8511 27.1088 64.5193 26.8856 64.1537 26.7333C63.7882 26.581 63.396 26.5026 63 26.5026C62.604 26.5026 62.2118 26.581 61.8463 26.7333C61.4807 26.8856 61.1489 27.1088 60.87 27.39L54.87 33.39L53.01 31.5C52.7311 31.2188 52.3993 30.9956 52.0337 30.8433C51.6681 30.691 51.276 30.6126 50.88 30.6126C50.484 30.6126 50.0919 30.691 49.7263 30.8433C49.3607 30.9956 49.0289 31.2188 48.75 31.5C48.1912 32.0621 47.8776 32.8224 47.8776 33.615C47.8776 34.4076 48.1912 35.1679 48.75 35.73L52.77 39.75C53.3321 40.3088 54.0924 40.6224 54.885 40.6224C55.6776 40.6224 56.4379 40.3088 57 39.75L65.01 31.74C65.3129 31.468 65.5572 31.1371 65.7282 30.7676C65.8991 30.3981 65.993 29.9977 66.0043 29.5908C66.0155 29.1838 65.9438 28.7788 65.7935 28.4005C65.6432 28.0221 65.4174 27.6783 65.13 27.39Z" fill="#02001A"/>
</svg>
