<svg width="72" height="72" viewBox="0 0 72 72" fill="none" xmlns="http://www.w3.org/2000/svg">
<path d="M21 48C22.1935 48 23.3381 47.5259 24.182 46.682C25.0259 45.8381 25.5 44.6935 25.5 43.5C25.5146 43.3504 25.5146 43.1996 25.5 43.05L33.87 34.68H34.56H35.25L40.08 39.51C40.08 39.51 40.08 39.66 40.08 39.75C40.08 40.9435 40.5541 42.0881 41.398 42.932C42.2419 43.7759 43.3865 44.25 44.58 44.25C45.7735 44.25 46.9181 43.7759 47.762 42.932C48.6059 42.0881 49.08 40.9435 49.08 39.75V39.51L60 28.5C60.89 28.5 61.76 28.2361 62.5001 27.7416C63.2401 27.2471 63.8169 26.5443 64.1575 25.7221C64.498 24.8998 64.5872 23.995 64.4135 23.1221C64.2399 22.2492 63.8113 21.4474 63.182 20.818C62.5526 20.1887 61.7508 19.7601 60.8779 19.5865C60.005 19.4128 59.1002 19.5019 58.2779 19.8425C57.4557 20.1831 56.7529 20.7599 56.2584 21.4999C55.7639 22.24 55.5 23.11 55.5 24C55.4854 24.1496 55.4854 24.3004 55.5 24.45L44.67 35.28H44.19L39 30C39 28.8065 38.5259 27.6619 37.682 26.818C36.8381 25.9741 35.6935 25.5 34.5 25.5C33.3065 25.5 32.1619 25.9741 31.318 26.818C30.4741 27.6619 30 28.8065 30 30L21 39C19.8065 39 18.6619 39.4741 17.818 40.318C16.9741 41.1619 16.5 42.3065 16.5 43.5C16.5 44.6935 16.9741 45.8381 17.818 46.682C18.6619 47.5259 19.8065 48 21 48ZM61.5 60H10.5V9C10.5 8.20435 10.1839 7.44129 9.62132 6.87868C9.05871 6.31607 8.29565 6 7.5 6C6.70435 6 5.94129 6.31607 5.37868 6.87868C4.81607 7.44129 4.5 8.20435 4.5 9V63C4.5 63.7956 4.81607 64.5587 5.37868 65.1213C5.94129 65.6839 6.70435 66 7.5 66H61.5C62.2956 66 63.0587 65.6839 63.6213 65.1213C64.1839 64.5587 64.5 63.7956 64.5 63C64.5 62.2044 64.1839 61.4413 63.6213 60.8787C63.0587 60.3161 62.2956 60 61.5 60Z" fill="#02001A"/>
</svg>
