<svg width="72" height="72" viewBox="0 0 72 72" fill="none" xmlns="http://www.w3.org/2000/svg">
<path d="M51.2698 8.46002C48.5107 6.19078 45.2798 4.56611 41.8128 3.70455C38.3458 2.843 34.7302 2.76629 31.2298 3.48002C26.569 4.42149 22.2928 6.72624 18.9439 10.1019C15.595 13.4775 13.3242 17.7718 12.4198 22.44C11.7594 25.9402 11.8794 29.543 12.7713 32.9914C13.6632 36.4399 15.3051 39.649 17.5798 42.39C19.6909 44.7722 20.9009 47.8186 20.9998 51V60C20.9998 62.387 21.948 64.6762 23.6359 66.364C25.3237 68.0518 27.6129 69 29.9998 69H41.9998C44.3868 69 46.676 68.0518 48.3638 66.364C50.0516 64.6762 50.9998 62.387 50.9998 60V51.57C51.1005 48.0575 52.391 44.6833 54.6598 42C58.6352 37.0824 60.5091 30.7945 59.8743 24.5029C59.2396 18.2113 56.1474 12.4245 51.2698 8.40002V8.46002ZM44.9998 60C44.9998 60.7957 44.6838 61.5587 44.1211 62.1213C43.5585 62.684 42.7955 63 41.9998 63H29.9998C29.2042 63 28.4411 62.684 27.8785 62.1213C27.3159 61.5587 26.9998 60.7957 26.9998 60V57H44.9998V60ZM50.0098 38.28C46.9933 41.8578 45.2334 46.3261 44.9998 51H38.9998V42C38.9998 41.2044 38.6838 40.4413 38.1211 39.8787C37.5585 39.3161 36.7955 39 35.9998 39C35.2042 39 34.4411 39.3161 33.8785 39.8787C33.3159 40.4413 32.9998 41.2044 32.9998 42V51H26.9998C26.9207 46.4043 25.2207 41.9843 22.1998 38.52C20.2068 36.132 18.8665 33.2683 18.3098 30.2081C17.753 27.1478 17.9988 23.9956 19.0231 21.0586C20.0474 18.1217 21.8153 15.5003 24.1544 13.45C26.4935 11.3997 29.324 9.99062 32.3698 9.36002C34.9875 8.82105 37.6923 8.87175 40.2879 9.50843C42.8836 10.1451 45.3048 11.3518 47.376 13.0409C49.4471 14.73 51.1161 16.8591 52.2619 19.2736C53.4076 21.6881 54.0013 24.3275 53.9998 27C54.022 31.1096 52.6111 35.0984 50.0098 38.28Z" fill="#02001A"/>
</svg>
