<svg width="72" height="72" viewBox="0 0 72 72" fill="none" xmlns="http://www.w3.org/2000/svg">
<path d="M20.9751 43.506C20.5811 43.5059 20.191 43.5834 19.8269 43.7342C19.4629 43.8849 19.1322 44.1059 18.8536 44.3845C18.575 44.6631 18.354 44.9938 18.2033 45.3578C18.0525 45.7219 17.975 46.112 17.9751 46.506V51.8529C14.1083 47.4798 11.9742 41.8435 11.9751 36.006C11.9746 35.1238 12.0274 34.2423 12.1333 33.3664C12.1819 32.9747 12.1527 32.5773 12.0474 32.1969C11.9421 31.8165 11.7627 31.4607 11.5197 31.1497C11.2766 30.8388 10.9745 30.5789 10.6308 30.3849C10.2871 30.1909 9.90851 30.0666 9.51669 30.0192C9.12487 29.9718 8.72754 30.0022 8.34748 30.1086C7.96742 30.215 7.61209 30.3954 7.30187 30.6394C6.99165 30.8834 6.73262 31.1862 6.53964 31.5305C6.34665 31.8747 6.22351 32.2537 6.17725 32.6457C6.04136 33.7606 5.97386 34.8828 5.97511 36.006C5.97919 43.1645 8.55198 50.0838 13.2257 55.506H8.97511C8.17946 55.506 7.4164 55.8221 6.85379 56.3847C6.29118 56.9473 5.97511 57.7104 5.97511 58.506C5.97511 59.3017 6.29118 60.0647 6.85379 60.6273C7.4164 61.1899 8.17946 61.506 8.97511 61.506H20.9751C21.4443 61.5001 21.9053 61.3822 22.3197 61.1621C22.7341 60.942 23.0899 60.626 23.3575 60.2406C23.3925 60.1944 23.4372 60.1602 23.4697 60.1116C23.4897 60.0817 23.4903 60.0464 23.5089 60.016C23.6519 59.7745 23.759 59.5134 23.8269 59.2411C23.8713 59.0881 23.9029 58.9317 23.9212 58.7734C23.9298 58.6808 23.9752 58.601 23.9752 58.5061V46.5061C23.9753 46.1121 23.8978 45.7219 23.7471 45.3579C23.5963 44.9938 23.3754 44.6631 23.0968 44.3845C22.8181 44.1059 22.4874 43.8849 22.1233 43.7342C21.7593 43.5834 21.3691 43.5059 20.9751 43.506ZM25.4751 18.006H20.1277C24.5011 14.1393 30.1375 12.0053 35.9751 12.006C36.8569 12.0039 37.738 12.0567 38.6133 12.1642C39.0046 12.2118 39.4014 12.1817 39.781 12.0759C40.1607 11.9701 40.5158 11.7905 40.8261 11.5474C41.1363 11.3043 41.3957 11.0025 41.5893 10.6592C41.783 10.3159 41.9071 9.93783 41.9546 9.54656C42.0021 9.15529 41.9721 8.75849 41.8663 8.37882C41.7604 7.99914 41.5808 7.64404 41.3378 7.33377C41.0947 7.0235 40.7929 6.76414 40.4496 6.57051C40.1063 6.37688 39.7282 6.25276 39.3369 6.20525C38.2214 6.07067 37.0987 6.00414 35.9751 6.00602C28.8167 6.00991 21.8974 8.58251 16.4751 13.2561V9.00602C16.4751 8.21037 16.159 7.44731 15.5964 6.8847C15.0338 6.32209 14.2708 6.00602 13.4751 6.00602C12.6795 6.00602 11.9164 6.32209 11.3538 6.8847C10.7912 7.44731 10.4751 8.21037 10.4751 9.00602V21.006C10.494 21.2043 10.5335 21.4001 10.593 21.5901L10.5938 21.5938C10.6666 21.963 10.8104 22.3145 11.0173 22.6288L11.0515 22.6795C11.2498 22.9678 11.4982 23.2181 11.785 23.4185C11.8178 23.4425 11.8341 23.4793 11.8682 23.5022C11.911 23.5306 11.9595 23.5396 12.0033 23.5656C12.1735 23.6679 12.3537 23.7524 12.5413 23.8176C12.7947 23.9057 13.059 23.9591 13.3268 23.9761C13.3788 23.9789 13.4226 24.0061 13.4751 24.0061H25.4751C26.2708 24.0061 27.0338 23.69 27.5964 23.1274C28.159 22.5648 28.4751 21.8018 28.4751 21.0061C28.4751 20.2105 28.159 19.4474 27.5964 18.8848C27.0338 18.3222 26.2708 18.006 25.4751 18.006ZM61.3565 50.4183C61.2837 50.049 61.1398 49.6974 60.9327 49.383L60.8989 49.3326C60.7005 49.0442 60.4519 48.7937 60.1648 48.5933C60.132 48.5695 60.1159 48.5325 60.082 48.5098C60.0496 48.4884 60.0112 48.4876 59.9782 48.4675C59.5977 48.2559 59.1807 48.1181 58.749 48.0612C58.6542 48.0522 58.5723 48.0059 58.4751 48.0059H46.4751C45.6795 48.0059 44.9164 48.3219 44.3538 48.8845C43.7912 49.4472 43.4751 50.2102 43.4751 51.0059C43.4751 51.8015 43.7912 52.5646 44.3538 53.1272C44.9164 53.6898 45.6795 54.0059 46.4751 54.0059H51.8223C47.449 57.8726 41.8127 60.0066 35.9751 60.0059C35.0932 60.007 34.2121 59.9532 33.3369 59.8447C32.5467 59.7488 31.7507 59.9707 31.1241 60.4616C30.4975 60.9525 30.0916 61.6722 29.9956 62.4624C29.8996 63.2526 30.1215 64.0486 30.6124 64.6752C31.1033 65.3018 31.8231 65.7078 32.6133 65.8037C33.7288 65.9383 34.8515 66.0058 35.9751 66.0059C43.1335 66.002 50.0529 63.4294 55.4751 58.7558V63.006C55.4751 63.8017 55.7912 64.5647 56.3538 65.1273C56.9164 65.6899 57.6795 66.006 58.4751 66.006C59.2708 66.006 60.0338 65.6899 60.5964 65.1273C61.159 64.5647 61.4751 63.8017 61.4751 63.006V51.006C61.4562 50.8077 61.4167 50.612 61.3572 50.4219L61.3565 50.4183ZM62.9751 16.506C63.7708 16.506 64.5338 16.1899 65.0964 15.6273C65.659 15.0647 65.9751 14.3017 65.9751 13.506C65.9751 12.7104 65.659 11.9473 65.0964 11.3847C64.5338 10.8221 63.7708 10.506 62.9751 10.506H50.9751C50.7798 10.5248 50.587 10.5638 50.3996 10.6221L50.3796 10.6261C50.0153 10.699 49.6683 10.8411 49.3575 11.0447L49.2988 11.0844C49.0118 11.2824 48.7626 11.5301 48.5629 11.8158C48.5393 11.8482 48.5029 11.8641 48.4805 11.8976C48.4591 11.9298 48.4583 11.9679 48.4382 12.0007C48.2241 12.3835 48.0852 12.8037 48.0291 13.2387C48.0205 13.3314 47.9751 13.4112 47.9751 13.506V25.506C47.9751 26.3017 48.2912 27.0647 48.8538 27.6273C49.4164 28.1899 50.1795 28.506 50.9751 28.506C51.7708 28.506 52.5338 28.1899 53.0964 27.6273C53.659 27.0647 53.9751 26.3017 53.9751 25.506V20.1574C57.8417 24.5313 59.9756 30.168 59.9751 36.0059C59.9757 36.8881 59.9228 37.7696 59.8169 38.6455C59.7218 39.4352 59.9439 40.2303 60.4344 40.8565C60.9248 41.4826 61.6437 41.8886 62.4331 41.9854C62.5547 41.9995 62.677 42.0063 62.7993 42.0059C63.5318 42.0049 64.2387 41.7359 64.7865 41.2497C65.3343 40.7634 65.6852 40.0934 65.773 39.3662C65.9089 38.2513 65.9764 37.1292 65.9751 36.006C65.971 28.8475 63.3981 21.9281 58.7241 16.506H62.9751Z" fill="#02001A"/>
</svg>
