<svg width="72" height="72" viewBox="0 0 72 72" fill="none" xmlns="http://www.w3.org/2000/svg">
<path d="M53.9995 30C56.3729 30 58.693 29.2962 60.6664 27.9776C62.6398 26.6591 64.1778 24.7849 65.0861 22.5922C65.9943 20.3995 66.232 17.9867 65.769 15.6589C65.3059 13.3311 64.163 11.193 62.4848 9.51472C60.8066 7.83649 58.6684 6.6936 56.3406 6.23058C54.0128 5.76756 51.6 6.0052 49.4073 6.91345C47.2146 7.8217 45.3405 9.35977 44.0219 11.3332C42.7033 13.3066 41.9995 15.6266 41.9995 18C41.9995 21.1826 43.2638 24.2349 45.5143 26.4853C47.7647 28.7357 50.8169 30 53.9995 30ZM53.9995 12C55.1862 12 56.3463 12.3519 57.333 13.0112C58.3196 13.6705 59.0887 14.6075 59.5428 15.7039C59.9969 16.8003 60.1158 18.0067 59.8842 19.1705C59.6527 20.3344 59.0813 21.4035 58.2422 22.2426C57.4031 23.0818 56.334 23.6532 55.1701 23.8847C54.0062 24.1162 52.7998 23.9974 51.7034 23.5433C50.6071 23.0892 49.67 22.3201 49.0107 21.3334C48.3514 20.3467 47.9995 19.1867 47.9995 18C47.9995 16.4087 48.6317 14.8826 49.7569 13.7574C50.8821 12.6321 52.4082 12 53.9995 12ZM50.5495 37.41C50.2805 36.9759 49.9051 36.6176 49.4588 36.3692C49.0126 36.1207 48.5103 35.9904 47.9995 35.9904C47.4888 35.9904 46.9865 36.1207 46.5403 36.3692C46.094 36.6176 45.7186 36.9759 45.4495 37.41L42.4495 42.3L32.5795 25.5C32.3139 25.0523 31.9364 24.6815 31.484 24.4239C31.0317 24.1663 30.5201 24.0309 29.9995 24.0309C29.479 24.0309 28.9674 24.1663 28.5151 24.4239C28.0627 24.6815 27.6852 25.0523 27.4195 25.5L6.41953 61.5C6.15698 61.9547 6.01838 62.4704 6.01758 62.9955C6.01678 63.5206 6.15382 64.0367 6.41499 64.4922C6.67616 64.9477 7.05231 65.3267 7.50586 65.5913C7.95941 65.8559 8.47446 65.9968 8.99953 66H62.9995C63.5356 66.0011 64.0621 65.8585 64.5243 65.5871C64.9866 65.3158 65.3677 64.9255 65.628 64.4569C65.8883 63.9884 66.0184 63.4586 66.0045 62.9228C65.9907 62.3869 65.8336 61.8646 65.5495 61.41L50.5495 37.41ZM31.3495 60H14.2195L29.9995 33L38.8195 48L35.0695 54L31.3495 60ZM38.3995 60L42.8695 52.89L44.9995 49.71L47.9995 44.67L57.5995 60H38.3995Z" fill="#02001A"/>
</svg>
