<svg width="72" height="72" viewBox="0 0 72 72" fill="none" xmlns="http://www.w3.org/2000/svg">
<path d="M49.5 15C46.8586 14.9979 44.2663 15.7134 42 17.07C40.3568 13.2984 37.4712 10.2035 33.8236 8.30059C30.1761 6.39773 25.9868 5.80179 21.9533 6.61199C17.9198 7.4222 14.2856 9.58965 11.6558 12.7534C9.02597 15.9172 7.5593 19.8864 7.5 24V36C7.50431 40.2507 9.01274 44.3626 11.7582 47.6077C14.5036 50.8528 18.3088 53.0216 22.5 53.73V63C22.5 63.7957 22.8161 64.5587 23.3787 65.1214C23.9413 65.684 24.7044 66 25.5 66C26.2956 66 27.0587 65.684 27.6213 65.1214C28.1839 64.5587 28.5 63.7957 28.5 63V53.73C31.5562 53.1997 34.4266 51.8987 36.84 49.95C37.9111 51.669 39.3191 53.1533 40.9794 54.3134C42.6396 55.4735 44.5175 56.2854 46.5 56.7V63C46.5 63.7957 46.8161 64.5587 47.3787 65.1214C47.9413 65.684 48.7044 66 49.5 66C50.2956 66 51.0587 65.684 51.6213 65.1214C52.1839 64.5587 52.5 63.7957 52.5 63V56.7C55.8881 56.0084 58.9332 54.1675 61.1199 51.4887C63.3067 48.81 64.5007 45.458 64.5 42V30C64.5 26.0218 62.9196 22.2065 60.1066 19.3934C57.2936 16.5804 53.4782 15 49.5 15ZM34.5 30V42C34.5287 42.5729 34.5888 43.1437 34.68 43.71C33.0756 45.6209 30.9154 46.9841 28.5 47.61V39C28.5 38.2044 28.1839 37.4413 27.6213 36.8787C27.0587 36.3161 26.2956 36 25.5 36C24.7044 36 23.9413 36.3161 23.3787 36.8787C22.8161 37.4413 22.5 38.2044 22.5 39V47.58C19.9306 46.9166 17.6535 45.4202 16.0251 43.325C14.3966 41.2297 13.5086 38.6537 13.5 36V24C13.4922 21.6227 14.1906 19.2967 15.5068 17.3169C16.823 15.3372 18.6975 13.793 20.8926 12.8802C23.0877 11.9675 25.5045 11.7273 27.8363 12.1902C30.1681 12.653 32.3099 13.7981 33.99 15.48C35.6141 17.1259 36.7197 19.212 37.17 21.48C35.4358 23.9832 34.5045 26.9548 34.5 30ZM58.5 42C58.4948 43.8569 57.9154 45.6666 56.8412 47.1812C55.767 48.6958 54.2506 49.8411 52.5 50.46V39C52.5 38.2044 52.1839 37.4413 51.6213 36.8787C51.0587 36.3161 50.2956 36 49.5 36C48.7044 36 47.9413 36.3161 47.3787 36.8787C46.8161 37.4413 46.5 38.2044 46.5 39V50.46C44.7494 49.8411 43.233 48.6958 42.1588 47.1812C41.0846 45.6666 40.5052 43.8569 40.5 42V30C40.5 27.6131 41.4482 25.3239 43.136 23.6361C44.8239 21.9482 47.1131 21 49.5 21C51.8869 21 54.1761 21.9482 55.864 23.6361C57.5518 25.3239 58.5 27.6131 58.5 30V42Z" fill="#02001A"/>
</svg>
