<svg id="Слой_1" data-name="Слой 1" xmlns="http://www.w3.org/2000/svg" xmlns:xlink="http://www.w3.org/1999/xlink" viewBox="0 0 536.70462 358.92352">
  <defs>
    <style>
      .cls-1 {
        fill: url(#Безымянный_градиент_15);
      }

      .cls-2 {
        fill: url(#Безымянный_градиент_17);
      }

      .cls-3 {
        fill: url(#Безымянный_градиент_20);
      }

      .cls-4 {
        fill: url(#Безымянный_градиент_22);
      }

      .cls-5 {
        fill: url(#Безымянный_градиент_24);
      }
    </style>
    <linearGradient id="Безымянный_градиент_15" data-name="Безымянный градиент 15" x1="132.08349" y1="387.38842" x2="176.5547" y2="221.41958" gradientUnits="userSpaceOnUse">
      <stop offset="0" stop-color="#050100"/>
      <stop offset="0.06858" stop-color="#070302"/>
      <stop offset="1" stop-color="#1d1b1c"/>
    </linearGradient>
    <linearGradient id="Безымянный_градиент_17" data-name="Безымянный градиент 17" x1="100.09124" y1="160.01609" x2="130.88745" y2="45.08307" gradientUnits="userSpaceOnUse">
      <stop offset="0" stop-color="#1e1e1e"/>
      <stop offset="1" stop-color="#2d2d2d"/>
    </linearGradient>
    <linearGradient id="Безымянный_градиент_20" data-name="Безымянный градиент 20" x1="231.64769" y1="355.91218" x2="768.35231" y2="355.91218" gradientUnits="userSpaceOnUse">
      <stop offset="0" stop-color="#010101"/>
      <stop offset="0.23829" stop-color="#0a0a0a"/>
      <stop offset="1" stop-color="#232423"/>
    </linearGradient>
    <linearGradient id="Безымянный_градиент_22" data-name="Безымянный градиент 22" x1="385.6145" y1="458.46176" x2="667.62583" y2="458.46176" gradientUnits="userSpaceOnUse">
      <stop offset="0" stop-color="#050000"/>
      <stop offset="0.30317" stop-color="#090505"/>
      <stop offset="0.65244" stop-color="#151213"/>
      <stop offset="1" stop-color="#282728"/>
    </linearGradient>
    <linearGradient id="Безымянный_градиент_24" data-name="Безымянный градиент 24" x1="679.16275" y1="615.2733" x2="619.02498" y2="486.30741" gradientUnits="userSpaceOnUse">
      <stop offset="0" stop-color="#0f0204"/>
      <stop offset="0.17422" stop-color="#13080a"/>
      <stop offset="1" stop-color="#222"/>
    </linearGradient>
  </defs>
  <g>
    <polygon class="cls-1" points="256.438 358.924 25.851 358.924 51.417 256.374 63.097 209.536 64.2 205.099 115.646 205.099 90.08 307.649 243.655 307.649 246.553 319.271 256.438 358.924"/>
    <polygon class="cls-2" points="153.995 51.275 141.212 102.55 128.429 153.824 76.983 153.824 89.766 102.55 102.55 51.275 153.995 51.275"/>
    <path class="cls-3" d="M768.35231,432.82437H716.32977c-.1211-.584-.24215-1.17507-.3632-1.759a.02488.02488,0,0,1-.00713-.01421c-.121-.584-.25636-1.17507-.3988-1.759a127.25238,127.25238,0,0,0-4.72156-15.67443q-.26706-.705-.53411-1.3887c-.21364-.56258-.4344-1.118-.6623-1.67353-.17091-.43441-.34894-.86881-.527-1.29612q-.74776-1.80531-1.55961-3.58922c-.24215-.53411-.48426-1.06823-.74062-1.60234-.18517-.40593-.37746-.80473-.56976-1.21066-.19225-.3988-.39167-.79761-.584-1.18928-.14953-.30622-.29909-.60535-.45575-.90444-.24215-.48426-.48425-.95426-.73353-1.43143-.15665-.31335-.32048-.61957-.48426-.92579-.18516-.349-.37033-.69789-.56258-1.03975q-.86526-1.613-1.7875-3.19042c-.1923-.33469-.38459-.66229-.584-.9899q-1.21779-2.06166-2.51391-4.07348c-.22077-.33473-.4344-.66942-.6623-1.00415-.178-.28483-.37028-.56971-.56258-.85455-.27062-.40593-.54837-.81186-.82607-1.21779-.114-.17091-.235-.34182-.35608-.51277-.292-.42727-.584-.84741-.8831-1.2676-.648-.91158-1.31033-1.80885-1.97975-2.70616-.44866-.59823-.89732-1.18932-1.36024-1.77325q-.42725-.55549-.87593-1.11095-1.175-1.48485-2.39994-2.927c-.3632-.4344-.7264-.85455-1.09669-1.28186q-.61959-.71569-1.26052-1.43143-1.16439-1.3032-2.37147-2.578c-.48426-.51273-.97564-1.0255-1.467-1.53109-.37029-.37746-.74062-.7478-1.111-1.11808-.4344-.44153-.87593-.86885-1.31746-1.30325-.42732-.41306-.86172-.82608-1.29612-1.23913-.44153-.42019-.88306-.83321-1.33172-1.23914-.44865-.41306-.89731-.82612-1.3531-1.22492-.44866-.40593-.9044-.80473-1.36731-1.20353-.235-.19938-.46292-.40593-.6979-.60531l-.53411-.44866c-.25641-.22077-.51277-.4344-.76913-.64808q-1.12162-.92935-2.26463-1.83732c-.34187-.27775-.68368-.54837-1.03263-.81186q-2.79874-2.17915-5.71146-4.19457c-.3632-.25637-.72636-.51273-1.09669-.75488-.12105-.08545-.24215-.17091-.37033-.25636-.36321-.24215-.72637-.47713-1.08957-.71928q-1.93349-1.27119-3.91682-2.47827c-.30622-.18516-.61249-.37033-.92579-.5555q-.91872-.55542-1.85874-1.08956c-.40593-.235-.81182-.46292-1.22488-.69081-.85459-.48426-1.72339-.95426-2.59224-1.41717q-1.43145-.75846-2.89845-1.48129c-.39168-.19938-.79048-.39167-1.18928-.58392-.66229-.32048-1.32459-.64095-2.00114-.94717q-.51273-.23505-1.0255-.47005c-.47-.21363-.94717-.42727-1.4243-.63378q-1.378-.6089-2.7774-1.17506-5.15948-2.11506-10.54693-3.78864c-.46288-.14244-.92579-.28484-1.39579-.42015-.49851-.14956-1.00416-.29913-1.51688-.44157-2.02253-.57684-4.07352-1.10382-6.13873-1.58095-.50564-.11393-1.01129-.22789-1.50976-.34182a.21968.21968,0,0,1-.057-.01426c-.5199-.10684-1.03263-.21363-1.55248-.32047-.45579-.09971-.91157-.18517-1.37445-.27775-.47-.09254-.94717-.178-1.4243-.26349-.49851-.09259-.997-.178-1.49554-.2635-1.1964-.19937-2.39994-.39167-3.6106-.55545-.527-.07833-1.06823-.14957-1.60234-.21364-.35607-.04985-.71928-.09258-1.08244-.13531-.51989-.06411-1.04688-.12109-1.56673-.171-.1923-.02847-.37746-.04273-.56972-.06407-1.07535-.10684-2.15783-.20651-3.24031-.292-.76909-.05694-1.54536-.1068-2.32157-.14953-.5555-.0356-1.11808-.06411-1.67358-.08545q-.7691-.04278-1.53823-.06411c-.29913-.00713-.59822-.02135-.89731-.02135-.49139-.01425-.98277-.02851-1.467-.03564-.65517-.00708-1.31037-.01421-1.96554-.01421h-359.066l12.60506-50.56264.178-.71215H590.71365A179.36636,179.36636,0,0,1,768.35231,432.82437Z" transform="translate(-231.64769 -279)"/>
    <path class="cls-4" d="M667.62583,458.46176c0,.45579-.00713.91866-.02138,1.37444,0,.30622-.00709.61957-.02134.92579a1.73353,1.73353,0,0,1-.00713.19229v.14244c-.00713.25637-.01426.51273-.02847.77622,0,.0356-.00713.06411-.00713.09971a1.48674,1.48674,0,0,1-.00713.178c-.01426.38455-.0356.76913-.06407,1.14655,0,.09258-.00713.18517-.01426.27062-.01425.22077-.02851.4344-.04272.648-.01426.18516-.02852.3632-.04273.54124,0,.03564-.00713.07124-.00713.10684-.0356.48426-.08545.97564-.13531,1.4599-.12818,1.24626-.27775,2.47827-.46291,3.71031-.02847.178-.05694.36321-.09259.54833l-.04272.27775c-.04982.30622-.09967.60535-.15666.90444l-.04272.25637a1.43281,1.43281,0,0,1-.02847.17091c-.07837.45578-.16383.91157-.25641,1.36023-.00713.04272-.02134.09258-.02847.13531v.00713c-.0356.19225-.07833.38454-.121.57683-.09259.44862-.1923.89728-.292,1.34593-.02847.13532-.06407.27063-.09258.40594-.07833.3276-.15666.64808-.235.96851-.07837.31335-.1567.61961-.235.93291-.14244.53412-.28488,1.06823-.4344,1.60234-.171.59823-.35608,1.20354-.54125,1.80176-.178.584-.37033,1.16794-.56262,1.74478-.121.34181-.235.68363-.35608,1.02549H663.239a.05334.05334,0,0,1-.00713.0356c-.00713.00713-.00713.02134-.01426.0356-.00713.02139-.01425.04273-.02134.07124a.85342.85342,0,0,1-.057.1424c-.04273.12818-.08546.2564-.13531.38459-.0356.10679-.07124.2065-.10684.30622-.00713.02847-.02134.04985-.02847.07832-.01426.0356-.02847.07833-.04273.114-.14244.38455-.292.76909-.44153,1.14655-.12818.32756-.25636.65517-.39167.97564-.292.73349-.59823,1.45277-.9187,2.17205-.0356.07833-.0712.16378-.1068.24215-.114.26349-.235.527-.35608.78335-.10684.22789-.21368.46291-.32047.69076-.12818.27775-.26349.5555-.3988.82612a1.162,1.162,0,0,1-.07833.16378c-.19942.40593-.39885.80473-.60535,1.20354-.27775.55549-.56971,1.10382-.86881,1.65219-.292.54124-.59822,1.08248-.90444,1.61659-.00713.01422-.02139.0356-.02847.04986-.29913.51985-.60535,1.03971-.9187,1.55248-.64091,1.054-1.3032,2.10085-2.00114,3.11922-.34182.51273-.69077,1.01837-1.054,1.51688q-2.14715,3.023-4.5649,5.81113c-.40589.46291-.81182.92578-1.22488,1.38157s-.8332.90444-1.26052,1.3531q-1.27119,1.33528-2.60645,2.60645c-.44866.42727-.89731.84746-1.3531,1.26052a.42872.42872,0,0,1-.05694.05694c-.39885.35608-.80473.71215-1.21066,1.06822-.06412.057-.12819.10684-.1923.16383-.04273.0356-.08545.07832-.12818.11392-.35608.30622-.71928.61244-1.08248.91158a1.48923,1.48923,0,0,1-.12106.09966.38794.38794,0,0,1-.06411.04986c-.02847.02139-.05694.04986-.08545.07124-.38455.32048-.77622.63382-1.1679.94713-.13531.10684-.27062.21368-.40593.31335q-.5448.42731-1.08961.83324c-.06407.04986-.13531.09967-.19938.14953-.45578.34186-.9187.67655-1.3887,1.01128-.49851.36316-1.00415.71215-1.51688,1.054-.51277.34895-1.0255.68368-1.54535,1.01837-.48426.30622-.96856.61244-1.45282.91157-.04272.02847-.08545.04981-.12105.0712-.527.32047-1.0611.63382-1.60234.94717-.53411.30622-1.07535.61244-1.61659.9044-.54833.29913-1.0967.5911-1.65219.86885-.47713.24923-.96139.49138-1.44564.7264l-.32048.14953c-.527.25636-1.0611.50564-1.59521.74774s-1.07535.47718-1.61659.70507c-1.289.55545-2.60645,1.06822-3.931,1.54535-.47717.17091-.9543.34182-1.43143.49852-.59822.2065-1.19641.3988-1.80176.584-1.054.32757-2.11506.63378-3.19042.91866a.72491.72491,0,0,1-.178.04273q-.33115.09611-.6623.17091a.09029.09029,0,0,1-.04273.00713c-.08545.02134-.16382.04272-.24927.06407-.37029.09971-.75488.19229-1.1323.27774h-.01425a.10285.10285,0,0,1-.04986.01426c-.49851.11393-1.01124.22789-1.51688.33469-.18517.03564-.36321.07837-.54833.114-.5555.1068-1.111.21364-1.66645.31335-.54837.09971-1.09669.19225-1.65219.27775-.18517.02847-.37742.05694-.56971.08545-.47.0712-.94717.13531-1.4243.19938-.10684.01426-.21364.02851-.32048.0356l-.14952.02138c-.54124.0712-1.08961.13531-1.638.18517q-.8225.08541-1.64507.14952c-.22789.02139-.45574.03565-.68363.04986l-.68368.04273a1.94173,1.94173,0,0,1-.292.02138c-.171.00713-.349.02134-.527.02847-.17091.00713-.349.02139-.527.02139a1.86345,1.86345,0,0,1-.19938.00713c-.04273,0-.08546.00708-.12819.00708-.3988.02139-.79052.03564-1.18932.04273-.66229.02138-1.32459.02851-1.98688.02851H385.6145l12.78309-51.27479H590.71365a25.63739,25.63739,0,0,0,0-51.27478h-179.533l12.78306-51.27479h166.7499c.66229,0,1.32459.00713,1.98688.02847.3988.00713.79052.02138,1.18932.04272.04273,0,.08546.00713.12819.00713a1.86345,1.86345,0,0,1,.19938.00713c.178,0,.35607.01426.527.02134.178.00713.35607.02139.527.02852a1.94706,1.94706,0,0,1,.292.02134l.68368.04273c.22789.01425.45574.02851.68363.04985q.82255.0641,1.64507.14957c.54837.04985,1.09674.11392,1.638.18516l.14952.02135c.10684.00713.21364.02138.32048.0356.47713.06411.9543.12818,1.4243.19942.19229.02847.38454.057.56971.08545.5555.08546,1.10382.178,1.65219.27775.5555.09967,1.111.20651,1.66645.31335.18512.0356.36316.07833.54833.11392.50564.10684,1.01837.22077,1.51688.33474a.10284.10284,0,0,1,.04986.01421h.01425q.56613.12819,1.1323.27775c.08545.02139.16382.04273.24927.06411a.09075.09075,0,0,1,.04273.00709q.33115.07477.6623.171a.72042.72042,0,0,1,.178.04273c1.07536.28483,2.13645.59105,3.19042.91865.60535.18517,1.20354.37746,1.80176.584.47713.15665.95426.32761,1.43143.49852,1.32459.47712,2.64205.98985,3.931,1.54535.54124.22789,1.08248.46291,1.61659.705s1.06823.49139,1.59521.74775l.32048.14957c.48425.235.96851.47712,1.44564.7264.55549.27771,1.10386.56971,1.65219.86881.54124.292,1.08248.59822,1.61659.90444.54124.31335,1.07536.62669,1.60234.94717.0356.02134.07833.04273.12105.0712.48426.29909.96856.60531,1.45282.91153.51985.33473,1.03258.66942,1.54535,1.01841.51273.34182,1.01837.69076,1.51688,1.054.47.33469.93292.66942,1.3887,1.01124.06407.04985.13531.09971.19938.14957q.54481.40593,1.08961.8332c.13531.09971.27062.20651.40593.31335.39168.31334.78335.62669,1.1679.94717.02851.02134.057.04985.08545.0712a.39276.39276,0,0,1,.06411.04985,1.49013,1.49013,0,0,1,.12106.09971c.3632.29909.7264.60531,1.08248.91153.04273.03564.08545.07837.12818.114.06411.05694.12818.1068.1923.16378.40593.35608.81181.71215,1.21066,1.06823a.42828.42828,0,0,1,.05694.057c.45579.41306.90444.8332,1.3531,1.26048.44153.42731.88306.85458,1.31746,1.289.4344.4344.86172.87593,1.289,1.31746.42732.44866.84746.89731,1.26052,1.3531s.819.91866,1.22488,1.38153q2.41419,2.78811,4.5649,5.81117c.3632.49851.71215,1.00411,1.054,1.51688.69794,1.01837,1.36023,2.06521,2.00114,3.11922.31335.51273.61957,1.03262.9187,1.55248.00708.01426.02134.0356.02847.04986.30622.53411.61244,1.07535.90444,1.61655.2991.54837.59106,1.09673.86881,1.65219.2065.3988.40593.7976.60535,1.20353a1.16312,1.16312,0,0,1,.07833.16383c.13531.27062.27062.54832.3988.82607.10679.2279.21363.46292.32047.69081.12106.25636.24211.51986.35608.78335.0356.07832.0712.16378.1068.2421.32047.71928.62669,1.43856.9187,2.1721.13531.32043.26349.648.39167.97564.14952.37742.29909.762.44153,1.14655.01426.0356.02847.07833.04273.11392.00713.02852.02134.04986.02847.07837.0356.09967.07124.19938.10684.30622.04985.12818.09258.25637.13531.38455a.85215.85215,0,0,1,.057.14244c.00709.02847.01421.04985.02134.07119.00713.01426.00713.02852.01426.03565a.05321.05321,0,0,1,.00713.0356h.00708c.1211.34181.235.68363.35608,1.02549.19229.57684.38459,1.16081.56262,1.74478.18517.59818.37029,1.20349.54125,1.80172.14952.53411.292,1.06822.4344,1.60233.07832.31335.16378.6267.235.94q.12818.48071.235.96138c.02851.13531.06411.27062.09258.40593.09971.44866.19942.89732.292,1.346.04272.1923.08545.38455.121.57684v.00713c.00713.04273.02134.09259.02847.13531.09258.44866.178.9044.25641,1.36019a1.4355,1.4355,0,0,1,.02847.17091l.04272.25641c.057.29909.10684.59818.15666.9044l.04272.27775c.03565.18516.06412.37033.09259.54836.18516,1.232.33473,2.464.46291,3.71028.04986.4843.09258.96855.13531,1.45994,0,.0356.00713.07833.00713.11392l.04273.53412c.01421.21363.02847.42727.04272.648.00713.0855.01426.178.01426.27062.02847.37746.04981.762.06407,1.1466a1.4864,1.4864,0,0,1,.00713.178c0,.03559.00713.06407.00713.09966.01421.2635.02134.5199.02847.77627v.14244a1.73272,1.73272,0,0,1,.00713.19225c.01425.30626.02134.61961.02134.92583C667.6187,457.54306,667.62583,458.006,667.62583,458.46176Z" transform="translate(-231.64769 -279)"/>
    <path class="cls-5" d="M768.35231,484.09915A179.36636,179.36636,0,0,1,590.71365,637.92352h-51.346l-2.01539-8.06867-1.67358-6.70844-9.09412-36.49768-5.04917-20.25354-7.73393-31.02125h51.27479l12.61927,50.61958.16382.65521h12.8543c.65517,0,1.31037-.00713,1.96554-.01426.48426-.00712.97564-.02134,1.467-.02847.29909-.00713.59818-.02138.89731-.02851q.76909-.02132,1.53823-.06407c.5555-.02138,1.11808-.04986,1.67358-.08545.77621-.04273,1.55248-.09259,2.32157-.14957,1.08248-.08546,2.165-.18517,3.24031-.292.19226-.02139.37742-.03565.56972-.06412.51985-.04985,1.04684-.10684,1.56673-.17091.36316-.04272.72637-.08545,1.08244-.13531q.80116-.09616,1.60234-.21363c1.21066-.16383,2.4142-.35608,3.6106-.5555.49852-.08545.997-.17091,1.49554-.26349.47713-.08546.95426-.17091,1.4243-.26349.46288-.09259.91866-.18517,1.37445-.27775.51985-.1068,1.03258-.21364,1.55248-.32043a.21968.21968,0,0,1,.057-.01426c.49847-.114,1.00412-.22789,1.50976-.34182,2.06521-.47717,4.1162-1.00416,6.13873-1.581.51272-.14244,1.01837-.292,1.51688-.44153.47-.13531.93291-.27775,1.39579-.42019q5.38389-1.66643,10.54693-3.7886,1.39938-.57689,2.7774-1.17507c.47713-.2065.95426-.42018,1.4243-.63382l1.0255-.47c.67655-.30622,1.33885-.62669,2.00114-.94717.3988-.19229.7976-.38455,1.18928-.584q1.46346-.72639,2.89845-1.48128c.86885-.46287,1.73765-.93292,2.59224-1.41717.41306-.2279.81895-.45579,1.22488-.69077q.94-.53411,1.85874-1.08961c.3133-.18516.61957-.37029.92579-.55545q1.98687-1.20711,3.91682-2.47831c.3632-.24211.72636-.47713,1.08957-.71924.12818-.0855.24928-.17095.37033-.25641.37033-.24923.73349-.49847,1.09669-.75487q2.9163-2.00828,5.71146-4.19453c.349-.26354.69076-.53411,1.03263-.81186q1.143-.908,2.26463-1.83736c.25636-.21364.51272-.42727.76913-.648l.53411-.44866c.235-.19942.46287-.40593.6979-.60535.46291-.3988.91865-.7976,1.36731-1.20354.45579-.40593.90445-.81181,1.3531-1.22487.44866-.40593.89019-.819,1.33172-1.23914.4344-.41306.8688-.82611,1.29612-1.23913.44153-.43444.88306-.86172,1.31746-1.30325.37033-.37033.74066-.74066,1.111-1.11808.49139-.50564.98277-1.01837,1.467-1.53114q1.20709-1.27119,2.37147-2.578.6409-.71568,1.26052-1.43142c.37029-.42728.73349-.84746,1.09669-1.28186q1.22849-1.44209,2.39994-2.92693.44865-.5555.87593-1.111c.46292-.584.91158-1.17507,1.36024-1.77325.66942-.89731,1.33171-1.79463,1.97975-2.70616.29913-.42019.5911-.84037.8831-1.26765.12105-.17091.24211-.34181.35608-.51272.2777-.40593.55545-.81186.82607-1.21779.1923-.28488.38455-.56972.56258-.85459.2279-.33469.44153-.66943.6623-1.00412q1.29258-2.00826,2.51391-4.07352c.19938-.32756.39167-.65516.584-.98989q.91865-1.581,1.7875-3.19042c.19225-.34182.37742-.69077.56258-1.03976.16378-.30622.32761-.61243.48426-.92578.24928-.47.49138-.94713.73353-1.43143.15666-.29909.30622-.59818.45575-.9044.19229-.39167.39171-.79048.584-1.18932.1923-.40589.38459-.80469.56976-1.21062.24923-.53411.49847-1.06823.74062-1.60234q.81186-1.784,1.55961-3.58926c.178-.42727.35607-.86168.527-1.29612.2279-.55545.44866-1.111.6623-1.67354q.267-.68367.53411-1.3887a127.25014,127.25014,0,0,0,4.72156-15.67442c.13531-.58393.27062-1.175.3988-1.759a.02489.02489,0,0,1,.00713-.01426c.121-.584.2421-1.175.3632-1.759Z" transform="translate(-231.64769 -279)"/>
  </g>
</svg>
