<svg width="48" height="28" viewBox="0 0 48 28" fill="none" xmlns="http://www.w3.org/2000/svg">
<path d="M23.1109 28.0001H2.6665L4.93358 19.7035L5.96914 15.9149L6.06667 15.5557H10.6283L8.36123 23.8522H21.977L22.2341 24.7923L23.1109 28.0001Z" fill="url(#paint0_linear_1433_846)"/>
<path d="M14.222 3.88916L13.0418 7.77843L11.8617 11.6669H7.11084L8.29187 7.77843L9.47198 3.88916H14.222Z" fill="url(#paint1_linear_1433_846)"/>
<path d="M48 11.6667H43.349L43.3168 11.5339C43.3061 11.4899 43.2936 11.4452 43.281 11.4004C43.1706 10.997 43.0296 10.6 42.8589 10.2119L42.8115 10.1065C42.7918 10.064 42.7721 10.0216 42.7515 9.97985C42.731 9.93813 42.7211 9.91386 42.705 9.88125C42.6603 9.79023 42.6156 9.69922 42.5655 9.60896C42.544 9.56876 42.5217 9.5278 42.4993 9.4876L42.4483 9.39583C42.4304 9.36549 42.4134 9.33515 42.3956 9.30557L42.3553 9.23655C42.3338 9.20015 42.3115 9.16071 42.2891 9.12809C42.2757 9.10458 42.2605 9.08107 42.2462 9.05832C42.2319 9.03556 42.2131 9.00522 42.1961 8.98247C42.1442 8.90055 42.0906 8.82016 42.036 8.74052C42.019 8.71473 42.0011 8.6897 41.9841 8.66467C41.9108 8.56001 41.8357 8.45685 41.7587 8.35522C41.7391 8.33019 41.7203 8.3044 41.6997 8.27937C41.6791 8.25434 41.6666 8.23614 41.6496 8.21415L41.5754 8.12237C41.5655 8.10948 41.5548 8.09583 41.5432 8.08293L41.4645 7.98737C41.4063 7.91759 41.3473 7.85008 41.2856 7.78182C41.2453 7.73632 41.2051 7.69157 41.1639 7.64758C41.1389 7.61951 41.1121 7.59145 41.0861 7.56339C41.0155 7.48754 40.9439 7.41169 40.8715 7.34116C40.8384 7.30778 40.8062 7.27593 40.7731 7.24407C40.74 7.21222 40.6988 7.16823 40.6604 7.13561C40.5906 7.06963 40.52 7.00364 40.4484 6.93993C40.4043 6.90049 40.3605 6.86181 40.3169 6.82389L40.2185 6.73515L40.1005 6.63579L39.9851 6.5425C39.9448 6.51064 39.9055 6.47879 39.8652 6.44845C39.825 6.41811 39.7856 6.38549 39.7445 6.35516C39.7034 6.32482 39.664 6.29448 39.622 6.26414L39.5602 6.21787L39.5119 6.18374L39.4431 6.1352C39.376 6.08818 39.3089 6.04115 39.2409 5.99565C39.2105 5.97441 39.1792 5.95393 39.1515 5.93421C38.9851 5.82347 38.8149 5.71729 38.6408 5.61565C38.6086 5.59669 38.5764 5.57697 38.5433 5.55877L38.5102 5.53905L38.4127 5.48444C38.2973 5.41997 38.1802 5.35778 38.0621 5.29634L37.9789 5.25463C37.9244 5.22656 37.8689 5.1985 37.8134 5.17196C37.7768 5.15375 37.7401 5.13707 37.7034 5.11962C37.6274 5.08246 37.5496 5.04377 37.4718 5.01192C37.394 4.98006 37.3 4.93607 37.2124 4.89967L37.1042 4.85416C37.0451 4.82913 36.9861 4.80486 36.9253 4.7821L36.8358 4.74646L36.7062 4.70247C36.6239 4.67213 36.5416 4.64255 36.4575 4.61373C36.1498 4.50704 35.8356 4.41122 35.5148 4.32627L35.3896 4.29441C35.3448 4.28304 35.3001 4.27166 35.2536 4.26104C35.0747 4.21705 34.8917 4.1771 34.7044 4.1412L34.5694 4.11542L34.4298 4.09115L34.3073 4.06991L34.1803 4.05019L34.0461 4.03047C33.9388 4.0153 33.8315 4.00013 33.7233 3.988C33.6758 3.98193 33.6276 3.97662 33.5801 3.97207L33.4836 3.96145L33.3387 3.944L33.2877 3.93945C33.1911 3.93111 33.0945 3.92353 32.9979 3.91746C32.929 3.91291 32.8592 3.90911 32.7904 3.90608L32.6401 3.89925C32.5945 3.89925 32.5507 3.89925 32.5024 3.8947C32.4764 3.8947 32.4496 3.8947 32.4228 3.8947H32.2913H32.1124H0L1.12697 0.0538517L1.14307 9.32107e-07H32.116C35.9758 -0.00121016 39.7068 1.1778 42.6244 3.32075C45.542 5.46369 47.4506 8.42687 48 11.6667Z" fill="url(#paint2_linear_1433_846)"/>
<path d="M48.0003 15.5557C47.7706 16.9935 47.2974 18.3921 46.5969 19.7035C45.2746 22.1857 43.1889 24.2827 40.5821 25.7513C37.9752 27.2199 34.9541 27.9997 31.8695 28.0001H27.2054L27.0237 27.3472L26.872 26.8052L26.0463 23.8522L25.5922 22.214L24.8892 19.706H29.547L30.6869 23.7996L30.7015 23.853H31.8695H32.0512H32.1847H32.2656L32.4054 23.8474L32.558 23.8409C32.628 23.8409 32.6988 23.8336 32.7688 23.8288L33.0631 23.8053L33.1148 23.7996C33.1621 23.7956 33.2102 23.7916 33.2574 23.7859L33.3555 23.7754L33.5009 23.7576C33.6108 23.7446 33.7198 23.7293 33.8288 23.7131L33.965 23.6912L34.094 23.6702L34.2184 23.6475L34.3601 23.6217L34.4973 23.5941C34.6856 23.5553 34.8715 23.5124 35.055 23.4655C35.1022 23.4542 35.1458 23.4421 35.1931 23.4299C35.2403 23.4178 35.2775 23.4081 35.3202 23.3959C35.6454 23.3059 35.9645 23.2037 36.2776 23.0893C36.363 23.0586 36.4465 23.027 36.5301 22.9947L36.6591 22.9437L36.7499 22.9057C36.8117 22.8806 36.8716 22.8547 36.9316 22.8288L37.0397 22.7811C37.1305 22.7422 37.2159 22.7002 37.3031 22.6613C37.3903 22.6225 37.4611 22.5861 37.5383 22.5473L37.65 22.4914C37.7064 22.4623 37.7627 22.4332 37.8181 22.4033L37.9026 22.358C38.0237 22.2932 38.1424 22.2264 38.2586 22.1573L38.3576 22.0991L38.3912 22.0788L38.4902 22.0174C38.6677 21.9095 38.8405 21.7965 39.0089 21.6784C39.0407 21.6565 39.0725 21.6347 39.0997 21.612C39.1687 21.5635 39.2369 21.5141 39.305 21.464L39.3749 21.4114L39.424 21.375C39.4449 21.3588 39.4658 21.3418 39.4867 21.3264C39.5293 21.2941 39.5702 21.2617 39.6111 21.2286C39.652 21.1954 39.6938 21.163 39.7337 21.1299L39.8554 21.0295L39.9726 20.9292L40.0925 20.824L40.1933 20.7334L40.3268 20.6097C40.3995 20.5406 40.4713 20.471 40.5421 20.4009L40.6566 20.2852L40.7565 20.1817C40.8301 20.1008 40.9027 20.0247 40.9745 19.9446C41.0008 19.9147 41.0281 19.8848 41.0535 19.8548C41.0953 19.8071 41.1362 19.7594 41.177 19.7108C41.2376 19.6385 41.2981 19.5657 41.3587 19.4924C41.3859 19.4584 41.4123 19.4244 41.4386 19.3896C41.4501 19.3756 41.461 19.3619 41.4713 19.3484C41.4968 19.3152 41.5222 19.2828 41.5467 19.2497L41.5976 19.1809C41.6185 19.1534 41.6375 19.1267 41.6575 19.1C41.7356 18.9921 41.8119 18.8824 41.8864 18.7707L41.9391 18.6898C41.9945 18.6041 42.049 18.5183 42.1017 18.4318C42.1189 18.4042 42.1353 18.3759 42.1526 18.3508C42.1698 18.3258 42.1825 18.3007 42.1962 18.2756C42.2189 18.2376 42.2416 18.1947 42.2634 18.1599L42.3042 18.0871L42.3578 17.9908L42.4096 17.8929C42.4323 17.8493 42.455 17.8064 42.4768 17.7627C42.5259 17.6664 42.5731 17.5701 42.6185 17.4722C42.6349 17.4383 42.6503 17.4027 42.6658 17.3679C42.6812 17.3331 42.7066 17.2781 42.7266 17.232L42.7747 17.1203C42.9481 16.7061 43.0913 16.2824 43.2035 15.8518C43.2162 15.8048 43.228 15.7571 43.2398 15.7094L43.2725 15.567L48.0003 15.5557Z" fill="url(#paint3_linear_1433_846)"/>
<path d="M39.1107 14.0125C39.1107 14.0498 39.1107 14.0871 39.1107 14.1244C39.1107 14.1487 39.1107 14.1746 39.1107 14.199C39.1112 14.2041 39.1112 14.2092 39.1107 14.2144V14.2265C39.1107 14.2468 39.1107 14.2679 39.1107 14.2889C39.1107 14.2889 39.1107 14.2946 39.1107 14.297C39.1111 14.3019 39.1111 14.3068 39.1107 14.3116C39.1107 14.3432 39.1107 14.374 39.1054 14.4048C39.1059 14.4121 39.1059 14.4194 39.1054 14.4267C39.1054 14.4446 39.1054 14.4616 39.1054 14.4794C39.1054 14.4972 39.1054 14.5086 39.1054 14.5232C39.1054 14.5378 39.1054 14.5289 39.1054 14.5313C39.1054 14.571 39.0984 14.6123 39.0939 14.6496C39.0825 14.751 39.0692 14.8507 39.0525 14.9504C39.0525 14.9649 39.048 14.9803 39.0445 14.9949V15.0176C39.0401 15.0428 39.0357 15.0671 39.0304 15.0914V15.1117V15.1254C39.0233 15.1627 39.0163 15.1992 39.0075 15.2357C39.008 15.2394 39.008 15.2432 39.0075 15.247C39.0048 15.2626 39.0012 15.278 38.9969 15.2932C38.9889 15.3297 38.9801 15.3662 38.9713 15.4026L38.9633 15.4351L38.9421 15.5161C38.936 15.5421 38.9289 15.5664 38.9218 15.5923C38.9095 15.6353 38.8963 15.6782 38.883 15.722C38.8698 15.7658 38.8521 15.8193 38.8354 15.8679C38.8186 15.9165 38.8027 15.9627 38.7859 16.009C38.7753 16.0373 38.7656 16.0649 38.7542 16.09C38.7536 16.0919 38.7536 16.0938 38.7542 16.0957L38.7489 16.107C38.7489 16.1176 38.7409 16.1281 38.7365 16.1386C38.7321 16.1492 38.7303 16.1557 38.7277 16.1638C38.7273 16.1656 38.7273 16.1676 38.7277 16.1694V16.1792C38.7153 16.21 38.7021 16.2416 38.6889 16.2716C38.6756 16.3016 38.6668 16.3251 38.6544 16.3526C38.6288 16.4118 38.6015 16.4702 38.5732 16.5285L38.5644 16.548L38.5326 16.612L38.5044 16.6679C38.4929 16.6906 38.4815 16.7125 38.4691 16.7344C38.4673 16.7392 38.4649 16.7438 38.462 16.7482L38.4091 16.8455C38.3844 16.8908 38.3588 16.9354 38.3323 16.9792C38.3067 17.023 38.2794 17.0676 38.252 17.1105C38.2255 17.1527 38.1982 17.1916 38.1708 17.2361C38.1143 17.3221 38.0552 17.4064 37.9943 17.489C37.9634 17.5304 37.9325 17.5701 37.9007 17.6123C37.7742 17.7744 37.6401 17.9313 37.4983 18.0832L37.3898 18.195C37.3533 18.2323 37.3162 18.2688 37.2786 18.3045C37.2032 18.3769 37.1265 18.4474 37.0482 18.516C37.0094 18.5506 36.9697 18.5847 36.9291 18.6182C36.9278 18.6202 36.926 18.6218 36.9238 18.623L36.7746 18.7211L36.7579 18.7341C36.7544 18.7375 36.7506 18.7405 36.7464 18.743C36.7155 18.7681 36.6828 18.7932 36.6511 18.8176L36.6405 18.8257L36.6352 18.8297L36.6272 18.8354C36.5937 18.8613 36.5584 18.8865 36.524 18.9116L36.4887 18.9375L36.3925 19.0048L36.3748 19.017C36.3342 19.0445 36.2936 19.0721 36.2522 19.098C36.2107 19.124 36.1639 19.1556 36.118 19.1839C36.0721 19.2123 36.0298 19.2391 35.9821 19.265L35.8532 19.3396L35.8427 19.3452C35.7968 19.3712 35.7491 19.3963 35.7015 19.4214C35.6538 19.4466 35.607 19.4717 35.5585 19.4952C35.5099 19.5187 35.4623 19.543 35.4129 19.5657C35.3634 19.5884 35.3246 19.6054 35.2858 19.6241L35.2575 19.6362C35.2108 19.6573 35.1631 19.6776 35.1163 19.697C35.0696 19.7165 35.0219 19.7359 34.9734 19.7546C34.8595 19.7992 34.7439 19.8405 34.6265 19.8794L34.5003 19.9199C34.4474 19.937 34.3944 19.9524 34.3415 19.9669C34.2488 19.9937 34.1544 20.0188 34.0599 20.0415C34.0547 20.0424 34.0493 20.0424 34.044 20.0415L33.9858 20.0561L33.9637 20.0618C33.9311 20.0699 33.8967 20.0772 33.8631 20.0837H33.8587C33.8146 20.0926 33.7705 20.1023 33.7246 20.1104L33.6769 20.1201L33.5295 20.1453L33.3839 20.168L33.3336 20.1745C33.2921 20.1809 33.2498 20.1858 33.2074 20.1907H33.1792H33.1659C33.1183 20.1963 33.0697 20.202 33.0212 20.2061L32.8764 20.2182H32.8164H32.7555H32.7299H32.6832H32.6373H32.6081L32.5031 20.2223C32.4449 20.2223 32.3857 20.2223 32.3266 20.2223H14.2222L15.3509 16.0665H32.3231C32.9232 16.0665 33.4988 15.8475 33.9232 15.4578C34.3475 15.068 34.5859 14.5394 34.5859 13.9882C34.5859 13.437 34.3475 12.9084 33.9232 12.5186C33.4988 12.1289 32.9232 11.9099 32.3231 11.9099H16.4788L17.6067 7.77846H32.3231C32.3813 7.77846 32.4405 7.77846 32.4996 7.77846H32.6046H32.6337H32.6796C32.6955 7.77846 32.7114 7.77846 32.7264 7.77846C32.7349 7.77762 32.7435 7.77762 32.752 7.77846L32.8129 7.77846H32.8729C32.9214 7.77846 32.97 7.78575 33.0176 7.79061C33.0653 7.79548 33.1147 7.79953 33.1624 7.8052H33.1756C33.185 7.80477 33.1945 7.80477 33.2039 7.8052L33.3301 7.82142L33.3804 7.82871C33.4286 7.8352 33.4772 7.84249 33.526 7.8506L33.6734 7.87653L33.721 7.88545L33.8552 7.91301H33.8605L33.9611 7.93571L33.9831 7.94057L34.0414 7.95435H34.0573C34.1517 7.97786 34.2461 8.00217 34.3388 8.02892C34.3918 8.04432 34.4447 8.05972 34.4977 8.07674C34.5506 8.09377 34.5859 8.10268 34.6239 8.11646C34.7412 8.15537 34.8569 8.19752 34.9707 8.2421C35.0192 8.26074 35.0669 8.27939 35.1137 8.29884L35.2549 8.35963L35.2831 8.37179L35.4102 8.43096C35.4596 8.45366 35.5082 8.47716 35.5558 8.50148C35.6035 8.5258 35.6511 8.55012 35.6988 8.57443C35.7465 8.59956 35.7941 8.6255 35.84 8.65549L35.8506 8.66116L35.9795 8.73492C36.0253 8.76248 36.0677 8.78923 36.1154 8.81598C36.163 8.84273 36.2036 8.87191 36.2495 8.89704L36.3722 8.97809L36.3898 8.99025L36.486 9.05834L36.5213 9.08347C36.5558 9.1086 36.5911 9.13453 36.6246 9.16047L36.6325 9.16615L36.6378 9.1702L36.6484 9.1783C36.6802 9.20262 36.7128 9.22694 36.7437 9.25207L36.7552 9.26098L36.772 9.27476C36.8082 9.30313 36.8443 9.33231 36.8788 9.36149C36.8788 9.36149 36.8832 9.36149 36.8841 9.36555L37.0032 9.46768L37.1197 9.57224C37.1585 9.60791 37.1956 9.64357 37.2335 9.67923C37.2715 9.7149 37.3086 9.75219 37.3447 9.78866L37.4533 9.90052C37.5957 10.0513 37.7298 10.2085 37.8557 10.3723C37.8875 10.412 37.9184 10.4533 37.9493 10.4947C38.0102 10.5757 38.0693 10.6625 38.1258 10.7476C38.1532 10.7889 38.1805 10.8286 38.207 10.8732C38.207 10.8732 38.207 10.8732 38.207 10.8773C38.2343 10.921 38.2617 10.9648 38.2873 11.0086C38.3129 11.0523 38.3394 11.0977 38.3641 11.1423L38.417 11.2404C38.4199 11.2445 38.4223 11.2488 38.4241 11.2534C38.4364 11.2752 38.4479 11.2979 38.4594 11.3206C38.4709 11.3433 38.4779 11.3579 38.4876 11.3766L38.5194 11.4398L38.5282 11.4592C38.5565 11.5176 38.5838 11.576 38.6094 11.6351C38.6218 11.6619 38.6333 11.6878 38.6438 11.7162C38.6544 11.7446 38.6703 11.7778 38.6827 11.8094C38.6827 11.8094 38.6827 11.8159 38.6827 11.8183C38.6827 11.8208 38.6827 11.8224 38.6827 11.8248C38.6827 11.8272 38.6889 11.841 38.6915 11.8499C38.6942 11.8588 38.7003 11.8702 38.7039 11.8807L38.7092 11.8921C38.7086 11.8939 38.7086 11.8959 38.7092 11.8978C38.7206 11.9261 38.7303 11.9537 38.7409 11.9788C38.7577 12.0258 38.7753 12.0728 38.7903 12.1207C38.8054 12.1685 38.823 12.2179 38.838 12.2666C38.853 12.3152 38.8645 12.3533 38.8768 12.3963C38.8839 12.4214 38.891 12.4473 38.8971 12.4724C38.9033 12.4976 38.9121 12.5243 38.9183 12.5535L38.9263 12.5867C38.9351 12.6232 38.9439 12.6589 38.9519 12.6954C38.9563 12.7108 38.9598 12.727 38.9624 12.7424C38.9629 12.7459 38.9629 12.7494 38.9624 12.7529C38.9713 12.7894 38.9783 12.8267 38.9854 12.8631V12.8769V12.898C38.9907 12.9223 38.9951 12.9466 38.9995 12.9709V12.9936C38.9995 13.009 39.0048 13.0236 39.0075 13.0382C39.0242 13.1379 39.0375 13.2376 39.0489 13.3389C39.0533 13.3779 39.0569 13.42 39.0604 13.4573C39.0604 13.4573 39.0604 13.4638 39.0604 13.4662V13.51C39.0604 13.527 39.0604 13.5448 39.0604 13.5627C39.0609 13.5699 39.0609 13.5773 39.0604 13.5845C39.0604 13.6145 39.0648 13.6461 39.0657 13.677C39.0661 13.6818 39.0661 13.6867 39.0657 13.6915C39.0657 13.6915 39.0657 13.6972 39.0657 13.6996C39.0657 13.7207 39.0657 13.7418 39.0657 13.7629V13.7742C39.0661 13.7793 39.0661 13.7845 39.0657 13.7896C39.0657 13.8147 39.0657 13.8399 39.0657 13.865C39.0657 13.8901 39.1107 13.9761 39.1107 14.0125Z" fill="url(#paint4_linear_1433_846)"/>
<defs>
<linearGradient id="paint0_linear_1433_846" x1="12.085" y1="30.3034" x2="15.4051" y2="16.7238" gradientUnits="userSpaceOnUse">
<stop stop-color="white"/>
<stop offset="0.29" stop-color="#F3F3F3"/>
<stop offset="1" stop-color="#D9D9D9"/>
</linearGradient>
<linearGradient id="paint1_linear_1433_846" x1="9.24482" y1="12.1372" x2="11.2062" y2="3.22542" gradientUnits="userSpaceOnUse">
<stop stop-color="#D9D9D9"/>
<stop offset="1" stop-color="#BFBFBF"/>
</linearGradient>
<linearGradient id="paint2_linear_1433_846" x1="0" y1="5.83333" x2="48.0036" y2="5.83333" gradientUnits="userSpaceOnUse">
<stop stop-color="white"/>
<stop offset="0.46" stop-color="#E6E6E6"/>
<stop offset="1" stop-color="#CCCCCC"/>
</linearGradient>
<linearGradient id="paint3_linear_1433_846" x1="39.9027" y1="26.1677" x2="35.4037" y2="15.3346" gradientUnits="userSpaceOnUse">
<stop stop-color="white"/>
<stop offset="0.46" stop-color="#E6E6E6"/>
<stop offset="1" stop-color="#CCCCCC"/>
</linearGradient>
<linearGradient id="paint4_linear_1433_846" x1="14.2222" y1="14.0125" x2="39.1107" y2="14.0125" gradientUnits="userSpaceOnUse">
<stop stop-color="white"/>
<stop offset="0.26" stop-color="#FAFAFA"/>
<stop offset="0.57" stop-color="#ECECEC"/>
<stop offset="0.89" stop-color="#D5D5D5"/>
<stop offset="1" stop-color="#CCCCCC"/>
</linearGradient>
</defs>
</svg>
